<svg width="754" height="708" viewBox="0 0 754 708" fill="none" xmlns="http://www.w3.org/2000/svg">
    <g filter="url(#filter0_i_384_233)">
        <g clip-path="url(#clip0_384_233)">
            <rect x="255" y="31" width="429" height="483" rx="24.5" fill="#FFF5F3" />
            <g filter="url(#filter1_ddddd_384_233)">
                <rect x="412.167" y="96.5" width="114.667" height="326" rx="9.5" fill="white" />
                <rect x="412.167" y="96.5" width="114.667" height="326" rx="9.5" stroke="#EEEBE2" />
                <rect x="538.833" y="96.5" width="114.667" height="326" rx="9.5" fill="white" />
                <rect x="538.833" y="96.5" width="114.667" height="326" rx="9.5" stroke="#EEEBE2" />
            </g>
            <path
                d="M294.142 77V70.476L291.594 75.334H290.516L287.968 70.476V77H286.036V67.06H288.108L291.048 72.716L294.016 67.06H296.074V77H294.142ZM298.121 78.428C298.289 78.4653 298.443 78.498 298.583 78.526C298.733 78.554 298.859 78.568 298.961 78.568C299.139 78.568 299.283 78.5213 299.395 78.428C299.517 78.344 299.633 78.1853 299.745 77.952C299.857 77.728 299.974 77.4107 300.095 77L297.197 69.664H299.143L301.117 75.082L302.853 69.664H304.645L301.565 78.456C301.453 78.7827 301.281 79.0767 301.047 79.338C300.823 79.6087 300.539 79.8187 300.193 79.968C299.857 80.1267 299.479 80.206 299.059 80.206C298.91 80.206 298.761 80.192 298.611 80.164C298.462 80.1453 298.299 80.108 298.121 80.052V78.428ZM316.96 77V70.476L314.412 75.334H313.334L310.786 70.476V77H308.854V67.06H310.926L313.866 72.716L316.834 67.06H318.892V77H316.96ZM320.786 77V69.664H322.662V77H320.786ZM320.786 68.642V66.78H322.662V68.642H320.786ZM327.77 77.14C327.173 77.14 326.636 77.042 326.16 76.846C325.684 76.6407 325.278 76.3607 324.942 76.006C324.606 75.642 324.345 75.2313 324.158 74.774C323.981 74.3167 323.892 73.836 323.892 73.332C323.892 72.6413 324.046 72.0113 324.354 71.442C324.671 70.8633 325.119 70.4013 325.698 70.056C326.277 69.7107 326.963 69.538 327.756 69.538C328.549 69.538 329.231 69.7107 329.8 70.056C330.369 70.4013 330.794 70.854 331.074 71.414L329.24 71.974C329.081 71.7033 328.871 71.498 328.61 71.358C328.349 71.2087 328.059 71.134 327.742 71.134C327.387 71.134 327.061 71.2273 326.762 71.414C326.473 71.5913 326.244 71.848 326.076 72.184C325.908 72.5107 325.824 72.8933 325.824 73.332C325.824 73.7613 325.908 74.144 326.076 74.48C326.253 74.8067 326.487 75.068 326.776 75.264C327.065 75.4507 327.387 75.544 327.742 75.544C327.966 75.544 328.176 75.5067 328.372 75.432C328.577 75.3573 328.759 75.2547 328.918 75.124C329.077 74.9933 329.193 74.844 329.268 74.676L331.102 75.236C330.934 75.6 330.687 75.9267 330.36 76.216C330.043 76.5053 329.665 76.734 329.226 76.902C328.797 77.0607 328.311 77.14 327.77 77.14ZM336.624 71.288C336.055 71.288 335.546 71.4 335.098 71.624C334.65 71.8387 334.328 72.1513 334.132 72.562V77H332.256V69.664H333.978V71.232C334.24 70.728 334.571 70.3313 334.972 70.042C335.374 69.7527 335.798 69.594 336.246 69.566C336.349 69.566 336.428 69.566 336.484 69.566C336.54 69.566 336.587 69.5707 336.624 69.58V71.288ZM340.963 77.14C340.365 77.14 339.829 77.042 339.353 76.846C338.877 76.6407 338.471 76.3607 338.135 76.006C337.808 75.6513 337.556 75.2453 337.379 74.788C337.201 74.3307 337.113 73.85 337.113 73.346C337.113 72.8327 337.201 72.3473 337.379 71.89C337.556 71.4327 337.808 71.0267 338.135 70.672C338.471 70.3173 338.877 70.042 339.353 69.846C339.829 69.6407 340.365 69.538 340.963 69.538C341.56 69.538 342.092 69.6407 342.559 69.846C343.035 70.042 343.441 70.3173 343.777 70.672C344.113 71.0267 344.365 71.4327 344.533 71.89C344.71 72.3473 344.799 72.8327 344.799 73.346C344.799 73.85 344.71 74.3307 344.533 74.788C344.365 75.2453 344.113 75.6513 343.777 76.006C343.45 76.3607 343.049 76.6407 342.573 76.846C342.097 77.042 341.56 77.14 340.963 77.14ZM339.045 73.346C339.045 73.7753 339.129 74.158 339.297 74.494C339.465 74.8207 339.693 75.0773 339.983 75.264C340.272 75.4507 340.599 75.544 340.963 75.544C341.317 75.544 341.639 75.4507 341.929 75.264C342.218 75.068 342.447 74.8067 342.615 74.48C342.792 74.144 342.881 73.7613 342.881 73.332C342.881 72.912 342.792 72.534 342.615 72.198C342.447 71.862 342.218 71.6007 341.929 71.414C341.639 71.2273 341.317 71.134 340.963 71.134C340.599 71.134 340.272 71.232 339.983 71.428C339.693 71.6147 339.465 71.876 339.297 72.212C339.129 72.5387 339.045 72.9167 339.045 73.346ZM349.61 77V67.06H356.288V68.754H351.542V71.316H355.49V72.884H351.542V77H349.61ZM361.466 71.288C360.897 71.288 360.388 71.4 359.94 71.624C359.492 71.8387 359.17 72.1513 358.974 72.562V77H357.098V69.664H358.82V71.232C359.081 70.728 359.413 70.3313 359.814 70.042C360.215 69.7527 360.64 69.594 361.088 69.566C361.191 69.566 361.27 69.566 361.326 69.566C361.382 69.566 361.429 69.5707 361.466 69.58V71.288ZM365.805 77.14C365.207 77.14 364.671 77.042 364.195 76.846C363.719 76.6407 363.313 76.3607 362.977 76.006C362.65 75.6513 362.398 75.2453 362.221 74.788C362.043 74.3307 361.955 73.85 361.955 73.346C361.955 72.8327 362.043 72.3473 362.221 71.89C362.398 71.4327 362.65 71.0267 362.977 70.672C363.313 70.3173 363.719 70.042 364.195 69.846C364.671 69.6407 365.207 69.538 365.805 69.538C366.402 69.538 366.934 69.6407 367.401 69.846C367.877 70.042 368.283 70.3173 368.619 70.672C368.955 71.0267 369.207 71.4327 369.375 71.89C369.552 72.3473 369.641 72.8327 369.641 73.346C369.641 73.85 369.552 74.3307 369.375 74.788C369.207 75.2453 368.955 75.6513 368.619 76.006C368.292 76.3607 367.891 76.6407 367.415 76.846C366.939 77.042 366.402 77.14 365.805 77.14ZM363.887 73.346C363.887 73.7753 363.971 74.158 364.139 74.494C364.307 74.8207 364.535 75.0773 364.825 75.264C365.114 75.4507 365.441 75.544 365.805 75.544C366.159 75.544 366.481 75.4507 366.771 75.264C367.06 75.068 367.289 74.8067 367.457 74.48C367.634 74.144 367.723 73.7613 367.723 73.332C367.723 72.912 367.634 72.534 367.457 72.198C367.289 71.862 367.06 71.6007 366.771 71.414C366.481 71.2273 366.159 71.134 365.805 71.134C365.441 71.134 365.114 71.232 364.825 71.428C364.535 71.6147 364.307 71.876 364.139 72.212C363.971 72.5387 363.887 72.9167 363.887 73.346ZM377.725 77H375.849V72.884C375.849 72.296 375.746 71.8667 375.541 71.596C375.335 71.3253 375.051 71.19 374.687 71.19C374.435 71.19 374.178 71.2553 373.917 71.386C373.665 71.5167 373.436 71.6987 373.231 71.932C373.025 72.156 372.876 72.4173 372.783 72.716V77H370.907V69.664H372.601V71.022C372.787 70.7047 373.025 70.4387 373.315 70.224C373.604 70 373.935 69.832 374.309 69.72C374.691 69.5987 375.093 69.538 375.513 69.538C375.97 69.538 376.343 69.622 376.633 69.79C376.931 69.9487 377.155 70.168 377.305 70.448C377.463 70.7187 377.571 71.0267 377.627 71.372C377.692 71.7173 377.725 72.0673 377.725 72.422V77ZM383.711 76.622C383.552 76.6873 383.361 76.762 383.137 76.846C382.913 76.93 382.67 76.9953 382.409 77.042C382.157 77.098 381.9 77.126 381.639 77.126C381.294 77.126 380.976 77.0653 380.687 76.944C380.398 76.8227 380.164 76.6313 379.987 76.37C379.819 76.0993 379.735 75.7493 379.735 75.32V71.106H378.769V69.664H379.735V67.284H381.611V69.664H383.151V71.106H381.611V74.69C381.62 74.942 381.69 75.124 381.821 75.236C381.952 75.348 382.115 75.404 382.311 75.404C382.507 75.404 382.698 75.3713 382.885 75.306C383.072 75.2407 383.221 75.1847 383.333 75.138L383.711 76.622ZM387.994 77.14C387.406 77.14 386.874 77.042 386.398 76.846C385.922 76.6407 385.516 76.3653 385.18 76.02C384.844 75.6653 384.583 75.264 384.396 74.816C384.219 74.3587 384.13 73.878 384.13 73.374C384.13 72.674 384.284 72.0347 384.592 71.456C384.91 70.8773 385.358 70.4153 385.936 70.07C386.524 69.7153 387.215 69.538 388.008 69.538C388.811 69.538 389.497 69.7153 390.066 70.07C390.636 70.4153 391.07 70.8773 391.368 71.456C391.676 72.0253 391.83 72.6413 391.83 73.304C391.83 73.416 391.826 73.5327 391.816 73.654C391.807 73.766 391.798 73.8593 391.788 73.934H386.118C386.156 74.3073 386.263 74.634 386.44 74.914C386.627 75.194 386.86 75.4087 387.14 75.558C387.43 75.698 387.738 75.768 388.064 75.768C388.438 75.768 388.788 75.6793 389.114 75.502C389.45 75.3153 389.679 75.0727 389.8 74.774L391.41 75.222C391.233 75.5953 390.976 75.9267 390.64 76.216C390.314 76.5053 389.926 76.734 389.478 76.902C389.03 77.0607 388.536 77.14 387.994 77.14ZM386.076 72.744H389.912C389.875 72.3707 389.768 72.0487 389.59 71.778C389.422 71.498 389.198 71.2833 388.918 71.134C388.638 70.9753 388.326 70.896 387.98 70.896C387.644 70.896 387.336 70.9753 387.056 71.134C386.786 71.2833 386.562 71.498 386.384 71.778C386.216 72.0487 386.114 72.3707 386.076 72.744ZM399.791 77H397.915V72.884C397.915 72.296 397.812 71.8667 397.607 71.596C397.402 71.3253 397.117 71.19 396.753 71.19C396.501 71.19 396.244 71.2553 395.983 71.386C395.731 71.5167 395.502 71.6987 395.297 71.932C395.092 72.156 394.942 72.4173 394.849 72.716V77H392.973V69.664H394.667V71.022C394.854 70.7047 395.092 70.4387 395.381 70.224C395.67 70 396.002 69.832 396.375 69.72C396.758 69.5987 397.159 69.538 397.579 69.538C398.036 69.538 398.41 69.622 398.699 69.79C398.998 69.9487 399.222 70.168 399.371 70.448C399.53 70.7187 399.637 71.0267 399.693 71.372C399.758 71.7173 399.791 72.0673 399.791 72.422V77ZM400.974 73.332C400.974 72.6227 401.114 71.9833 401.394 71.414C401.674 70.8353 402.062 70.378 402.556 70.042C403.051 69.706 403.616 69.538 404.25 69.538C404.792 69.538 405.277 69.6733 405.706 69.944C406.145 70.2053 406.486 70.5413 406.728 70.952V66.78H408.604V74.9C408.604 75.096 408.637 75.236 408.702 75.32C408.768 75.404 408.88 75.4553 409.038 75.474V77C408.712 77.0653 408.446 77.098 408.24 77.098C407.904 77.098 407.624 77.014 407.4 76.846C407.186 76.678 407.064 76.4587 407.036 76.188L407.008 75.726C406.738 76.1833 406.369 76.5333 405.902 76.776C405.445 77.0187 404.964 77.14 404.46 77.14C403.956 77.14 403.49 77.042 403.06 76.846C402.64 76.65 402.272 76.3793 401.954 76.034C401.646 75.6887 401.404 75.2873 401.226 74.83C401.058 74.3633 400.974 73.864 400.974 73.332ZM406.728 74.312V72.562C406.635 72.2913 406.486 72.0487 406.28 71.834C406.075 71.6193 405.846 71.4513 405.594 71.33C405.342 71.1993 405.09 71.134 404.838 71.134C404.549 71.134 404.288 71.1947 404.054 71.316C403.821 71.4373 403.616 71.6007 403.438 71.806C403.27 72.0113 403.14 72.2493 403.046 72.52C402.962 72.7907 402.92 73.0753 402.92 73.374C402.92 73.6727 402.967 73.9573 403.06 74.228C403.163 74.4893 403.308 74.718 403.494 74.914C403.681 75.11 403.896 75.264 404.138 75.376C404.39 75.488 404.661 75.544 404.95 75.544C405.128 75.544 405.305 75.516 405.482 75.46C405.669 75.3947 405.842 75.3107 406 75.208C406.168 75.096 406.313 74.9653 406.434 74.816C406.565 74.6573 406.663 74.4893 406.728 74.312ZM419.913 69.664C419.848 69.5987 419.726 69.51 419.549 69.398C419.381 69.286 419.171 69.1787 418.919 69.076C418.676 68.9733 418.41 68.8847 418.121 68.81C417.832 68.726 417.538 68.684 417.239 68.684C416.716 68.684 416.32 68.782 416.049 68.978C415.788 69.174 415.657 69.4493 415.657 69.804C415.657 70.0747 415.741 70.2893 415.909 70.448C416.077 70.6067 416.329 70.742 416.665 70.854C417.001 70.966 417.421 71.0873 417.925 71.218C418.578 71.3767 419.143 71.5727 419.619 71.806C420.104 72.03 420.473 72.3287 420.725 72.702C420.986 73.066 421.117 73.5513 421.117 74.158C421.117 74.69 421.019 75.1473 420.823 75.53C420.627 75.9033 420.356 76.2067 420.011 76.44C419.666 76.6733 419.274 76.846 418.835 76.958C418.396 77.0607 417.93 77.112 417.435 77.112C416.94 77.112 416.446 77.0607 415.951 76.958C415.456 76.8553 414.98 76.7107 414.523 76.524C414.066 76.328 413.646 76.0947 413.263 75.824L414.117 74.158C414.201 74.242 414.35 74.354 414.565 74.494C414.78 74.6247 415.041 74.76 415.349 74.9C415.657 75.0307 415.993 75.1427 416.357 75.236C416.721 75.3293 417.09 75.376 417.463 75.376C417.986 75.376 418.382 75.2873 418.653 75.11C418.924 74.9327 419.059 74.6807 419.059 74.354C419.059 74.0553 418.952 73.822 418.737 73.654C418.522 73.486 418.224 73.3413 417.841 73.22C417.458 73.0893 417.006 72.9493 416.483 72.8C415.858 72.6227 415.335 72.4267 414.915 72.212C414.495 71.988 414.182 71.708 413.977 71.372C413.772 71.036 413.669 70.616 413.669 70.112C413.669 69.4307 413.828 68.8613 414.145 68.404C414.472 67.9373 414.91 67.5873 415.461 67.354C416.012 67.1113 416.623 66.99 417.295 66.99C417.762 66.99 418.2 67.0413 418.611 67.144C419.031 67.2467 419.423 67.382 419.787 67.55C420.151 67.718 420.478 67.9 420.767 68.096L419.913 69.664ZM425.797 77.14C425.209 77.14 424.677 77.042 424.201 76.846C423.725 76.6407 423.319 76.3653 422.983 76.02C422.647 75.6653 422.386 75.264 422.199 74.816C422.022 74.3587 421.933 73.878 421.933 73.374C421.933 72.674 422.087 72.0347 422.395 71.456C422.712 70.8773 423.16 70.4153 423.739 70.07C424.327 69.7153 425.018 69.538 425.811 69.538C426.614 69.538 427.3 69.7153 427.869 70.07C428.438 70.4153 428.872 70.8773 429.171 71.456C429.479 72.0253 429.633 72.6413 429.633 73.304C429.633 73.416 429.628 73.5327 429.619 73.654C429.61 73.766 429.6 73.8593 429.591 73.934H423.921C423.958 74.3073 424.066 74.634 424.243 74.914C424.43 75.194 424.663 75.4087 424.943 75.558C425.232 75.698 425.54 75.768 425.867 75.768C426.24 75.768 426.59 75.6793 426.917 75.502C427.253 75.3153 427.482 75.0727 427.603 74.774L429.213 75.222C429.036 75.5953 428.779 75.9267 428.443 76.216C428.116 76.5053 427.729 76.734 427.281 76.902C426.833 77.0607 426.338 77.14 425.797 77.14ZM423.879 72.744H427.715C427.678 72.3707 427.57 72.0487 427.393 71.778C427.225 71.498 427.001 71.2833 426.721 71.134C426.441 70.9753 426.128 70.896 425.783 70.896C425.447 70.896 425.139 70.9753 424.859 71.134C424.588 71.2833 424.364 71.498 424.187 71.778C424.019 72.0487 423.916 72.3707 423.879 72.744ZM435.104 76.622C434.945 76.6873 434.754 76.762 434.53 76.846C434.306 76.93 434.063 76.9953 433.802 77.042C433.55 77.098 433.293 77.126 433.032 77.126C432.686 77.126 432.369 77.0653 432.08 76.944C431.79 76.8227 431.557 76.6313 431.38 76.37C431.212 76.0993 431.128 75.7493 431.128 75.32V71.106H430.162V69.664H431.128V67.284H433.004V69.664H434.544V71.106H433.004V74.69C433.013 74.942 433.083 75.124 433.214 75.236C433.344 75.348 433.508 75.404 433.704 75.404C433.9 75.404 434.091 75.3713 434.278 75.306C434.464 75.2407 434.614 75.1847 434.726 75.138L435.104 76.622ZM436.011 74.256V69.664H437.887V73.85C437.887 74.41 437.989 74.8347 438.195 75.124C438.4 75.404 438.703 75.544 439.105 75.544C439.347 75.544 439.585 75.4973 439.819 75.404C440.061 75.3013 440.281 75.152 440.477 74.956C440.682 74.76 440.855 74.5127 440.995 74.214V69.664H442.871V74.9C442.871 75.096 442.903 75.236 442.969 75.32C443.043 75.404 443.16 75.4553 443.319 75.474V77C443.132 77.028 442.973 77.0467 442.843 77.056C442.721 77.0747 442.609 77.084 442.507 77.084C442.171 77.084 441.895 77.0093 441.681 76.86C441.475 76.7013 441.354 76.4867 441.317 76.216L441.275 75.628C440.948 76.1227 440.528 76.5007 440.015 76.762C439.501 77.014 438.937 77.14 438.321 77.14C437.565 77.14 436.991 76.8973 436.599 76.412C436.207 75.9173 436.011 75.1987 436.011 74.256ZM449.131 77.14C448.562 77.14 448.058 77.014 447.619 76.762C447.19 76.5007 446.854 76.1507 446.611 75.712V79.982H444.735V69.664H446.373V70.924C446.653 70.4947 447.008 70.1587 447.437 69.916C447.866 69.664 448.356 69.538 448.907 69.538C449.402 69.538 449.854 69.636 450.265 69.832C450.685 70.028 451.049 70.3033 451.357 70.658C451.665 71.0033 451.903 71.4047 452.071 71.862C452.248 72.31 452.337 72.7953 452.337 73.318C452.337 74.0273 452.197 74.6713 451.917 75.25C451.646 75.8287 451.268 76.2907 450.783 76.636C450.307 76.972 449.756 77.14 449.131 77.14ZM448.501 75.544C448.79 75.544 449.052 75.4833 449.285 75.362C449.518 75.2407 449.719 75.0773 449.887 74.872C450.064 74.6573 450.195 74.4193 450.279 74.158C450.372 73.8873 450.419 73.6073 450.419 73.318C450.419 73.01 450.368 72.7253 450.265 72.464C450.172 72.2027 450.032 71.974 449.845 71.778C449.658 71.5727 449.439 71.414 449.187 71.302C448.944 71.19 448.678 71.134 448.389 71.134C448.212 71.134 448.03 71.1667 447.843 71.232C447.666 71.288 447.493 71.372 447.325 71.484C447.157 71.596 447.008 71.7267 446.877 71.876C446.756 72.0253 446.667 72.1887 446.611 72.366V74.088C446.723 74.3587 446.872 74.606 447.059 74.83C447.255 75.054 447.479 75.2313 447.731 75.362C447.983 75.4833 448.24 75.544 448.501 75.544Z"
                fill="black" />
        </g>
        <rect x="255.5" y="31.5" width="428" height="482" rx="24" stroke="#EEEBE2" />
    </g>
    <g filter="url(#filter2_ddddd_384_233)">
        <rect x="100.5" y="96.5" width="114" height="337" rx="9.5" fill="white" />
        <rect x="100.5" y="96.5" width="114" height="337" rx="9.5" stroke="#EEEBE2" />
        <path
            d="M157.501 128.875C156.937 128.875 156.396 129.099 155.998 129.497C155.599 129.896 155.375 130.436 155.375 131C155.375 131.564 155.599 132.104 155.998 132.503C156.396 132.901 156.937 133.125 157.501 133.125C158.064 133.125 158.605 132.901 159.004 132.503C159.402 132.104 159.626 131.564 159.626 131C159.626 130.436 159.402 129.896 159.004 129.497C158.605 129.099 158.064 128.875 157.501 128.875ZM164.833 123.101C165.12 123.094 165.408 123.119 165.69 123.173C165.914 123.217 166.129 123.294 166.33 123.403C166.476 123.484 166.607 123.59 166.717 123.716C166.824 123.84 166.908 123.982 166.963 124.136C167.031 124.33 167.069 124.533 167.075 124.739C167.085 124.999 167.055 125.269 166.998 125.543C166.921 125.898 166.812 126.245 166.673 126.58C166.49 127.025 166.267 127.46 166.019 127.884C165.69 128.439 165.327 128.975 164.93 129.493C164.737 129.748 164.53 129.995 164.323 130.241C164.031 129.924 163.732 129.613 163.426 129.308C162.561 128.458 161.648 127.658 160.693 126.912L160.669 126.893L160.054 127.683L160.078 127.701C161.003 128.423 161.887 129.198 162.723 130.021C163.044 130.337 163.357 130.661 163.661 130.995C163.529 131.139 163.402 131.288 163.266 131.429C163.134 131.568 163 131.705 162.865 131.84L163.571 132.547C163.713 132.406 163.852 132.264 163.989 132.12C164.102 132.003 164.207 131.877 164.319 131.757C164.406 131.861 164.499 131.96 164.583 132.065C165.021 132.602 165.425 133.163 165.795 133.748C166.077 134.196 166.334 134.656 166.547 135.129C166.708 135.476 166.839 135.835 166.938 136.204C167.014 136.481 167.059 136.766 167.074 137.053C167.085 137.291 167.065 137.521 167.007 137.731C166.964 137.892 166.893 138.044 166.798 138.181C166.704 138.315 166.586 138.431 166.45 138.523C166.278 138.636 166.09 138.722 165.893 138.777C165.642 138.849 165.373 138.885 165.093 138.897C164.738 138.911 164.375 138.884 164.007 138.831C163.526 138.757 163.051 138.651 162.585 138.513C161.966 138.331 161.358 138.104 160.759 137.847H160.758C159.978 137.505 159.217 137.122 158.478 136.7L158.445 136.68C159.217 136.182 159.967 135.651 160.693 135.088L160.413 134.728L160.694 135.088L160.718 135.068L160.101 134.281L160.078 134.3C159.154 135.024 158.189 135.694 157.187 136.307C156.4 136.788 155.587 137.225 154.751 137.617C154.125 137.912 153.483 138.168 152.826 138.385C152.328 138.55 151.819 138.682 151.303 138.78C150.928 138.853 150.548 138.893 150.166 138.9C149.878 138.906 149.591 138.882 149.309 138.827C149.085 138.783 148.869 138.706 148.669 138.597C148.376 138.438 148.151 138.178 148.035 137.865C147.967 137.671 147.929 137.467 147.923 137.261C147.916 136.991 147.942 136.721 148.001 136.457C148.074 136.109 148.187 135.764 148.327 135.421C148.515 134.972 148.733 134.537 148.981 134.117C149.473 133.282 150.04 132.494 150.675 131.761C150.985 132.096 151.301 132.424 151.625 132.744C152.478 133.578 153.377 134.364 154.318 135.097L154.933 134.309C154.022 133.599 153.151 132.839 152.326 132.031C151.987 131.697 151.658 131.356 151.338 131.005C151.469 130.86 151.6 130.715 151.731 130.572C151.868 130.43 152.006 130.289 152.145 130.149L151.438 129.443C151.294 129.588 151.151 129.733 151.01 129.88C150.897 129.999 150.79 130.124 150.679 130.244C150.606 130.156 150.527 130.073 150.454 129.984C150.016 129.446 149.608 128.884 149.233 128.3C148.949 127.855 148.694 127.392 148.471 126.913C148.301 126.554 148.164 126.18 148.061 125.796C147.985 125.519 147.939 125.234 147.925 124.947C147.913 124.719 147.935 124.491 147.991 124.271C148.037 124.104 148.106 123.954 148.201 123.819C148.291 123.688 148.413 123.571 148.549 123.477C148.721 123.365 148.909 123.279 149.107 123.224C149.368 123.152 149.636 123.111 149.906 123.104C150.269 123.093 150.632 123.115 150.991 123.168C151.472 123.242 151.948 123.349 152.414 123.488C153.035 123.673 153.645 123.896 154.239 124.155C155.032 124.499 155.805 124.888 156.554 125.32C155.778 125.821 155.025 126.356 154.295 126.923L154.911 127.709C155.82 126.997 156.768 126.336 157.751 125.731C158.54 125.246 159.355 124.806 160.191 124.411C160.823 124.115 161.466 123.851 162.122 123.633C162.622 123.465 163.132 123.33 163.65 123.229C164.047 123.155 164.443 123.107 164.833 123.101ZM164.819 122.101C164.365 122.111 163.912 122.159 163.466 122.245C162.904 122.356 162.349 122.502 161.806 122.684C161.111 122.917 160.43 123.192 159.767 123.505C158.99 123.868 158.239 124.281 157.506 124.719C156.584 124.161 155.625 123.665 154.637 123.236C154.005 122.962 153.357 122.725 152.697 122.528C152.185 122.374 151.663 122.258 151.134 122.179C150.715 122.114 150.291 122.089 149.867 122.105C149.529 122.119 149.179 122.163 148.833 122.261C148.531 122.346 148.245 122.478 147.985 122.653C147.513 122.974 147.174 123.454 147.029 124.005C146.944 124.326 146.909 124.657 146.926 124.988C146.943 125.348 147 125.705 147.095 126.052C147.215 126.491 147.371 126.919 147.563 127.331C147.806 127.849 148.082 128.352 148.39 128.835C148.784 129.453 149.215 130.047 149.679 130.615C149.786 130.745 149.901 130.868 150.01 130.996C149.756 131.291 149.511 131.593 149.274 131.901C148.859 132.445 148.469 133.013 148.118 133.611C147.845 134.071 147.605 134.55 147.401 135.044C147.239 135.435 147.113 135.841 147.023 136.255C146.948 136.597 146.916 136.947 146.926 137.297C146.934 137.61 146.993 137.92 147.099 138.215V138.216C147.297 138.75 147.681 139.195 148.179 139.469C148.47 139.629 148.783 139.743 149.109 139.807C149.462 139.877 149.822 139.908 150.182 139.9C150.619 139.89 151.055 139.845 151.485 139.764L151.486 139.763C152.047 139.66 152.599 139.517 153.139 139.336C153.833 139.105 154.512 138.833 155.174 138.523C155.969 138.15 156.744 137.736 157.497 137.283C157.658 137.379 157.82 137.474 157.985 137.568C158.755 138.011 159.55 138.411 160.365 138.765C160.997 139.039 161.645 139.275 162.305 139.472C162.811 139.621 163.334 139.744 163.867 139.821C164.286 139.884 164.71 139.909 165.134 139.896C165.473 139.883 165.822 139.837 166.169 139.739C166.459 139.655 166.75 139.531 167.017 139.347C167.487 139.025 167.827 138.545 167.973 137.995C168.063 137.664 168.089 137.332 168.075 137.013C168.058 136.653 168.001 136.296 167.906 135.948C167.791 135.526 167.642 135.115 167.459 134.717C167.22 134.2 166.947 133.698 166.643 133.215C166.25 132.599 165.823 132.006 165.365 131.437C165.245 131.289 165.114 131.149 164.991 131.005C165.244 130.71 165.489 130.408 165.727 130.1C166.142 129.555 166.533 128.987 166.883 128.389C167.156 127.929 167.396 127.45 167.601 126.956C167.762 126.565 167.889 126.16 167.978 125.747C168.049 125.413 168.089 125.063 168.075 124.703C168.067 124.39 168.008 124.08 167.902 123.785V123.784C167.704 123.25 167.321 122.805 166.822 122.531C166.531 122.371 166.218 122.258 165.893 122.195C165.539 122.124 165.179 122.093 164.819 122.101ZM157.501 115L171.357 123V139L157.501 147L143.643 139V123L157.501 115Z"
            fill="black" />
    </g>
    <g filter="url(#filter3_ddddd_384_233)">
        <rect x="285.5" y="564.5" width="368" height="39" rx="9.5" fill="white" />
        <rect x="285.5" y="564.5" width="368" height="39" rx="9.5" stroke="#EEEBE2" />
        <path
            d="M396.92 589V579.074H397.886V589H396.92ZM406.3 589H405.348V584.926C405.348 584.058 405.222 583.428 404.97 583.036C404.718 582.644 404.326 582.448 403.794 582.448C403.514 582.448 403.234 582.499 402.954 582.602C402.674 582.705 402.413 582.849 402.17 583.036C401.928 583.223 401.713 583.447 401.526 583.708C401.349 583.96 401.214 584.235 401.12 584.534V589H400.168V581.706H401.036V583.358C401.186 583.097 401.368 582.859 401.582 582.644C401.806 582.42 402.054 582.229 402.324 582.07C402.595 581.911 402.88 581.79 403.178 581.706C403.486 581.622 403.804 581.58 404.13 581.58C404.541 581.58 404.882 581.655 405.152 581.804C405.432 581.953 405.656 582.163 405.824 582.434C405.992 582.705 406.114 583.036 406.188 583.428C406.263 583.82 406.3 584.254 406.3 584.73V589ZM411.749 588.65C411.693 588.678 411.609 588.715 411.497 588.762C411.395 588.809 411.273 588.855 411.133 588.902C410.993 588.949 410.835 588.991 410.657 589.028C410.48 589.065 410.293 589.084 410.097 589.084C409.892 589.084 409.696 589.056 409.509 589C409.323 588.944 409.159 588.86 409.019 588.748C408.879 588.627 408.767 588.477 408.683 588.3C408.599 588.123 408.557 587.917 408.557 587.684V582.462H407.549V581.706H408.557V579.242H409.509V581.706H411.189V582.462H409.509V587.418C409.528 587.689 409.621 587.889 409.789 588.02C409.957 588.141 410.158 588.202 410.391 588.202C410.662 588.202 410.9 588.16 411.105 588.076C411.311 587.983 411.441 587.917 411.497 587.88L411.749 588.65ZM416.062 589.14C415.53 589.14 415.04 589.042 414.592 588.846C414.144 588.641 413.756 588.365 413.43 588.02C413.103 587.665 412.846 587.259 412.66 586.802C412.482 586.345 412.394 585.855 412.394 585.332C412.394 584.819 412.482 584.338 412.66 583.89C412.846 583.433 413.103 583.036 413.43 582.7C413.756 582.355 414.139 582.084 414.578 581.888C415.026 581.683 415.516 581.58 416.048 581.58C416.58 581.58 417.065 581.683 417.504 581.888C417.952 582.084 418.334 582.355 418.652 582.7C418.969 583.045 419.216 583.442 419.394 583.89C419.571 584.338 419.66 584.814 419.66 585.318C419.66 585.393 419.655 585.467 419.646 585.542C419.646 585.617 419.641 585.668 419.632 585.696H413.402C413.43 586.088 413.518 586.452 413.668 586.788C413.826 587.115 414.022 587.399 414.256 587.642C414.498 587.885 414.774 588.076 415.082 588.216C415.399 588.347 415.735 588.412 416.09 588.412C416.332 588.412 416.57 588.379 416.804 588.314C417.037 588.249 417.252 588.16 417.448 588.048C417.644 587.936 417.816 587.801 417.966 587.642C418.124 587.474 418.246 587.292 418.33 587.096L419.156 587.32C419.044 587.591 418.885 587.838 418.68 588.062C418.474 588.277 418.236 588.468 417.966 588.636C417.695 588.795 417.396 588.916 417.07 589C416.743 589.093 416.407 589.14 416.062 589.14ZM418.75 584.968C418.722 584.576 418.628 584.221 418.47 583.904C418.32 583.577 418.124 583.297 417.882 583.064C417.648 582.831 417.373 582.649 417.056 582.518C416.738 582.387 416.402 582.322 416.048 582.322C415.693 582.322 415.357 582.387 415.04 582.518C414.722 582.649 414.442 582.831 414.2 583.064C413.966 583.297 413.775 583.577 413.626 583.904C413.486 584.231 413.402 584.585 413.374 584.968H418.75ZM424.04 589.098C423.536 589.098 423.074 588.995 422.654 588.79C422.244 588.575 421.884 588.295 421.576 587.95C421.278 587.605 421.044 587.208 420.876 586.76C420.708 586.312 420.624 585.85 420.624 585.374C420.624 584.87 420.704 584.389 420.862 583.932C421.03 583.465 421.264 583.059 421.562 582.714C421.861 582.369 422.216 582.093 422.626 581.888C423.046 581.683 423.508 581.58 424.012 581.58C424.638 581.58 425.179 581.739 425.636 582.056C426.094 582.364 426.486 582.756 426.812 583.232V581.706H427.666V589.028C427.666 589.532 427.568 589.975 427.372 590.358C427.186 590.75 426.929 591.077 426.602 591.338C426.285 591.599 425.907 591.795 425.468 591.926C425.03 592.057 424.568 592.122 424.082 592.122C423.252 592.122 422.58 591.973 422.066 591.674C421.553 591.375 421.138 590.974 420.82 590.47L421.408 590.008C421.698 590.475 422.08 590.815 422.556 591.03C423.032 591.254 423.541 591.366 424.082 591.366C424.437 591.366 424.773 591.315 425.09 591.212C425.417 591.119 425.697 590.974 425.93 590.778C426.173 590.591 426.364 590.349 426.504 590.05C426.644 589.761 426.714 589.42 426.714 589.028V587.586C426.425 588.053 426.038 588.421 425.552 588.692C425.076 588.963 424.572 589.098 424.04 589.098ZM424.306 588.3C424.586 588.3 424.862 588.249 425.132 588.146C425.403 588.043 425.646 587.908 425.86 587.74C426.084 587.563 426.271 587.367 426.42 587.152C426.57 586.937 426.668 586.718 426.714 586.494V584.24C426.612 583.979 426.467 583.736 426.28 583.512C426.103 583.288 425.902 583.097 425.678 582.938C425.454 582.779 425.212 582.653 424.95 582.56C424.698 582.467 424.442 582.42 424.18 582.42C423.77 582.42 423.406 582.509 423.088 582.686C422.771 582.854 422.5 583.078 422.276 583.358C422.052 583.638 421.88 583.955 421.758 584.31C421.646 584.665 421.59 585.024 421.59 585.388C421.59 585.78 421.66 586.153 421.8 586.508C421.94 586.863 422.132 587.175 422.374 587.446C422.617 587.707 422.902 587.917 423.228 588.076C423.564 588.225 423.924 588.3 424.306 588.3ZM433.353 582.546C432.709 582.565 432.149 582.742 431.673 583.078C431.197 583.414 430.861 583.876 430.665 584.464V589H429.713V581.706H430.609V583.456C430.861 582.943 431.193 582.518 431.603 582.182C432.014 581.837 432.457 581.664 432.933 581.664C433.017 581.664 433.097 581.664 433.171 581.664C433.246 581.664 433.307 581.669 433.353 581.678V582.546ZM436.417 589.14C436.044 589.14 435.703 589.084 435.395 588.972C435.087 588.851 434.821 588.687 434.597 588.482C434.382 588.277 434.214 588.039 434.093 587.768C433.972 587.497 433.911 587.213 433.911 586.914C433.911 586.578 433.986 586.275 434.135 586.004C434.284 585.724 434.494 585.486 434.765 585.29C435.036 585.094 435.358 584.945 435.731 584.842C436.114 584.73 436.534 584.674 436.991 584.674C437.355 584.674 437.728 584.707 438.111 584.772C438.494 584.837 438.834 584.931 439.133 585.052V584.394C439.133 583.75 438.946 583.241 438.573 582.868C438.209 582.485 437.714 582.294 437.089 582.294C436.697 582.294 436.305 582.369 435.913 582.518C435.53 582.667 435.138 582.882 434.737 583.162L434.401 582.532C434.877 582.215 435.339 581.977 435.787 581.818C436.235 581.659 436.702 581.58 437.187 581.58C438.074 581.58 438.778 581.837 439.301 582.35C439.824 582.863 440.085 583.573 440.085 584.478V587.768C440.085 588.029 440.197 588.16 440.421 588.16V589C440.346 589.009 440.276 589.014 440.211 589.014C440.146 589.023 440.09 589.028 440.043 589.028C439.856 589.028 439.684 588.972 439.525 588.86C439.376 588.748 439.292 588.58 439.273 588.356L439.245 587.782C438.928 588.211 438.508 588.547 437.985 588.79C437.472 589.023 436.949 589.14 436.417 589.14ZM436.655 588.412C437.075 588.412 437.49 588.323 437.901 588.146C438.321 587.959 438.652 587.707 438.895 587.39C438.96 587.306 439.016 587.217 439.063 587.124C439.11 587.021 439.133 586.928 439.133 586.844V585.654C438.816 585.533 438.484 585.439 438.139 585.374C437.794 585.309 437.458 585.276 437.131 585.276C436.45 585.276 435.894 585.416 435.465 585.696C435.045 585.967 434.835 586.345 434.835 586.83C434.835 587.026 434.872 587.217 434.947 587.404C435.022 587.591 435.134 587.759 435.283 587.908C435.442 588.057 435.633 588.179 435.857 588.272C436.081 588.365 436.347 588.412 436.655 588.412ZM445.587 588.65C445.531 588.678 445.447 588.715 445.335 588.762C445.232 588.809 445.111 588.855 444.971 588.902C444.831 588.949 444.672 588.991 444.495 589.028C444.318 589.065 444.131 589.084 443.935 589.084C443.73 589.084 443.534 589.056 443.347 589C443.16 588.944 442.997 588.86 442.857 588.748C442.717 588.627 442.605 588.477 442.521 588.3C442.437 588.123 442.395 587.917 442.395 587.684V582.462H441.387V581.706H442.395V579.242H443.347V581.706H445.027V582.462H443.347V587.418C443.366 587.689 443.459 587.889 443.627 588.02C443.795 588.141 443.996 588.202 444.229 588.202C444.5 588.202 444.738 588.16 444.943 588.076C445.148 587.983 445.279 587.917 445.335 587.88L445.587 588.65ZM446.708 589V581.706H447.66V589H446.708ZM446.708 580.18V578.78H447.66V580.18H446.708ZM452.852 589.14C452.32 589.14 451.83 589.042 451.382 588.846C450.943 588.641 450.56 588.365 450.234 588.02C449.916 587.675 449.669 587.273 449.492 586.816C449.314 586.359 449.226 585.878 449.226 585.374C449.226 584.861 449.314 584.375 449.492 583.918C449.678 583.461 449.93 583.059 450.248 582.714C450.574 582.369 450.957 582.093 451.396 581.888C451.844 581.683 452.329 581.58 452.852 581.58C453.374 581.58 453.855 581.683 454.294 581.888C454.742 582.093 455.124 582.369 455.442 582.714C455.768 583.059 456.02 583.461 456.198 583.918C456.384 584.375 456.478 584.861 456.478 585.374C456.478 585.878 456.384 586.359 456.198 586.816C456.02 587.273 455.768 587.675 455.442 588.02C455.124 588.365 454.742 588.641 454.294 588.846C453.855 589.042 453.374 589.14 452.852 589.14ZM450.206 585.388C450.206 585.799 450.271 586.181 450.402 586.536C450.542 586.881 450.728 587.189 450.962 587.46C451.204 587.721 451.484 587.927 451.802 588.076C452.128 588.225 452.474 588.3 452.838 588.3C453.202 588.3 453.542 588.225 453.86 588.076C454.186 587.917 454.471 587.707 454.714 587.446C454.956 587.175 455.148 586.863 455.288 586.508C455.428 586.153 455.498 585.771 455.498 585.36C455.498 584.959 455.428 584.581 455.288 584.226C455.148 583.862 454.956 583.549 454.714 583.288C454.471 583.017 454.191 582.807 453.874 582.658C453.556 582.499 453.216 582.42 452.852 582.42C452.488 582.42 452.142 582.499 451.816 582.658C451.498 582.807 451.218 583.017 450.976 583.288C450.742 583.559 450.556 583.876 450.416 584.24C450.276 584.595 450.206 584.977 450.206 585.388ZM464.16 589H463.208V584.926C463.208 584.058 463.082 583.428 462.83 583.036C462.578 582.644 462.186 582.448 461.654 582.448C461.374 582.448 461.094 582.499 460.814 582.602C460.534 582.705 460.273 582.849 460.03 583.036C459.787 583.223 459.573 583.447 459.386 583.708C459.209 583.96 459.073 584.235 458.98 584.534V589H458.028V581.706H458.896V583.358C459.045 583.097 459.227 582.859 459.442 582.644C459.666 582.42 459.913 582.229 460.184 582.07C460.455 581.911 460.739 581.79 461.038 581.706C461.346 581.622 461.663 581.58 461.99 581.58C462.401 581.58 462.741 581.655 463.012 581.804C463.292 581.953 463.516 582.163 463.684 582.434C463.852 582.705 463.973 583.036 464.048 583.428C464.123 583.82 464.16 584.254 464.16 584.73V589ZM476.643 579.928H473.101V589H472.121V579.928H468.579V579.06H476.643V579.928ZM481.126 589.14C480.594 589.14 480.104 589.042 479.656 588.846C479.208 588.641 478.821 588.365 478.494 588.02C478.167 587.665 477.911 587.259 477.724 586.802C477.547 586.345 477.458 585.855 477.458 585.332C477.458 584.819 477.547 584.338 477.724 583.89C477.911 583.433 478.167 583.036 478.494 582.7C478.821 582.355 479.203 582.084 479.642 581.888C480.09 581.683 480.58 581.58 481.112 581.58C481.644 581.58 482.129 581.683 482.568 581.888C483.016 582.084 483.399 582.355 483.716 582.7C484.033 583.045 484.281 583.442 484.458 583.89C484.635 584.338 484.724 584.814 484.724 585.318C484.724 585.393 484.719 585.467 484.71 585.542C484.71 585.617 484.705 585.668 484.696 585.696H478.466C478.494 586.088 478.583 586.452 478.732 586.788C478.891 587.115 479.087 587.399 479.32 587.642C479.563 587.885 479.838 588.076 480.146 588.216C480.463 588.347 480.799 588.412 481.154 588.412C481.397 588.412 481.635 588.379 481.868 588.314C482.101 588.249 482.316 588.16 482.512 588.048C482.708 587.936 482.881 587.801 483.03 587.642C483.189 587.474 483.31 587.292 483.394 587.096L484.22 587.32C484.108 587.591 483.949 587.838 483.744 588.062C483.539 588.277 483.301 588.468 483.03 588.636C482.759 588.795 482.461 588.916 482.134 589C481.807 589.093 481.471 589.14 481.126 589.14ZM483.814 584.968C483.786 584.576 483.693 584.221 483.534 583.904C483.385 583.577 483.189 583.297 482.946 583.064C482.713 582.831 482.437 582.649 482.12 582.518C481.803 582.387 481.467 582.322 481.112 582.322C480.757 582.322 480.421 582.387 480.104 582.518C479.787 582.649 479.507 582.831 479.264 583.064C479.031 583.297 478.839 583.577 478.69 583.904C478.55 584.231 478.466 584.585 478.438 584.968H483.814ZM485.675 585.332C485.675 584.819 485.764 584.333 485.941 583.876C486.118 583.419 486.366 583.022 486.683 582.686C487.01 582.341 487.397 582.07 487.845 581.874C488.293 581.678 488.788 581.58 489.329 581.58C490.02 581.58 490.622 581.739 491.135 582.056C491.648 582.364 492.036 582.784 492.297 583.316L491.373 583.61C491.168 583.237 490.883 582.947 490.519 582.742C490.155 582.527 489.749 582.42 489.301 582.42C488.928 582.42 488.578 582.495 488.251 582.644C487.934 582.793 487.654 582.999 487.411 583.26C487.178 583.512 486.991 583.815 486.851 584.17C486.72 584.525 486.655 584.912 486.655 585.332C486.655 585.743 486.725 586.13 486.865 586.494C487.005 586.858 487.196 587.175 487.439 587.446C487.682 587.707 487.962 587.917 488.279 588.076C488.606 588.225 488.951 588.3 489.315 588.3C489.548 588.3 489.777 588.267 490.001 588.202C490.234 588.137 490.449 588.048 490.645 587.936C490.841 587.815 491.009 587.679 491.149 587.53C491.289 587.381 491.387 587.222 491.443 587.054L492.367 587.334C492.264 587.595 492.115 587.838 491.919 588.062C491.723 588.277 491.49 588.468 491.219 588.636C490.958 588.795 490.664 588.916 490.337 589C490.02 589.093 489.688 589.14 489.343 589.14C488.811 589.14 488.321 589.042 487.873 588.846C487.425 588.641 487.038 588.365 486.711 588.02C486.384 587.665 486.128 587.259 485.941 586.802C485.764 586.345 485.675 585.855 485.675 585.332ZM499.98 589H499.028V584.926C499.028 584.095 498.884 583.475 498.594 583.064C498.314 582.653 497.899 582.448 497.348 582.448C497.078 582.448 496.807 582.504 496.536 582.616C496.275 582.719 496.028 582.863 495.794 583.05C495.561 583.237 495.356 583.456 495.178 583.708C495.01 583.96 494.884 584.235 494.8 584.534V589H493.848V578.78H494.8V583.358C495.099 582.807 495.505 582.373 496.018 582.056C496.532 581.739 497.082 581.58 497.67 581.58C498.09 581.58 498.445 581.659 498.734 581.818C499.033 581.967 499.271 582.182 499.448 582.462C499.635 582.733 499.77 583.064 499.854 583.456C499.938 583.839 499.98 584.263 499.98 584.73V589ZM508.088 589H507.136V584.926C507.136 584.058 507.01 583.428 506.758 583.036C506.506 582.644 506.114 582.448 505.582 582.448C505.302 582.448 505.022 582.499 504.742 582.602C504.462 582.705 504.2 582.849 503.958 583.036C503.715 583.223 503.5 583.447 503.314 583.708C503.136 583.96 503.001 584.235 502.908 584.534V589H501.956V581.706H502.824V583.358C502.973 583.097 503.155 582.859 503.37 582.644C503.594 582.42 503.841 582.229 504.112 582.07C504.382 581.911 504.667 581.79 504.966 581.706C505.274 581.622 505.591 581.58 505.918 581.58C506.328 581.58 506.669 581.655 506.94 581.804C507.22 581.953 507.444 582.163 507.612 582.434C507.78 582.705 507.901 583.036 507.976 583.428C508.05 583.82 508.088 584.254 508.088 584.73V589ZM510.063 589V581.706H511.015V589H510.063ZM510.063 580.18V578.78H511.015V580.18H510.063ZM515.885 589.14C515.39 589.14 514.938 589.037 514.527 588.832C514.126 588.617 513.78 588.337 513.491 587.992C513.202 587.637 512.978 587.236 512.819 586.788C512.66 586.331 512.581 585.855 512.581 585.36C512.581 584.856 512.67 584.375 512.847 583.918C513.024 583.461 513.267 583.059 513.575 582.714C513.892 582.369 514.261 582.093 514.681 581.888C515.11 581.683 515.568 581.58 516.053 581.58C516.622 581.58 517.145 581.729 517.621 582.028C518.106 582.317 518.489 582.686 518.769 583.134V581.706H519.623V590.708C519.623 590.969 519.735 591.105 519.959 591.114V591.94C519.828 591.968 519.693 591.982 519.553 591.982C519.31 591.982 519.1 591.898 518.923 591.73C518.755 591.562 518.671 591.357 518.671 591.114V587.488C518.316 588.029 517.901 588.44 517.425 588.72C516.958 589 516.445 589.14 515.885 589.14ZM516.179 588.3C516.468 588.3 516.734 588.253 516.977 588.16C517.229 588.067 517.458 587.945 517.663 587.796C517.878 587.637 518.064 587.455 518.223 587.25C518.391 587.035 518.54 586.811 518.671 586.578V584.324C518.634 584.072 518.536 583.834 518.377 583.61C518.218 583.377 518.022 583.171 517.789 582.994C517.565 582.817 517.318 582.677 517.047 582.574C516.776 582.471 516.51 582.42 516.249 582.42C515.857 582.42 515.493 582.504 515.157 582.672C514.83 582.84 514.546 583.064 514.303 583.344C514.07 583.615 513.888 583.927 513.757 584.282C513.626 584.637 513.561 585.001 513.561 585.374C513.561 585.766 513.626 586.139 513.757 586.494C513.888 586.849 514.065 587.161 514.289 587.432C514.522 587.693 514.798 587.903 515.115 588.062C515.442 588.221 515.796 588.3 516.179 588.3ZM523.924 589.14C523.159 589.14 522.58 588.879 522.188 588.356C521.796 587.824 521.6 587.035 521.6 585.99V581.706H522.552V585.822C522.552 587.474 523.117 588.3 524.246 588.3C524.526 588.3 524.802 588.253 525.072 588.16C525.343 588.067 525.59 587.931 525.814 587.754C526.048 587.577 526.253 587.367 526.43 587.124C526.617 586.881 526.766 586.606 526.878 586.298V581.706H527.83V587.768C527.83 588.029 527.947 588.16 528.18 588.16V589C527.994 589.028 527.863 589.042 527.788 589.042C527.574 589.042 527.387 588.977 527.228 588.846C527.079 588.715 527.004 588.552 527.004 588.356V587.348C526.678 587.917 526.244 588.361 525.702 588.678C525.161 588.986 524.568 589.14 523.924 589.14ZM533.175 589.14C532.643 589.14 532.153 589.042 531.705 588.846C531.257 588.641 530.87 588.365 530.543 588.02C530.216 587.665 529.96 587.259 529.773 586.802C529.596 586.345 529.507 585.855 529.507 585.332C529.507 584.819 529.596 584.338 529.773 583.89C529.96 583.433 530.216 583.036 530.543 582.7C530.87 582.355 531.252 582.084 531.691 581.888C532.139 581.683 532.629 581.58 533.161 581.58C533.693 581.58 534.178 581.683 534.617 581.888C535.065 582.084 535.448 582.355 535.765 582.7C536.082 583.045 536.33 583.442 536.507 583.89C536.684 584.338 536.773 584.814 536.773 585.318C536.773 585.393 536.768 585.467 536.759 585.542C536.759 585.617 536.754 585.668 536.745 585.696H530.515C530.543 586.088 530.632 586.452 530.781 586.788C530.94 587.115 531.136 587.399 531.369 587.642C531.612 587.885 531.887 588.076 532.195 588.216C532.512 588.347 532.848 588.412 533.203 588.412C533.446 588.412 533.684 588.379 533.917 588.314C534.15 588.249 534.365 588.16 534.561 588.048C534.757 587.936 534.93 587.801 535.079 587.642C535.238 587.474 535.359 587.292 535.443 587.096L536.269 587.32C536.157 587.591 535.998 587.838 535.793 588.062C535.588 588.277 535.35 588.468 535.079 588.636C534.808 588.795 534.51 588.916 534.183 589C533.856 589.093 533.52 589.14 533.175 589.14ZM535.863 584.968C535.835 584.576 535.742 584.221 535.583 583.904C535.434 583.577 535.238 583.297 534.995 583.064C534.762 582.831 534.486 582.649 534.169 582.518C533.852 582.387 533.516 582.322 533.161 582.322C532.806 582.322 532.47 582.387 532.153 582.518C531.836 582.649 531.556 582.831 531.313 583.064C531.08 583.297 530.888 583.577 530.739 583.904C530.599 584.231 530.515 584.585 530.487 584.968H535.863ZM540.65 589.14C540.08 589.14 539.525 589.047 538.984 588.86C538.442 588.673 537.976 588.403 537.584 588.048L538.018 587.404C538.428 587.74 538.844 587.992 539.264 588.16C539.693 588.328 540.15 588.412 540.636 588.412C541.224 588.412 541.69 588.295 542.036 588.062C542.39 587.819 542.568 587.479 542.568 587.04C542.568 586.835 542.521 586.667 542.428 586.536C542.334 586.396 542.194 586.275 542.008 586.172C541.83 586.069 541.602 585.981 541.322 585.906C541.051 585.822 540.734 585.738 540.37 585.654C539.95 585.551 539.586 585.449 539.278 585.346C538.97 585.243 538.713 585.127 538.508 584.996C538.312 584.865 538.162 584.707 538.06 584.52C537.966 584.324 537.92 584.081 537.92 583.792C537.92 583.428 537.99 583.106 538.13 582.826C538.279 582.546 538.475 582.317 538.718 582.14C538.97 581.953 539.259 581.813 539.586 581.72C539.922 581.627 540.276 581.58 540.65 581.58C541.21 581.58 541.718 581.673 542.176 581.86C542.633 582.037 543.002 582.275 543.282 582.574L542.82 583.134C542.549 582.854 542.218 582.644 541.826 582.504C541.443 582.364 541.042 582.294 540.622 582.294C540.37 582.294 540.136 582.322 539.922 582.378C539.707 582.425 539.516 582.504 539.348 582.616C539.189 582.728 539.063 582.873 538.97 583.05C538.876 583.218 538.83 583.419 538.83 583.652C538.83 583.848 538.862 584.007 538.928 584.128C538.993 584.249 539.1 584.357 539.25 584.45C539.399 584.534 539.586 584.613 539.81 584.688C540.043 584.753 540.323 584.823 540.65 584.898C541.116 585.01 541.527 585.122 541.882 585.234C542.236 585.346 542.53 585.477 542.764 585.626C543.006 585.775 543.188 585.957 543.31 586.172C543.431 586.387 543.492 586.648 543.492 586.956C543.492 587.628 543.235 588.16 542.722 588.552C542.208 588.944 541.518 589.14 540.65 589.14Z"
            fill="black" />
    </g>
    <rect x="285.5" y="96.5" width="114" height="326" rx="7.5" stroke="black" stroke-dasharray="2 2" />
    <rect x="-0.5" y="0.5" width="152" height="53" rx="7.5" transform="matrix(-1 0 0 1 182 105)"
        stroke="black" stroke-dasharray="2 2" />
    <rect x="-0.5" y="0.5" width="52" height="53" rx="7.5" transform="matrix(-1 0 0 1 495 105)"
        stroke="black" stroke-dasharray="2 2" />
    <rect x="-0.5" y="0.5" width="52" height="53" rx="7.5" transform="matrix(-1 0 0 1 620 105)"
        stroke="black" stroke-dasharray="2 2" />
    <rect x="286.5" y="433.5" width="367" height="50" rx="7.5" stroke="black" stroke-dasharray="2 2" />
    <path
        d="M217.367 128.936C235.332 116.456 277.439 105.075 302.15 159.391M302.15 159.391L278.088 153.336M302.15 159.391L306.054 136.533"
        stroke="#FF5A55" stroke-width="5" stroke-linecap="round" />
    <path
        d="M324.483 558.285C306.494 545.84 281.064 510.401 323.259 468.206M323.259 468.206L326.031 492.863M323.259 468.206L300.485 472.57"
        stroke="#FF5A55" stroke-width="5" stroke-linecap="round" />
    <path
        d="M59.2654 132.002C59.2654 132.501 59.079 132.98 58.7472 133.333C58.4154 133.686 57.9654 133.885 57.496 133.885C57.0266 133.885 56.5763 133.687 56.2443 133.334C55.9124 132.981 55.7259 132.502 55.7259 132.002C55.7259 131.503 55.9123 131.024 56.2441 130.671C56.5759 130.318 57.0259 130.119 57.4953 130.119C57.9647 130.119 58.415 130.318 58.7469 130.671C59.0789 131.024 59.2654 131.503 59.2654 132.002ZM61.3618 123C60.2962 123 58.902 123.809 57.4921 125.208C56.0829 123.816 54.688 123.017 53.6232 123.017C53.2986 123.017 53.0033 123.095 52.7476 123.251C51.6591 123.919 51.4153 126 51.9773 128.611C49.5675 129.403 48 130.668 48 132.002C48 133.341 49.5754 134.61 51.9924 135.396C51.435 138.017 51.6836 140.101 52.7745 140.768C53.0279 140.926 53.3208 141 53.647 141C54.7118 141 56.1067 140.192 57.5166 138.79C58.9258 140.183 60.3207 140.982 61.3855 140.982C61.7101 140.982 62.0054 140.907 62.2611 140.751C63.3488 140.084 63.5935 138.003 63.0314 135.391C65.4325 134.606 67 133.338 67 132.002C67 130.663 65.4246 129.394 63.0076 128.607C63.565 125.988 63.3164 123.902 62.2255 123.234C61.9617 123.077 61.6643 122.996 61.3618 123ZM61.3578 123.918V123.923C61.5359 123.923 61.6792 123.96 61.7995 124.03C62.3268 124.352 62.5556 125.575 62.3775 127.149C62.3347 127.537 62.265 127.945 62.1795 128.362C61.37 128.154 60.5483 128.003 59.7198 127.912C59.2263 127.188 58.6881 126.5 58.1088 125.852C59.3691 124.605 60.5527 123.921 61.3586 123.919L61.3578 123.918ZM53.6232 123.935C54.4244 123.935 55.6135 124.615 56.877 125.855C56.3339 126.461 55.7924 127.149 55.2778 127.911C54.4475 128.002 53.6241 128.153 52.8133 128.364C52.7283 127.969 52.6612 127.57 52.6123 127.169C52.4302 125.596 52.655 124.373 53.1775 124.047C53.3279 123.971 53.4942 123.939 53.6232 123.935ZM57.4881 126.503C57.8491 126.899 58.208 127.338 58.5648 127.82C58.2165 127.803 57.8602 127.792 57.5 127.792C57.1353 127.791 56.7764 127.801 56.4233 127.82C56.7717 127.339 57.1319 126.898 57.4881 126.503ZM57.5 128.715C58.0858 128.715 58.6693 128.743 59.2433 128.793C59.5652 129.284 59.8774 129.806 60.1798 130.359C60.4738 130.899 60.7424 131.445 60.9857 131.998C60.7419 132.55 60.4743 133.101 60.1838 133.64C59.8829 134.196 59.5718 134.725 59.2496 135.215C58.0876 135.323 56.919 135.325 55.7568 135.219C55.4247 134.711 55.1122 134.188 54.8202 133.653C54.5262 133.113 54.2576 132.567 54.0143 132.014C54.2588 131.453 54.5264 130.904 54.8162 130.369C55.1171 129.813 55.4282 129.286 55.7504 128.795C56.3322 128.741 56.9159 128.713 57.5 128.713V128.715ZM54.6223 128.929C54.4323 129.246 54.2423 129.571 54.065 129.905C53.8876 130.234 53.7201 130.563 53.5623 130.894C53.3525 130.342 53.1743 129.791 53.0271 129.254C53.5338 129.128 54.0681 129.015 54.6223 128.929ZM60.3698 128.929C60.9208 129.014 61.4502 129.123 61.9579 129.254C61.8154 129.787 61.6373 130.334 61.4354 130.882C61.1123 130.212 60.7569 129.56 60.3706 128.929H60.3698ZM62.7947 129.497C63.1784 129.624 63.5412 129.764 63.8832 129.916C65.2544 130.539 66.141 131.355 66.141 132.001C66.1371 132.648 65.2504 133.467 63.8793 134.086C63.5468 134.237 63.1826 134.374 62.8065 134.501C62.5687 133.645 62.2778 132.806 61.9357 131.991C62.292 131.135 62.577 130.299 62.7947 129.495V129.497ZM52.1903 129.5C52.4104 130.309 52.7009 131.148 53.0611 132.01C52.7211 132.82 52.4339 133.654 52.2014 134.506C51.8182 134.379 51.454 134.238 51.1168 134.085C49.7456 133.464 48.859 132.648 48.859 132.001C48.859 131.355 49.7456 130.534 51.1168 129.916C51.4493 129.765 51.8135 129.628 52.1903 129.5ZM61.4354 133.104C61.6452 133.658 61.8233 134.209 61.9705 134.745C61.4639 134.877 60.9287 134.989 60.3745 135.073C60.7602 134.437 61.1137 133.78 61.4354 133.104ZM53.5623 133.121C53.7206 133.451 53.8868 133.781 54.0689 134.111C54.251 134.44 54.437 134.761 54.627 135.073C54.0932 134.991 53.5633 134.883 53.039 134.748C53.1815 134.218 53.3604 133.669 53.5615 133.12L53.5623 133.121ZM62.1867 135.637C62.2753 136.052 62.345 136.452 62.3878 136.835C62.5698 138.408 62.345 139.631 61.8225 139.957C61.7061 140.033 61.5549 140.065 61.3768 140.065C60.5756 140.065 59.3865 139.386 58.123 138.145C58.6661 137.539 59.2076 136.852 59.7222 136.091C60.5986 135.991 61.4275 135.839 62.1867 135.637ZM52.8213 135.645C53.5813 135.842 54.4093 135.995 55.281 136.093C55.8035 136.855 56.3458 137.547 56.892 138.153C55.6293 139.402 54.4442 140.085 53.6383 140.085C53.4861 140.086 53.3359 140.048 53.2005 139.974C52.6732 139.654 52.4444 138.43 52.6225 136.856C52.6653 136.469 52.7358 136.061 52.8213 135.645ZM56.4312 136.184C56.7801 136.202 57.135 136.212 57.496 136.213C57.8607 136.213 58.2196 136.204 58.5727 136.184C58.2244 136.666 57.8642 137.106 57.5079 137.502C57.1469 137.106 56.788 136.666 56.4312 136.184Z"
        fill="black" />
    <path
        d="M116.255 138.844C115.595 139.015 114.898 138.98 114.259 138.743C113.62 138.506 113.069 138.079 112.681 137.519C112.442 137.185 112.272 136.807 112.182 136.407C112.091 136.007 112.082 135.592 112.154 135.189C112.178 135.056 112.212 134.925 112.254 134.797L112.333 134.556L112.548 134.714C113.044 135.078 113.598 135.355 114.188 135.533L114.344 135.58L114.329 135.736C114.31 135.957 114.37 136.178 114.498 136.359C114.615 136.527 114.781 136.656 114.973 136.727C115.166 136.799 115.376 136.81 115.574 136.758C115.665 136.734 115.752 136.696 115.832 136.646L120.024 133.974C120.127 133.91 120.214 133.824 120.282 133.724C120.35 133.624 120.396 133.51 120.417 133.391C120.439 133.269 120.436 133.144 120.409 133.023C120.382 132.903 120.331 132.789 120.259 132.688C120.142 132.519 119.976 132.391 119.783 132.319C119.591 132.248 119.381 132.237 119.183 132.288C119.091 132.312 119.005 132.35 118.925 132.401L117.326 133.421C117.063 133.589 116.776 133.715 116.474 133.795C115.815 133.967 115.118 133.931 114.479 133.695C113.84 133.458 113.289 133.03 112.901 132.471C112.662 132.137 112.492 131.759 112.402 131.358C112.311 130.958 112.302 130.544 112.374 130.14C112.445 129.744 112.598 129.367 112.823 129.034C113.048 128.7 113.34 128.417 113.681 128.203L117.872 125.531C118.135 125.363 118.422 125.236 118.724 125.157C119.383 124.985 120.08 125.02 120.719 125.257C121.358 125.494 121.909 125.922 122.297 126.482C122.536 126.815 122.706 127.193 122.796 127.594C122.887 127.994 122.897 128.408 122.825 128.812C122.8 128.945 122.766 129.075 122.724 129.204L122.645 129.444L122.431 129.287C121.935 128.922 121.38 128.645 120.791 128.467L120.635 128.42L120.65 128.265C120.669 128.043 120.609 127.822 120.48 127.641C120.363 127.473 120.197 127.344 120.004 127.273C119.812 127.202 119.602 127.191 119.404 127.242C119.313 127.266 119.226 127.304 119.147 127.355L114.954 130.026C114.852 130.091 114.764 130.176 114.696 130.277C114.628 130.377 114.582 130.491 114.561 130.61C114.539 130.732 114.542 130.856 114.569 130.977C114.597 131.098 114.648 131.212 114.719 131.313C114.836 131.481 115.002 131.61 115.195 131.681C115.387 131.753 115.597 131.764 115.796 131.712C115.887 131.688 115.974 131.65 116.054 131.599L117.653 130.579C117.915 130.411 118.202 130.285 118.504 130.206C119.163 130.034 119.86 130.069 120.499 130.306C121.138 130.543 121.689 130.97 122.078 131.53C122.316 131.864 122.486 132.242 122.576 132.642C122.667 133.043 122.676 133.457 122.604 133.861C122.533 134.257 122.38 134.634 122.155 134.967C121.93 135.301 121.638 135.584 121.298 135.798L117.106 138.47C116.843 138.638 116.556 138.764 116.255 138.844ZM124.023 125.382C122.352 122.989 119.051 122.28 116.664 123.801L112.472 126.473C111.905 126.829 111.419 127.299 111.045 127.854C110.671 128.409 110.417 129.035 110.3 129.694C110.099 130.803 110.275 131.948 110.799 132.946C110.44 133.49 110.195 134.101 110.079 134.743C109.96 135.415 109.976 136.104 110.126 136.769C110.276 137.434 110.558 138.063 110.955 138.618C112.627 141.011 115.928 141.72 118.314 140.199L122.507 137.528C123.073 137.172 123.559 136.701 123.933 136.147C124.307 135.592 124.561 134.965 124.679 134.307C124.878 133.197 124.703 132.053 124.18 131.055C124.539 130.511 124.783 129.899 124.898 129.258C125.018 128.586 125.002 127.897 124.852 127.231C124.702 126.566 124.42 125.937 124.023 125.382Z"
        fill="black" />
    <path
        d="M98 124H90.1308L88.5 126.81L86.8692 124H79L88.5 140.451L98 124ZM88.5 133.872L83.085 124.491H86.5921L88.5 127.8L90.4079 124.491H93.915L88.5 133.872Z"
        fill="black" />
    <path
        d="M147.675 183.928H144.133V193H143.153V183.928H139.611V183.06H147.675V183.928ZM152.158 193.14C151.626 193.14 151.136 193.042 150.688 192.846C150.24 192.641 149.853 192.365 149.526 192.02C149.2 191.665 148.943 191.259 148.756 190.802C148.579 190.345 148.49 189.855 148.49 189.332C148.49 188.819 148.579 188.338 148.756 187.89C148.943 187.433 149.2 187.036 149.526 186.7C149.853 186.355 150.236 186.084 150.674 185.888C151.122 185.683 151.612 185.58 152.144 185.58C152.676 185.58 153.162 185.683 153.6 185.888C154.048 186.084 154.431 186.355 154.748 186.7C155.066 187.045 155.313 187.442 155.49 187.89C155.668 188.338 155.756 188.814 155.756 189.318C155.756 189.393 155.752 189.467 155.742 189.542C155.742 189.617 155.738 189.668 155.728 189.696H149.498C149.526 190.088 149.615 190.452 149.764 190.788C149.923 191.115 150.119 191.399 150.352 191.642C150.595 191.885 150.87 192.076 151.178 192.216C151.496 192.347 151.832 192.412 152.186 192.412C152.429 192.412 152.667 192.379 152.9 192.314C153.134 192.249 153.348 192.16 153.544 192.048C153.74 191.936 153.913 191.801 154.062 191.642C154.221 191.474 154.342 191.292 154.426 191.096L155.252 191.32C155.14 191.591 154.982 191.838 154.776 192.062C154.571 192.277 154.333 192.468 154.062 192.636C153.792 192.795 153.493 192.916 153.166 193C152.84 193.093 152.504 193.14 152.158 193.14ZM154.846 188.968C154.818 188.576 154.725 188.221 154.566 187.904C154.417 187.577 154.221 187.297 153.978 187.064C153.745 186.831 153.47 186.649 153.152 186.518C152.835 186.387 152.499 186.322 152.144 186.322C151.79 186.322 151.454 186.387 151.136 186.518C150.819 186.649 150.539 186.831 150.296 187.064C150.063 187.297 149.872 187.577 149.722 187.904C149.582 188.231 149.498 188.585 149.47 188.968H154.846ZM159.115 193.14C158.742 193.14 158.401 193.084 158.093 192.972C157.785 192.851 157.519 192.687 157.295 192.482C157.08 192.277 156.912 192.039 156.791 191.768C156.67 191.497 156.609 191.213 156.609 190.914C156.609 190.578 156.684 190.275 156.833 190.004C156.982 189.724 157.192 189.486 157.463 189.29C157.734 189.094 158.056 188.945 158.429 188.842C158.812 188.73 159.232 188.674 159.689 188.674C160.053 188.674 160.426 188.707 160.809 188.772C161.192 188.837 161.532 188.931 161.831 189.052V188.394C161.831 187.75 161.644 187.241 161.271 186.868C160.907 186.485 160.412 186.294 159.787 186.294C159.395 186.294 159.003 186.369 158.611 186.518C158.228 186.667 157.836 186.882 157.435 187.162L157.099 186.532C157.575 186.215 158.037 185.977 158.485 185.818C158.933 185.659 159.4 185.58 159.885 185.58C160.772 185.58 161.476 185.837 161.999 186.35C162.522 186.863 162.783 187.573 162.783 188.478V191.768C162.783 192.029 162.895 192.16 163.119 192.16V193C163.044 193.009 162.974 193.014 162.909 193.014C162.844 193.023 162.788 193.028 162.741 193.028C162.554 193.028 162.382 192.972 162.223 192.86C162.074 192.748 161.99 192.58 161.971 192.356L161.943 191.782C161.626 192.211 161.206 192.547 160.683 192.79C160.17 193.023 159.647 193.14 159.115 193.14ZM159.353 192.412C159.773 192.412 160.188 192.323 160.599 192.146C161.019 191.959 161.35 191.707 161.593 191.39C161.658 191.306 161.714 191.217 161.761 191.124C161.808 191.021 161.831 190.928 161.831 190.844V189.654C161.514 189.533 161.182 189.439 160.837 189.374C160.492 189.309 160.156 189.276 159.829 189.276C159.148 189.276 158.592 189.416 158.163 189.696C157.743 189.967 157.533 190.345 157.533 190.83C157.533 191.026 157.57 191.217 157.645 191.404C157.72 191.591 157.832 191.759 157.981 191.908C158.14 192.057 158.331 192.179 158.555 192.272C158.779 192.365 159.045 192.412 159.353 192.412ZM175.703 193H174.751V188.926C174.751 188.077 174.616 187.451 174.345 187.05C174.084 186.649 173.682 186.448 173.141 186.448C172.861 186.448 172.595 186.499 172.343 186.602C172.1 186.705 171.872 186.849 171.657 187.036C171.452 187.223 171.27 187.447 171.111 187.708C170.952 187.96 170.831 188.24 170.747 188.548V193H169.795V188.926C169.795 188.058 169.664 187.428 169.403 187.036C169.142 186.644 168.74 186.448 168.199 186.448C167.648 186.448 167.158 186.639 166.729 187.022C166.3 187.405 165.992 187.909 165.805 188.534V193H164.853V185.706H165.721V187.358C166.02 186.798 166.412 186.364 166.897 186.056C167.382 185.739 167.919 185.58 168.507 185.58C169.123 185.58 169.618 185.753 169.991 186.098C170.364 186.443 170.588 186.896 170.663 187.456C171.344 186.205 172.287 185.58 173.491 185.58C173.892 185.58 174.233 185.655 174.513 185.804C174.802 185.953 175.031 186.168 175.199 186.448C175.376 186.719 175.502 187.05 175.577 187.442C175.661 187.825 175.703 188.254 175.703 188.73V193ZM150.019 199.928H146.477V209H145.497V199.928H141.955V199.06H150.019V199.928ZM154.503 209.14C153.971 209.14 153.481 209.042 153.033 208.846C152.585 208.641 152.198 208.365 151.871 208.02C151.544 207.665 151.288 207.259 151.101 206.802C150.924 206.345 150.835 205.855 150.835 205.332C150.835 204.819 150.924 204.338 151.101 203.89C151.288 203.433 151.544 203.036 151.871 202.7C152.198 202.355 152.58 202.084 153.019 201.888C153.467 201.683 153.957 201.58 154.489 201.58C155.021 201.58 155.506 201.683 155.945 201.888C156.393 202.084 156.776 202.355 157.093 202.7C157.41 203.045 157.658 203.442 157.835 203.89C158.012 204.338 158.101 204.814 158.101 205.318C158.101 205.393 158.096 205.467 158.087 205.542C158.087 205.617 158.082 205.668 158.073 205.696H151.843C151.871 206.088 151.96 206.452 152.109 206.788C152.268 207.115 152.464 207.399 152.697 207.642C152.94 207.885 153.215 208.076 153.523 208.216C153.84 208.347 154.176 208.412 154.531 208.412C154.774 208.412 155.012 208.379 155.245 208.314C155.478 208.249 155.693 208.16 155.889 208.048C156.085 207.936 156.258 207.801 156.407 207.642C156.566 207.474 156.687 207.292 156.771 207.096L157.597 207.32C157.485 207.591 157.326 207.838 157.121 208.062C156.916 208.277 156.678 208.468 156.407 208.636C156.136 208.795 155.838 208.916 155.511 209C155.184 209.093 154.848 209.14 154.503 209.14ZM157.191 204.968C157.163 204.576 157.07 204.221 156.911 203.904C156.762 203.577 156.566 203.297 156.323 203.064C156.09 202.831 155.814 202.649 155.497 202.518C155.18 202.387 154.844 202.322 154.489 202.322C154.134 202.322 153.798 202.387 153.481 202.518C153.164 202.649 152.884 202.831 152.641 203.064C152.408 203.297 152.216 203.577 152.067 203.904C151.927 204.231 151.843 204.585 151.815 204.968H157.191ZM159.052 205.332C159.052 204.819 159.141 204.333 159.318 203.876C159.495 203.419 159.743 203.022 160.06 202.686C160.387 202.341 160.774 202.07 161.222 201.874C161.67 201.678 162.165 201.58 162.706 201.58C163.397 201.58 163.999 201.739 164.512 202.056C165.025 202.364 165.413 202.784 165.674 203.316L164.75 203.61C164.545 203.237 164.26 202.947 163.896 202.742C163.532 202.527 163.126 202.42 162.678 202.42C162.305 202.42 161.955 202.495 161.628 202.644C161.311 202.793 161.031 202.999 160.788 203.26C160.555 203.512 160.368 203.815 160.228 204.17C160.097 204.525 160.032 204.912 160.032 205.332C160.032 205.743 160.102 206.13 160.242 206.494C160.382 206.858 160.573 207.175 160.816 207.446C161.059 207.707 161.339 207.917 161.656 208.076C161.983 208.225 162.328 208.3 162.692 208.3C162.925 208.3 163.154 208.267 163.378 208.202C163.611 208.137 163.826 208.048 164.022 207.936C164.218 207.815 164.386 207.679 164.526 207.53C164.666 207.381 164.764 207.222 164.82 207.054L165.744 207.334C165.641 207.595 165.492 207.838 165.296 208.062C165.1 208.277 164.867 208.468 164.596 208.636C164.335 208.795 164.041 208.916 163.714 209C163.397 209.093 163.065 209.14 162.72 209.14C162.188 209.14 161.698 209.042 161.25 208.846C160.802 208.641 160.415 208.365 160.088 208.02C159.761 207.665 159.505 207.259 159.318 206.802C159.141 206.345 159.052 205.855 159.052 205.332ZM173.357 209H172.405V204.926C172.405 204.095 172.26 203.475 171.971 203.064C171.691 202.653 171.276 202.448 170.725 202.448C170.454 202.448 170.184 202.504 169.913 202.616C169.652 202.719 169.404 202.863 169.171 203.05C168.938 203.237 168.732 203.456 168.555 203.708C168.387 203.96 168.261 204.235 168.177 204.534V209H167.225V198.78H168.177V203.358C168.476 202.807 168.882 202.373 169.395 202.056C169.908 201.739 170.459 201.58 171.047 201.58C171.467 201.58 171.822 201.659 172.111 201.818C172.41 201.967 172.648 202.182 172.825 202.462C173.012 202.733 173.147 203.064 173.231 203.456C173.315 203.839 173.357 204.263 173.357 204.73V209ZM147.188 216.922C146.908 216.605 146.53 216.348 146.054 216.152C145.587 215.956 145.06 215.858 144.472 215.858C143.585 215.858 142.941 216.026 142.54 216.362C142.139 216.689 141.938 217.137 141.938 217.706C141.938 218.005 141.989 218.252 142.092 218.448C142.204 218.635 142.372 218.798 142.596 218.938C142.829 219.078 143.119 219.199 143.464 219.302C143.819 219.405 144.234 219.507 144.71 219.61C145.242 219.722 145.718 219.848 146.138 219.988C146.558 220.119 146.917 220.291 147.216 220.506C147.515 220.711 147.743 220.968 147.902 221.276C148.061 221.575 148.14 221.948 148.14 222.396C148.14 222.853 148.051 223.25 147.874 223.586C147.697 223.922 147.449 224.202 147.132 224.426C146.815 224.65 146.437 224.818 145.998 224.93C145.559 225.033 145.083 225.084 144.57 225.084C143.011 225.084 141.681 224.603 140.58 223.642L141.056 222.844C141.42 223.227 141.91 223.553 142.526 223.824C143.142 224.085 143.828 224.216 144.584 224.216C145.377 224.216 145.998 224.076 146.446 223.796C146.894 223.507 147.118 223.073 147.118 222.494C147.118 222.186 147.053 221.929 146.922 221.724C146.801 221.509 146.614 221.327 146.362 221.178C146.11 221.019 145.793 220.884 145.41 220.772C145.037 220.66 144.603 220.548 144.108 220.436C143.585 220.315 143.128 220.189 142.736 220.058C142.344 219.927 142.013 219.764 141.742 219.568C141.481 219.372 141.28 219.139 141.14 218.868C141.009 218.588 140.944 218.247 140.944 217.846C140.944 217.389 141.028 216.983 141.196 216.628C141.373 216.264 141.616 215.965 141.924 215.732C142.241 215.489 142.615 215.307 143.044 215.186C143.483 215.055 143.963 214.99 144.486 214.99C145.139 214.99 145.723 215.093 146.236 215.298C146.759 215.494 147.23 215.774 147.65 216.138L147.188 216.922ZM153.062 224.65C153.006 224.678 152.922 224.715 152.81 224.762C152.707 224.809 152.586 224.855 152.446 224.902C152.306 224.949 152.147 224.991 151.97 225.028C151.792 225.065 151.606 225.084 151.41 225.084C151.204 225.084 151.008 225.056 150.822 225C150.635 224.944 150.472 224.86 150.332 224.748C150.192 224.627 150.08 224.477 149.996 224.3C149.912 224.123 149.87 223.917 149.87 223.684V218.462H148.862V217.706H149.87V215.242H150.822V217.706H152.502V218.462H150.822V223.418C150.84 223.689 150.934 223.889 151.102 224.02C151.27 224.141 151.47 224.202 151.704 224.202C151.974 224.202 152.212 224.16 152.418 224.076C152.623 223.983 152.754 223.917 152.81 223.88L153.062 224.65ZM156.114 225.14C155.741 225.14 155.4 225.084 155.092 224.972C154.784 224.851 154.518 224.687 154.294 224.482C154.079 224.277 153.911 224.039 153.79 223.768C153.669 223.497 153.608 223.213 153.608 222.914C153.608 222.578 153.683 222.275 153.832 222.004C153.981 221.724 154.191 221.486 154.462 221.29C154.733 221.094 155.055 220.945 155.428 220.842C155.811 220.73 156.231 220.674 156.688 220.674C157.052 220.674 157.425 220.707 157.808 220.772C158.191 220.837 158.531 220.931 158.83 221.052V220.394C158.83 219.75 158.643 219.241 158.27 218.868C157.906 218.485 157.411 218.294 156.786 218.294C156.394 218.294 156.002 218.369 155.61 218.518C155.227 218.667 154.835 218.882 154.434 219.162L154.098 218.532C154.574 218.215 155.036 217.977 155.484 217.818C155.932 217.659 156.399 217.58 156.884 217.58C157.771 217.58 158.475 217.837 158.998 218.35C159.521 218.863 159.782 219.573 159.782 220.478V223.768C159.782 224.029 159.894 224.16 160.118 224.16V225C160.043 225.009 159.973 225.014 159.908 225.014C159.843 225.023 159.787 225.028 159.74 225.028C159.553 225.028 159.381 224.972 159.222 224.86C159.073 224.748 158.989 224.58 158.97 224.356L158.942 223.782C158.625 224.211 158.205 224.547 157.682 224.79C157.169 225.023 156.646 225.14 156.114 225.14ZM156.352 224.412C156.772 224.412 157.187 224.323 157.598 224.146C158.018 223.959 158.349 223.707 158.592 223.39C158.657 223.306 158.713 223.217 158.76 223.124C158.807 223.021 158.83 222.928 158.83 222.844V221.654C158.513 221.533 158.181 221.439 157.836 221.374C157.491 221.309 157.155 221.276 156.828 221.276C156.147 221.276 155.591 221.416 155.162 221.696C154.742 221.967 154.532 222.345 154.532 222.83C154.532 223.026 154.569 223.217 154.644 223.404C154.719 223.591 154.831 223.759 154.98 223.908C155.139 224.057 155.33 224.179 155.554 224.272C155.778 224.365 156.044 224.412 156.352 224.412ZM161.376 221.332C161.376 220.819 161.465 220.333 161.642 219.876C161.819 219.419 162.067 219.022 162.384 218.686C162.711 218.341 163.098 218.07 163.546 217.874C163.994 217.678 164.489 217.58 165.03 217.58C165.721 217.58 166.323 217.739 166.836 218.056C167.349 218.364 167.737 218.784 167.998 219.316L167.074 219.61C166.869 219.237 166.584 218.947 166.22 218.742C165.856 218.527 165.45 218.42 165.002 218.42C164.629 218.42 164.279 218.495 163.952 218.644C163.635 218.793 163.355 218.999 163.112 219.26C162.879 219.512 162.692 219.815 162.552 220.17C162.421 220.525 162.356 220.912 162.356 221.332C162.356 221.743 162.426 222.13 162.566 222.494C162.706 222.858 162.897 223.175 163.14 223.446C163.383 223.707 163.663 223.917 163.98 224.076C164.307 224.225 164.652 224.3 165.016 224.3C165.249 224.3 165.478 224.267 165.702 224.202C165.935 224.137 166.15 224.048 166.346 223.936C166.542 223.815 166.71 223.679 166.85 223.53C166.99 223.381 167.088 223.222 167.144 223.054L168.068 223.334C167.965 223.595 167.816 223.838 167.62 224.062C167.424 224.277 167.191 224.468 166.92 224.636C166.659 224.795 166.365 224.916 166.038 225C165.721 225.093 165.389 225.14 165.044 225.14C164.512 225.14 164.022 225.042 163.574 224.846C163.126 224.641 162.739 224.365 162.412 224.02C162.085 223.665 161.829 223.259 161.642 222.802C161.465 222.345 161.376 221.855 161.376 221.332ZM174.757 225L172.069 221.262L170.501 222.718V225H169.549V214.78H170.501V221.724L174.603 217.72H175.681L172.699 220.702L175.793 225H174.757Z"
        fill="black" />
    <defs>
        <filter id="filter0_i_384_233" x="255" y="31" width="429" height="485"
            filterUnits="userSpaceOnUse" color-interpolation-filters="sRGB">
            <feFlood flood-opacity="0" result="BackgroundImageFix" />
            <feBlend mode="normal" in="SourceGraphic" in2="BackgroundImageFix" result="shape" />
            <feColorMatrix in="SourceAlpha" type="matrix"
                values="0 0 0 0 0 0 0 0 0 0 0 0 0 0 0 0 0 0 127 0" result="hardAlpha" />
            <feOffset dy="2" />
            <feGaussianBlur stdDeviation="4" />
            <feComposite in2="hardAlpha" operator="arithmetic" k2="-1" k3="1" />
            <feColorMatrix type="matrix" values="0 0 0 0 0 0 0 0 0 0 0 0 0 0 0 0 0 0 0.1 0" />
            <feBlend mode="normal" in2="shape" result="effect1_innerShadow_384_233" />
        </filter>
        <filter id="filter1_ddddd_384_233" x="185" y="0" width="569" height="527"
            filterUnits="userSpaceOnUse" color-interpolation-filters="sRGB">
            <feFlood flood-opacity="0" result="BackgroundImageFix" />
            <feColorMatrix in="SourceAlpha" type="matrix"
                values="0 0 0 0 0 0 0 0 0 0 0 0 0 0 0 0 0 0 127 0" result="hardAlpha" />
            <feOffset dx="2" dy="4" />
            <feGaussianBlur stdDeviation="2" />
            <feComposite in2="hardAlpha" operator="out" />
            <feColorMatrix type="matrix"
                values="0 0 0 0 0.905892 0 0 0 0 0.905892 0 0 0 0 0.905892 0 0 0 1 0" />
            <feBlend mode="normal" in2="BackgroundImageFix" result="effect1_dropShadow_384_233" />
            <feColorMatrix in="SourceAlpha" type="matrix"
                values="0 0 0 0 0 0 0 0 0 0 0 0 0 0 0 0 0 0 127 0" result="hardAlpha" />
            <feOffset dx="4" dy="8" />
            <feGaussianBlur stdDeviation="4" />
            <feComposite in2="hardAlpha" operator="out" />
            <feColorMatrix type="matrix"
                values="0 0 0 0 0.896989 0 0 0 0 0.896989 0 0 0 0 0.896989 0 0 0 1 0" />
            <feBlend mode="normal" in2="effect1_dropShadow_384_233"
                result="effect2_dropShadow_384_233" />
            <feColorMatrix in="SourceAlpha" type="matrix"
                values="0 0 0 0 0 0 0 0 0 0 0 0 0 0 0 0 0 0 127 0" result="hardAlpha" />
            <feOffset dx="4" dy="16" />
            <feGaussianBlur stdDeviation="6" />
            <feComposite in2="hardAlpha" operator="out" />
            <feColorMatrix type="matrix"
                values="0 0 0 0 0.899121 0 0 0 0 0.899121 0 0 0 0 0.899121 0 0 0 1 0" />
            <feBlend mode="normal" in2="effect2_dropShadow_384_233"
                result="effect3_dropShadow_384_233" />
            <feColorMatrix in="SourceAlpha" type="matrix"
                values="0 0 0 0 0 0 0 0 0 0 0 0 0 0 0 0 0 0 127 0" result="hardAlpha" />
            <feOffset dy="4" />
            <feGaussianBlur stdDeviation="50" />
            <feComposite in2="hardAlpha" operator="out" />
            <feColorMatrix type="matrix"
                values="0 0 0 0 1 0 0 0 0 0.352941 0 0 0 0 0.333333 0 0 0 0.3 0" />
            <feBlend mode="normal" in2="effect3_dropShadow_384_233"
                result="effect4_dropShadow_384_233" />
            <feColorMatrix in="SourceAlpha" type="matrix"
                values="0 0 0 0 0 0 0 0 0 0 0 0 0 0 0 0 0 0 127 0" result="hardAlpha" />
            <feOffset dx="-5" dy="-5" />
            <feGaussianBlur stdDeviation="5" />
            <feComposite in2="hardAlpha" operator="out" />
            <feColorMatrix type="matrix" values="0 0 0 0 1 0 0 0 0 1 0 0 0 0 1 0 0 0 0.4 0" />
            <feBlend mode="normal" in2="effect4_dropShadow_384_233"
                result="effect5_dropShadow_384_233" />
            <feBlend mode="normal" in="SourceGraphic" in2="effect5_dropShadow_384_233"
                result="shape" />
        </filter>
        <filter id="filter2_ddddd_384_233" x="0" y="0" width="315" height="538"
            filterUnits="userSpaceOnUse" color-interpolation-filters="sRGB">
            <feFlood flood-opacity="0" result="BackgroundImageFix" />
            <feColorMatrix in="SourceAlpha" type="matrix"
                values="0 0 0 0 0 0 0 0 0 0 0 0 0 0 0 0 0 0 127 0" result="hardAlpha" />
            <feOffset dx="2" dy="4" />
            <feGaussianBlur stdDeviation="2" />
            <feComposite in2="hardAlpha" operator="out" />
            <feColorMatrix type="matrix"
                values="0 0 0 0 0.905892 0 0 0 0 0.905892 0 0 0 0 0.905892 0 0 0 1 0" />
            <feBlend mode="normal" in2="BackgroundImageFix" result="effect1_dropShadow_384_233" />
            <feColorMatrix in="SourceAlpha" type="matrix"
                values="0 0 0 0 0 0 0 0 0 0 0 0 0 0 0 0 0 0 127 0" result="hardAlpha" />
            <feOffset dx="4" dy="8" />
            <feGaussianBlur stdDeviation="4" />
            <feComposite in2="hardAlpha" operator="out" />
            <feColorMatrix type="matrix"
                values="0 0 0 0 0.896989 0 0 0 0 0.896989 0 0 0 0 0.896989 0 0 0 1 0" />
            <feBlend mode="normal" in2="effect1_dropShadow_384_233"
                result="effect2_dropShadow_384_233" />
            <feColorMatrix in="SourceAlpha" type="matrix"
                values="0 0 0 0 0 0 0 0 0 0 0 0 0 0 0 0 0 0 127 0" result="hardAlpha" />
            <feOffset dx="4" dy="16" />
            <feGaussianBlur stdDeviation="6" />
            <feComposite in2="hardAlpha" operator="out" />
            <feColorMatrix type="matrix"
                values="0 0 0 0 0.899121 0 0 0 0 0.899121 0 0 0 0 0.899121 0 0 0 1 0" />
            <feBlend mode="normal" in2="effect2_dropShadow_384_233"
                result="effect3_dropShadow_384_233" />
            <feColorMatrix in="SourceAlpha" type="matrix"
                values="0 0 0 0 0 0 0 0 0 0 0 0 0 0 0 0 0 0 127 0" result="hardAlpha" />
            <feOffset dy="4" />
            <feGaussianBlur stdDeviation="50" />
            <feComposite in2="hardAlpha" operator="out" />
            <feColorMatrix type="matrix"
                values="0 0 0 0 1 0 0 0 0 0.352941 0 0 0 0 0.333333 0 0 0 0.3 0" />
            <feBlend mode="normal" in2="effect3_dropShadow_384_233"
                result="effect4_dropShadow_384_233" />
            <feColorMatrix in="SourceAlpha" type="matrix"
                values="0 0 0 0 0 0 0 0 0 0 0 0 0 0 0 0 0 0 127 0" result="hardAlpha" />
            <feOffset dx="-5" dy="-5" />
            <feGaussianBlur stdDeviation="5" />
            <feComposite in2="hardAlpha" operator="out" />
            <feColorMatrix type="matrix" values="0 0 0 0 1 0 0 0 0 1 0 0 0 0 1 0 0 0 0.4 0" />
            <feBlend mode="normal" in2="effect4_dropShadow_384_233"
                result="effect5_dropShadow_384_233" />
            <feBlend mode="normal" in="SourceGraphic" in2="effect5_dropShadow_384_233"
                result="shape" />
        </filter>
        <filter id="filter3_ddddd_384_233" x="185" y="468" width="569" height="240"
            filterUnits="userSpaceOnUse" color-interpolation-filters="sRGB">
            <feFlood flood-opacity="0" result="BackgroundImageFix" />
            <feColorMatrix in="SourceAlpha" type="matrix"
                values="0 0 0 0 0 0 0 0 0 0 0 0 0 0 0 0 0 0 127 0" result="hardAlpha" />
            <feOffset dx="2" dy="4" />
            <feGaussianBlur stdDeviation="2" />
            <feComposite in2="hardAlpha" operator="out" />
            <feColorMatrix type="matrix"
                values="0 0 0 0 0.905892 0 0 0 0 0.905892 0 0 0 0 0.905892 0 0 0 1 0" />
            <feBlend mode="normal" in2="BackgroundImageFix" result="effect1_dropShadow_384_233" />
            <feColorMatrix in="SourceAlpha" type="matrix"
                values="0 0 0 0 0 0 0 0 0 0 0 0 0 0 0 0 0 0 127 0" result="hardAlpha" />
            <feOffset dx="4" dy="8" />
            <feGaussianBlur stdDeviation="4" />
            <feComposite in2="hardAlpha" operator="out" />
            <feColorMatrix type="matrix"
                values="0 0 0 0 0.896989 0 0 0 0 0.896989 0 0 0 0 0.896989 0 0 0 1 0" />
            <feBlend mode="normal" in2="effect1_dropShadow_384_233"
                result="effect2_dropShadow_384_233" />
            <feColorMatrix in="SourceAlpha" type="matrix"
                values="0 0 0 0 0 0 0 0 0 0 0 0 0 0 0 0 0 0 127 0" result="hardAlpha" />
            <feOffset dx="4" dy="16" />
            <feGaussianBlur stdDeviation="6" />
            <feComposite in2="hardAlpha" operator="out" />
            <feColorMatrix type="matrix"
                values="0 0 0 0 0.899121 0 0 0 0 0.899121 0 0 0 0 0.899121 0 0 0 1 0" />
            <feBlend mode="normal" in2="effect2_dropShadow_384_233"
                result="effect3_dropShadow_384_233" />
            <feColorMatrix in="SourceAlpha" type="matrix"
                values="0 0 0 0 0 0 0 0 0 0 0 0 0 0 0 0 0 0 127 0" result="hardAlpha" />
            <feOffset dy="4" />
            <feGaussianBlur stdDeviation="50" />
            <feComposite in2="hardAlpha" operator="out" />
            <feColorMatrix type="matrix"
                values="0 0 0 0 1 0 0 0 0 0.352941 0 0 0 0 0.333333 0 0 0 0.3 0" />
            <feBlend mode="normal" in2="effect3_dropShadow_384_233"
                result="effect4_dropShadow_384_233" />
            <feColorMatrix in="SourceAlpha" type="matrix"
                values="0 0 0 0 0 0 0 0 0 0 0 0 0 0 0 0 0 0 127 0" result="hardAlpha" />
            <feOffset dx="-5" dy="-5" />
            <feGaussianBlur stdDeviation="5" />
            <feComposite in2="hardAlpha" operator="out" />
            <feColorMatrix type="matrix" values="0 0 0 0 1 0 0 0 0 1 0 0 0 0 1 0 0 0 0.4 0" />
            <feBlend mode="normal" in2="effect4_dropShadow_384_233"
                result="effect5_dropShadow_384_233" />
            <feBlend mode="normal" in="SourceGraphic" in2="effect5_dropShadow_384_233"
                result="shape" />
        </filter>
        <clipPath id="clip0_384_233">
            <rect x="255" y="31" width="429" height="483" rx="24.5" fill="white" />
        </clipPath>
    </defs>
</svg>
    