<svg width="784" height="834" viewBox="0 0 784 834" fill="none" xmlns="http://www.w3.org/2000/svg">
    <g filter="url(#filter0_i_0_1)">
        <g clip-path="url(#clip0_0_1)">
            <rect x="255" y="157" width="429" height="483" rx="24.5" fill="#FFF5F3"/>
            <g filter="url(#filter1_ddddd_0_1)">
                <rect x="412.167" y="222.5" width="114.667" height="276" rx="9.5" fill="white"/>
                <rect x="412.167" y="222.5" width="114.667" height="276" rx="9.5" stroke="#EEEBE2"/>
                <rect x="538.833" y="222.5" width="114.667" height="276" rx="9.5" fill="white"/>
                <rect x="538.833" y="222.5" width="114.667" height="276" rx="9.5" stroke="#EEEBE2"/>
            </g>
            <path d="M294.142 203V196.476L291.594 201.334H290.516L287.968 196.476V203H286.036V193.06H288.108L291.048 198.716L294.016 193.06H296.074V203H294.142ZM298.121 204.428C298.289 204.465 298.443 204.498 298.583 204.526C298.733 204.554 298.859 204.568 298.961 204.568C299.139 204.568 299.283 204.521 299.395 204.428C299.517 204.344 299.633 204.185 299.745 203.952C299.857 203.728 299.974 203.411 300.095 203L297.197 195.664H299.143L301.117 201.082L302.853 195.664H304.645L301.565 204.456C301.453 204.783 301.281 205.077 301.047 205.338C300.823 205.609 300.539 205.819 300.193 205.968C299.857 206.127 299.479 206.206 299.059 206.206C298.91 206.206 298.761 206.192 298.611 206.164C298.462 206.145 298.299 206.108 298.121 206.052V204.428ZM316.96 203V196.476L314.412 201.334H313.334L310.786 196.476V203H308.854V193.06H310.926L313.866 198.716L316.834 193.06H318.892V203H316.96ZM320.786 203V195.664H322.662V203H320.786ZM320.786 194.642V192.78H322.662V194.642H320.786ZM327.77 203.14C327.173 203.14 326.636 203.042 326.16 202.846C325.684 202.641 325.278 202.361 324.942 202.006C324.606 201.642 324.345 201.231 324.158 200.774C323.981 200.317 323.892 199.836 323.892 199.332C323.892 198.641 324.046 198.011 324.354 197.442C324.671 196.863 325.119 196.401 325.698 196.056C326.277 195.711 326.963 195.538 327.756 195.538C328.549 195.538 329.231 195.711 329.8 196.056C330.369 196.401 330.794 196.854 331.074 197.414L329.24 197.974C329.081 197.703 328.871 197.498 328.61 197.358C328.349 197.209 328.059 197.134 327.742 197.134C327.387 197.134 327.061 197.227 326.762 197.414C326.473 197.591 326.244 197.848 326.076 198.184C325.908 198.511 325.824 198.893 325.824 199.332C325.824 199.761 325.908 200.144 326.076 200.48C326.253 200.807 326.487 201.068 326.776 201.264C327.065 201.451 327.387 201.544 327.742 201.544C327.966 201.544 328.176 201.507 328.372 201.432C328.577 201.357 328.759 201.255 328.918 201.124C329.077 200.993 329.193 200.844 329.268 200.676L331.102 201.236C330.934 201.6 330.687 201.927 330.36 202.216C330.043 202.505 329.665 202.734 329.226 202.902C328.797 203.061 328.311 203.14 327.77 203.14ZM336.624 197.288C336.055 197.288 335.546 197.4 335.098 197.624C334.65 197.839 334.328 198.151 334.132 198.562V203H332.256V195.664H333.978V197.232C334.24 196.728 334.571 196.331 334.972 196.042C335.374 195.753 335.798 195.594 336.246 195.566C336.349 195.566 336.428 195.566 336.484 195.566C336.54 195.566 336.587 195.571 336.624 195.58V197.288ZM340.963 203.14C340.365 203.14 339.829 203.042 339.353 202.846C338.877 202.641 338.471 202.361 338.135 202.006C337.808 201.651 337.556 201.245 337.379 200.788C337.201 200.331 337.113 199.85 337.113 199.346C337.113 198.833 337.201 198.347 337.379 197.89C337.556 197.433 337.808 197.027 338.135 196.672C338.471 196.317 338.877 196.042 339.353 195.846C339.829 195.641 340.365 195.538 340.963 195.538C341.56 195.538 342.092 195.641 342.559 195.846C343.035 196.042 343.441 196.317 343.777 196.672C344.113 197.027 344.365 197.433 344.533 197.89C344.71 198.347 344.799 198.833 344.799 199.346C344.799 199.85 344.71 200.331 344.533 200.788C344.365 201.245 344.113 201.651 343.777 202.006C343.45 202.361 343.049 202.641 342.573 202.846C342.097 203.042 341.56 203.14 340.963 203.14ZM339.045 199.346C339.045 199.775 339.129 200.158 339.297 200.494C339.465 200.821 339.693 201.077 339.983 201.264C340.272 201.451 340.599 201.544 340.963 201.544C341.317 201.544 341.639 201.451 341.929 201.264C342.218 201.068 342.447 200.807 342.615 200.48C342.792 200.144 342.881 199.761 342.881 199.332C342.881 198.912 342.792 198.534 342.615 198.198C342.447 197.862 342.218 197.601 341.929 197.414C341.639 197.227 341.317 197.134 340.963 197.134C340.599 197.134 340.272 197.232 339.983 197.428C339.693 197.615 339.465 197.876 339.297 198.212C339.129 198.539 339.045 198.917 339.045 199.346ZM349.61 203V193.06H356.288V194.754H351.542V197.316H355.49V198.884H351.542V203H349.61ZM361.466 197.288C360.897 197.288 360.388 197.4 359.94 197.624C359.492 197.839 359.17 198.151 358.974 198.562V203H357.098V195.664H358.82V197.232C359.081 196.728 359.413 196.331 359.814 196.042C360.215 195.753 360.64 195.594 361.088 195.566C361.191 195.566 361.27 195.566 361.326 195.566C361.382 195.566 361.429 195.571 361.466 195.58V197.288ZM365.805 203.14C365.207 203.14 364.671 203.042 364.195 202.846C363.719 202.641 363.313 202.361 362.977 202.006C362.65 201.651 362.398 201.245 362.221 200.788C362.043 200.331 361.955 199.85 361.955 199.346C361.955 198.833 362.043 198.347 362.221 197.89C362.398 197.433 362.65 197.027 362.977 196.672C363.313 196.317 363.719 196.042 364.195 195.846C364.671 195.641 365.207 195.538 365.805 195.538C366.402 195.538 366.934 195.641 367.401 195.846C367.877 196.042 368.283 196.317 368.619 196.672C368.955 197.027 369.207 197.433 369.375 197.89C369.552 198.347 369.641 198.833 369.641 199.346C369.641 199.85 369.552 200.331 369.375 200.788C369.207 201.245 368.955 201.651 368.619 202.006C368.292 202.361 367.891 202.641 367.415 202.846C366.939 203.042 366.402 203.14 365.805 203.14ZM363.887 199.346C363.887 199.775 363.971 200.158 364.139 200.494C364.307 200.821 364.535 201.077 364.825 201.264C365.114 201.451 365.441 201.544 365.805 201.544C366.159 201.544 366.481 201.451 366.771 201.264C367.06 201.068 367.289 200.807 367.457 200.48C367.634 200.144 367.723 199.761 367.723 199.332C367.723 198.912 367.634 198.534 367.457 198.198C367.289 197.862 367.06 197.601 366.771 197.414C366.481 197.227 366.159 197.134 365.805 197.134C365.441 197.134 365.114 197.232 364.825 197.428C364.535 197.615 364.307 197.876 364.139 198.212C363.971 198.539 363.887 198.917 363.887 199.346ZM377.725 203H375.849V198.884C375.849 198.296 375.746 197.867 375.541 197.596C375.335 197.325 375.051 197.19 374.687 197.19C374.435 197.19 374.178 197.255 373.917 197.386C373.665 197.517 373.436 197.699 373.231 197.932C373.025 198.156 372.876 198.417 372.783 198.716V203H370.907V195.664H372.601V197.022C372.787 196.705 373.025 196.439 373.315 196.224C373.604 196 373.935 195.832 374.309 195.72C374.691 195.599 375.093 195.538 375.513 195.538C375.97 195.538 376.343 195.622 376.633 195.79C376.931 195.949 377.155 196.168 377.305 196.448C377.463 196.719 377.571 197.027 377.627 197.372C377.692 197.717 377.725 198.067 377.725 198.422V203ZM383.711 202.622C383.552 202.687 383.361 202.762 383.137 202.846C382.913 202.93 382.67 202.995 382.409 203.042C382.157 203.098 381.9 203.126 381.639 203.126C381.294 203.126 380.976 203.065 380.687 202.944C380.398 202.823 380.164 202.631 379.987 202.37C379.819 202.099 379.735 201.749 379.735 201.32V197.106H378.769V195.664H379.735V193.284H381.611V195.664H383.151V197.106H381.611V200.69C381.62 200.942 381.69 201.124 381.821 201.236C381.952 201.348 382.115 201.404 382.311 201.404C382.507 201.404 382.698 201.371 382.885 201.306C383.072 201.241 383.221 201.185 383.333 201.138L383.711 202.622ZM388.008 203.14C387.42 203.14 386.888 203.042 386.412 202.846C385.936 202.641 385.53 202.365 385.194 202.02C384.858 201.665 384.597 201.264 384.41 200.816C384.233 200.359 384.144 199.878 384.144 199.374C384.144 198.674 384.298 198.035 384.606 197.456C384.923 196.877 385.371 196.415 385.95 196.07C386.538 195.715 387.229 195.538 388.022 195.538C388.825 195.538 389.511 195.715 390.08 196.07C390.649 196.415 391.083 196.877 391.382 197.456C391.69 198.025 391.844 198.641 391.844 199.304C391.844 199.416 391.839 199.533 391.83 199.654C391.821 199.766 391.811 199.859 391.802 199.934H386.132C386.169 200.307 386.277 200.634 386.454 200.914C386.641 201.194 386.874 201.409 387.154 201.558C387.443 201.698 387.751 201.768 388.078 201.768C388.451 201.768 388.801 201.679 389.128 201.502C389.464 201.315 389.693 201.073 389.814 200.774L391.424 201.222C391.247 201.595 390.99 201.927 390.654 202.216C390.327 202.505 389.94 202.734 389.492 202.902C389.044 203.061 388.549 203.14 388.008 203.14ZM386.09 198.744H389.926C389.889 198.371 389.781 198.049 389.604 197.778C389.436 197.498 389.212 197.283 388.932 197.134C388.652 196.975 388.339 196.896 387.994 196.896C387.658 196.896 387.35 196.975 387.07 197.134C386.799 197.283 386.575 197.498 386.398 197.778C386.23 198.049 386.127 198.371 386.09 198.744ZM399.805 203H397.929V198.884C397.929 198.296 397.826 197.867 397.621 197.596C397.415 197.325 397.131 197.19 396.767 197.19C396.515 197.19 396.258 197.255 395.997 197.386C395.745 197.517 395.516 197.699 395.311 197.932C395.105 198.156 394.956 198.417 394.863 198.716V203H392.987V195.664H394.681V197.022C394.867 196.705 395.105 196.439 395.395 196.224C395.684 196 396.015 195.832 396.389 195.72C396.771 195.599 397.173 195.538 397.593 195.538C398.05 195.538 398.423 195.622 398.713 195.79C399.011 195.949 399.235 196.168 399.385 196.448C399.543 196.719 399.651 197.027 399.707 197.372C399.772 197.717 399.805 198.067 399.805 198.422V203ZM400.988 199.332C400.988 198.623 401.128 197.983 401.408 197.414C401.688 196.835 402.075 196.378 402.57 196.042C403.065 195.706 403.629 195.538 404.264 195.538C404.805 195.538 405.291 195.673 405.72 195.944C406.159 196.205 406.499 196.541 406.742 196.952V192.78H408.618V200.9C408.618 201.096 408.651 201.236 408.716 201.32C408.781 201.404 408.893 201.455 409.052 201.474V203C408.725 203.065 408.459 203.098 408.254 203.098C407.918 203.098 407.638 203.014 407.414 202.846C407.199 202.678 407.078 202.459 407.05 202.188L407.022 201.726C406.751 202.183 406.383 202.533 405.916 202.776C405.459 203.019 404.978 203.14 404.474 203.14C403.97 203.14 403.503 203.042 403.074 202.846C402.654 202.65 402.285 202.379 401.968 202.034C401.66 201.689 401.417 201.287 401.24 200.83C401.072 200.363 400.988 199.864 400.988 199.332ZM406.742 200.312V198.562C406.649 198.291 406.499 198.049 406.294 197.834C406.089 197.619 405.86 197.451 405.608 197.33C405.356 197.199 405.104 197.134 404.852 197.134C404.563 197.134 404.301 197.195 404.068 197.316C403.835 197.437 403.629 197.601 403.452 197.806C403.284 198.011 403.153 198.249 403.06 198.52C402.976 198.791 402.934 199.075 402.934 199.374C402.934 199.673 402.981 199.957 403.074 200.228C403.177 200.489 403.321 200.718 403.508 200.914C403.695 201.11 403.909 201.264 404.152 201.376C404.404 201.488 404.675 201.544 404.964 201.544C405.141 201.544 405.319 201.516 405.496 201.46C405.683 201.395 405.855 201.311 406.014 201.208C406.182 201.096 406.327 200.965 406.448 200.816C406.579 200.657 406.677 200.489 406.742 200.312ZM419.927 195.664C419.861 195.599 419.74 195.51 419.563 195.398C419.395 195.286 419.185 195.179 418.933 195.076C418.69 194.973 418.424 194.885 418.135 194.81C417.845 194.726 417.551 194.684 417.253 194.684C416.73 194.684 416.333 194.782 416.063 194.978C415.801 195.174 415.671 195.449 415.671 195.804C415.671 196.075 415.755 196.289 415.923 196.448C416.091 196.607 416.343 196.742 416.679 196.854C417.015 196.966 417.435 197.087 417.939 197.218C418.592 197.377 419.157 197.573 419.633 197.806C420.118 198.03 420.487 198.329 420.739 198.702C421 199.066 421.131 199.551 421.131 200.158C421.131 200.69 421.033 201.147 420.837 201.53C420.641 201.903 420.37 202.207 420.025 202.44C419.679 202.673 419.287 202.846 418.849 202.958C418.41 203.061 417.943 203.112 417.449 203.112C416.954 203.112 416.459 203.061 415.965 202.958C415.47 202.855 414.994 202.711 414.537 202.524C414.079 202.328 413.659 202.095 413.277 201.824L414.131 200.158C414.215 200.242 414.364 200.354 414.579 200.494C414.793 200.625 415.055 200.76 415.363 200.9C415.671 201.031 416.007 201.143 416.371 201.236C416.735 201.329 417.103 201.376 417.477 201.376C417.999 201.376 418.396 201.287 418.667 201.11C418.937 200.933 419.073 200.681 419.073 200.354C419.073 200.055 418.965 199.822 418.751 199.654C418.536 199.486 418.237 199.341 417.855 199.22C417.472 199.089 417.019 198.949 416.497 198.8C415.871 198.623 415.349 198.427 414.929 198.212C414.509 197.988 414.196 197.708 413.991 197.372C413.785 197.036 413.683 196.616 413.683 196.112C413.683 195.431 413.841 194.861 414.159 194.404C414.485 193.937 414.924 193.587 415.475 193.354C416.025 193.111 416.637 192.99 417.309 192.99C417.775 192.99 418.214 193.041 418.625 193.144C419.045 193.247 419.437 193.382 419.801 193.55C420.165 193.718 420.491 193.9 420.781 194.096L419.927 195.664ZM425.811 203.14C425.223 203.14 424.691 203.042 424.215 202.846C423.739 202.641 423.333 202.365 422.997 202.02C422.661 201.665 422.399 201.264 422.213 200.816C422.035 200.359 421.947 199.878 421.947 199.374C421.947 198.674 422.101 198.035 422.409 197.456C422.726 196.877 423.174 196.415 423.753 196.07C424.341 195.715 425.031 195.538 425.825 195.538C426.627 195.538 427.313 195.715 427.883 196.07C428.452 196.415 428.886 196.877 429.185 197.456C429.493 198.025 429.647 198.641 429.647 199.304C429.647 199.416 429.642 199.533 429.633 199.654C429.623 199.766 429.614 199.859 429.605 199.934H423.935C423.972 200.307 424.079 200.634 424.257 200.914C424.443 201.194 424.677 201.409 424.957 201.558C425.246 201.698 425.554 201.768 425.881 201.768C426.254 201.768 426.604 201.679 426.931 201.502C427.267 201.315 427.495 201.073 427.617 200.774L429.227 201.222C429.049 201.595 428.793 201.927 428.457 202.216C428.13 202.505 427.743 202.734 427.295 202.902C426.847 203.061 426.352 203.14 425.811 203.14ZM423.893 198.744H427.729C427.691 198.371 427.584 198.049 427.407 197.778C427.239 197.498 427.015 197.283 426.735 197.134C426.455 196.975 426.142 196.896 425.797 196.896C425.461 196.896 425.153 196.975 424.873 197.134C424.602 197.283 424.378 197.498 424.201 197.778C424.033 198.049 423.93 198.371 423.893 198.744ZM435.117 202.622C434.959 202.687 434.767 202.762 434.543 202.846C434.319 202.93 434.077 202.995 433.815 203.042C433.563 203.098 433.307 203.126 433.045 203.126C432.7 203.126 432.383 203.065 432.093 202.944C431.804 202.823 431.571 202.631 431.393 202.37C431.225 202.099 431.141 201.749 431.141 201.32V197.106H430.175V195.664H431.141V193.284H433.017V195.664H434.557V197.106H433.017V200.69C433.027 200.942 433.097 201.124 433.227 201.236C433.358 201.348 433.521 201.404 433.717 201.404C433.913 201.404 434.105 201.371 434.291 201.306C434.478 201.241 434.627 201.185 434.739 201.138L435.117 202.622ZM436.024 200.256V195.664H437.9V199.85C437.9 200.41 438.003 200.835 438.208 201.124C438.414 201.404 438.717 201.544 439.118 201.544C439.361 201.544 439.599 201.497 439.832 201.404C440.075 201.301 440.294 201.152 440.49 200.956C440.696 200.76 440.868 200.513 441.008 200.214V195.664H442.884V200.9C442.884 201.096 442.917 201.236 442.982 201.32C443.057 201.404 443.174 201.455 443.332 201.474V203C443.146 203.028 442.987 203.047 442.856 203.056C442.735 203.075 442.623 203.084 442.52 203.084C442.184 203.084 441.909 203.009 441.694 202.86C441.489 202.701 441.368 202.487 441.33 202.216L441.288 201.628C440.962 202.123 440.542 202.501 440.028 202.762C439.515 203.014 438.95 203.14 438.334 203.14C437.578 203.14 437.004 202.897 436.612 202.412C436.22 201.917 436.024 201.199 436.024 200.256ZM449.145 203.14C448.575 203.14 448.071 203.014 447.633 202.762C447.203 202.501 446.867 202.151 446.625 201.712V205.982H444.749V195.664H446.387V196.924C446.667 196.495 447.021 196.159 447.451 195.916C447.88 195.664 448.37 195.538 448.921 195.538C449.415 195.538 449.868 195.636 450.279 195.832C450.699 196.028 451.063 196.303 451.371 196.658C451.679 197.003 451.917 197.405 452.085 197.862C452.262 198.31 452.351 198.795 452.351 199.318C452.351 200.027 452.211 200.671 451.931 201.25C451.66 201.829 451.282 202.291 450.797 202.636C450.321 202.972 449.77 203.14 449.145 203.14ZM448.515 201.544C448.804 201.544 449.065 201.483 449.299 201.362C449.532 201.241 449.733 201.077 449.901 200.872C450.078 200.657 450.209 200.419 450.293 200.158C450.386 199.887 450.433 199.607 450.433 199.318C450.433 199.01 450.381 198.725 450.279 198.464C450.185 198.203 450.045 197.974 449.859 197.778C449.672 197.573 449.453 197.414 449.201 197.302C448.958 197.19 448.692 197.134 448.403 197.134C448.225 197.134 448.043 197.167 447.857 197.232C447.679 197.288 447.507 197.372 447.339 197.484C447.171 197.596 447.021 197.727 446.891 197.876C446.769 198.025 446.681 198.189 446.625 198.366V200.088C446.737 200.359 446.886 200.606 447.073 200.83C447.269 201.054 447.493 201.231 447.745 201.362C447.997 201.483 448.253 201.544 448.515 201.544Z" fill="black"/>
        </g>
        <rect x="255.5" y="157.5" width="428" height="482" rx="24" stroke="#EEEBE2"/>
    </g>
    <g filter="url(#filter2_ddddd_0_1)">
        <rect x="100.5" y="222.5" width="114" height="337" rx="9.5" fill="white"/>
        <rect x="100.5" y="222.5" width="114" height="337" rx="9.5" stroke="#EEEBE2"/>
        <path d="M157.501 254.875C156.937 254.875 156.396 255.099 155.998 255.497C155.599 255.896 155.375 256.436 155.375 257C155.375 257.564 155.599 258.104 155.998 258.503C156.396 258.901 156.937 259.125 157.501 259.125C158.064 259.125 158.605 258.901 159.004 258.503C159.402 258.104 159.626 257.564 159.626 257C159.626 256.436 159.402 255.896 159.004 255.497C158.605 255.099 158.064 254.875 157.501 254.875ZM164.833 249.101C165.12 249.094 165.408 249.119 165.69 249.173C165.914 249.217 166.129 249.294 166.33 249.403C166.476 249.484 166.607 249.59 166.717 249.716C166.824 249.84 166.908 249.982 166.963 250.136C167.031 250.33 167.069 250.533 167.075 250.739C167.085 250.999 167.055 251.269 166.998 251.543C166.921 251.898 166.812 252.245 166.673 252.58C166.49 253.025 166.267 253.46 166.019 253.884C165.69 254.439 165.327 254.975 164.93 255.493C164.737 255.748 164.53 255.995 164.323 256.241C164.031 255.924 163.732 255.613 163.426 255.308C162.561 254.458 161.648 253.658 160.693 252.912L160.669 252.893L160.054 253.683L160.078 253.701C161.003 254.423 161.887 255.198 162.723 256.021C163.044 256.337 163.357 256.661 163.661 256.995C163.529 257.139 163.402 257.288 163.266 257.429C163.134 257.568 163 257.705 162.865 257.84L163.571 258.547C163.713 258.406 163.852 258.264 163.989 258.12C164.102 258.003 164.207 257.877 164.319 257.757C164.406 257.861 164.499 257.96 164.583 258.065C165.021 258.602 165.425 259.163 165.795 259.748C166.077 260.196 166.334 260.656 166.547 261.129C166.708 261.476 166.839 261.835 166.938 262.204C167.014 262.481 167.059 262.766 167.074 263.053C167.085 263.291 167.065 263.521 167.007 263.731C166.964 263.892 166.893 264.044 166.798 264.181C166.704 264.315 166.586 264.431 166.45 264.523C166.278 264.636 166.09 264.722 165.893 264.777C165.642 264.849 165.373 264.885 165.093 264.897C164.738 264.911 164.375 264.884 164.007 264.831C163.526 264.757 163.051 264.651 162.585 264.513C161.966 264.331 161.358 264.104 160.759 263.847H160.758C159.978 263.505 159.217 263.122 158.478 262.7L158.445 262.68C159.217 262.182 159.967 261.651 160.693 261.088L160.413 260.728L160.694 261.088L160.718 261.068L160.101 260.281L160.078 260.3C159.154 261.024 158.189 261.694 157.187 262.307C156.4 262.788 155.587 263.225 154.751 263.617C154.125 263.912 153.483 264.168 152.826 264.385C152.328 264.55 151.819 264.682 151.303 264.78C150.928 264.853 150.548 264.893 150.166 264.9C149.878 264.906 149.591 264.882 149.309 264.827C149.085 264.783 148.869 264.706 148.669 264.597C148.376 264.438 148.151 264.178 148.035 263.865C147.967 263.671 147.929 263.467 147.923 263.261C147.916 262.991 147.942 262.721 148.001 262.457C148.074 262.109 148.187 261.764 148.327 261.421C148.515 260.972 148.733 260.537 148.981 260.117C149.473 259.282 150.04 258.494 150.675 257.761C150.985 258.096 151.301 258.424 151.625 258.744C152.478 259.578 153.377 260.364 154.318 261.097L154.933 260.309C154.022 259.599 153.151 258.839 152.326 258.031C151.987 257.697 151.658 257.356 151.338 257.005C151.469 256.86 151.6 256.715 151.731 256.572C151.868 256.43 152.006 256.289 152.145 256.149L151.438 255.443C151.294 255.588 151.151 255.733 151.01 255.88C150.897 255.999 150.79 256.124 150.679 256.244C150.606 256.156 150.527 256.073 150.454 255.984C150.016 255.446 149.608 254.884 149.233 254.3C148.949 253.855 148.694 253.392 148.471 252.913C148.301 252.554 148.164 252.18 148.061 251.796C147.985 251.519 147.939 251.234 147.925 250.947C147.913 250.719 147.935 250.491 147.991 250.271C148.037 250.104 148.106 249.954 148.201 249.819C148.291 249.688 148.413 249.571 148.549 249.477C148.721 249.365 148.909 249.279 149.107 249.224C149.368 249.152 149.636 249.111 149.906 249.104C150.269 249.093 150.632 249.115 150.991 249.168C151.472 249.242 151.948 249.349 152.414 249.488C153.035 249.673 153.645 249.896 154.239 250.155C155.032 250.499 155.805 250.888 156.554 251.32C155.778 251.821 155.025 252.356 154.295 252.923L154.911 253.709C155.82 252.997 156.768 252.336 157.751 251.731C158.54 251.246 159.355 250.806 160.191 250.411C160.823 250.115 161.466 249.851 162.122 249.633C162.622 249.465 163.132 249.33 163.65 249.229C164.047 249.155 164.443 249.107 164.833 249.101ZM164.819 248.101C164.365 248.111 163.912 248.159 163.466 248.245C162.904 248.356 162.349 248.502 161.806 248.684C161.111 248.917 160.43 249.192 159.767 249.505C158.99 249.868 158.239 250.281 157.506 250.719C156.584 250.161 155.625 249.665 154.637 249.236C154.005 248.962 153.357 248.725 152.697 248.528C152.185 248.374 151.663 248.258 151.134 248.179C150.715 248.114 150.291 248.089 149.867 248.105C149.529 248.119 149.179 248.163 148.833 248.261C148.531 248.346 148.245 248.478 147.985 248.653C147.513 248.974 147.174 249.454 147.029 250.005C146.944 250.326 146.909 250.657 146.926 250.988C146.943 251.348 147 251.705 147.095 252.052C147.215 252.491 147.371 252.919 147.563 253.331C147.806 253.849 148.082 254.352 148.39 254.835C148.784 255.453 149.215 256.047 149.679 256.615C149.786 256.745 149.901 256.868 150.01 256.996C149.756 257.291 149.511 257.593 149.274 257.901C148.859 258.445 148.469 259.013 148.118 259.611C147.845 260.071 147.605 260.55 147.401 261.044C147.239 261.435 147.113 261.841 147.023 262.255C146.948 262.597 146.916 262.947 146.926 263.297C146.934 263.61 146.993 263.92 147.099 264.215V264.216C147.297 264.75 147.681 265.195 148.179 265.469C148.47 265.629 148.783 265.743 149.109 265.807C149.462 265.877 149.822 265.908 150.182 265.9C150.619 265.89 151.055 265.845 151.485 265.764L151.486 265.763C152.047 265.66 152.599 265.517 153.139 265.336C153.833 265.105 154.512 264.833 155.174 264.523C155.969 264.15 156.744 263.736 157.497 263.283C157.658 263.379 157.82 263.474 157.985 263.568C158.755 264.011 159.55 264.411 160.365 264.765C160.997 265.039 161.645 265.275 162.305 265.472C162.811 265.621 163.334 265.744 163.867 265.821C164.286 265.884 164.71 265.909 165.134 265.896C165.473 265.883 165.822 265.837 166.169 265.739C166.459 265.655 166.75 265.531 167.017 265.347C167.487 265.025 167.827 264.545 167.973 263.995C168.063 263.664 168.089 263.332 168.075 263.013C168.058 262.653 168.001 262.296 167.906 261.948C167.791 261.526 167.642 261.115 167.459 260.717C167.22 260.2 166.947 259.698 166.643 259.215C166.25 258.599 165.823 258.006 165.365 257.437C165.245 257.289 165.114 257.149 164.991 257.005C165.244 256.71 165.489 256.408 165.727 256.1C166.142 255.555 166.533 254.987 166.883 254.389C167.156 253.929 167.396 253.45 167.601 252.956C167.762 252.565 167.889 252.16 167.978 251.747C168.049 251.413 168.089 251.063 168.075 250.703C168.067 250.39 168.008 250.08 167.902 249.785V249.784C167.704 249.25 167.321 248.805 166.822 248.531C166.531 248.371 166.218 248.258 165.893 248.195C165.539 248.124 165.179 248.093 164.819 248.101ZM157.501 241L171.357 249V265L157.501 273L143.643 265V249L157.501 241Z" fill="black"/>
    </g>
    <g filter="url(#filter3_ddddd_0_1)">
        <rect x="285.5" y="690.5" width="368" height="39" rx="9.5" fill="white"/>
        <rect x="285.5" y="690.5" width="368" height="39" rx="9.5" stroke="#EEEBE2"/>
        <path d="M441.597 706.922C441.457 706.763 441.294 706.623 441.107 706.502C440.92 706.371 440.71 706.259 440.477 706.166C440.244 706.073 439.992 705.998 439.721 705.942C439.46 705.886 439.18 705.858 438.881 705.858C438.013 705.858 437.374 706.026 436.963 706.362C436.562 706.689 436.361 707.137 436.361 707.706C436.361 708.098 436.454 708.406 436.641 708.63C436.837 708.854 437.14 709.036 437.551 709.176C437.962 709.316 438.484 709.461 439.119 709.61C439.828 709.759 440.44 709.937 440.953 710.142C441.466 710.347 441.863 710.627 442.143 710.982C442.423 711.327 442.563 711.799 442.563 712.396C442.563 712.853 442.474 713.25 442.297 713.586C442.12 713.922 441.872 714.202 441.555 714.426C441.238 714.65 440.86 714.818 440.421 714.93C439.982 715.033 439.502 715.084 438.979 715.084C438.466 715.084 437.971 715.033 437.495 714.93C437.028 714.818 436.585 714.659 436.165 714.454C435.745 714.239 435.353 713.969 434.989 713.642L435.479 712.844C435.656 713.031 435.866 713.208 436.109 713.376C436.361 713.535 436.636 713.679 436.935 713.81C437.243 713.941 437.57 714.043 437.915 714.118C438.27 714.183 438.634 714.216 439.007 714.216C439.8 714.216 440.416 714.071 440.855 713.782C441.303 713.493 441.527 713.063 441.527 712.494C441.527 712.083 441.415 711.757 441.191 711.514C440.967 711.262 440.631 711.057 440.183 710.898C439.735 710.739 439.184 710.585 438.531 710.436C437.84 710.277 437.257 710.1 436.781 709.904C436.305 709.708 435.946 709.451 435.703 709.134C435.47 708.807 435.353 708.378 435.353 707.846C435.353 707.23 435.502 706.712 435.801 706.292C436.109 705.863 436.529 705.541 437.061 705.326C437.593 705.102 438.204 704.99 438.895 704.99C439.334 704.99 439.74 705.037 440.113 705.13C440.496 705.214 440.846 705.34 441.163 705.508C441.49 705.676 441.793 705.886 442.073 706.138L441.597 706.922ZM444.095 715V707.706H445.047V715H444.095ZM444.095 706.18V704.78H445.047V706.18H444.095ZM453.276 715H452.324V710.926C452.324 710.067 452.198 709.442 451.946 709.05C451.694 708.649 451.297 708.448 450.756 708.448C450.382 708.448 450.014 708.541 449.65 708.728C449.286 708.905 448.964 709.153 448.684 709.47C448.413 709.778 448.217 710.133 448.096 710.534V715H447.144V707.706H448.012V709.358C448.208 709.003 448.464 708.695 448.782 708.434C449.099 708.163 449.458 707.953 449.86 707.804C450.261 707.655 450.676 707.58 451.106 707.58C451.507 707.58 451.848 707.655 452.128 707.804C452.408 707.953 452.632 708.168 452.8 708.448C452.968 708.719 453.089 709.05 453.164 709.442C453.238 709.825 453.276 710.254 453.276 710.73V715ZM458.232 715.098C457.737 715.098 457.28 714.995 456.86 714.79C456.44 714.585 456.076 714.309 455.768 713.964C455.469 713.609 455.236 713.208 455.068 712.76C454.9 712.312 454.816 711.85 454.816 711.374C454.816 710.861 454.895 710.38 455.054 709.932C455.222 709.475 455.455 709.069 455.754 708.714C456.062 708.359 456.421 708.084 456.832 707.888C457.243 707.683 457.7 707.58 458.204 707.58C458.829 707.58 459.371 707.739 459.828 708.056C460.295 708.373 460.687 708.765 461.004 709.232V707.706H461.858V715.028C461.858 715.7 461.695 716.265 461.368 716.722C461.051 717.189 460.617 717.539 460.066 717.772C459.525 718.005 458.932 718.122 458.288 718.122C457.457 718.122 456.785 717.973 456.272 717.674C455.759 717.375 455.339 716.974 455.012 716.47L455.6 716.008C455.889 716.465 456.272 716.806 456.748 717.03C457.233 717.254 457.747 717.366 458.288 717.366C458.764 717.366 459.198 717.277 459.59 717.1C459.991 716.932 460.309 716.675 460.542 716.33C460.785 715.985 460.906 715.551 460.906 715.028V713.586C460.626 714.043 460.243 714.412 459.758 714.692C459.273 714.963 458.764 715.098 458.232 715.098ZM458.498 714.3C458.787 714.3 459.063 714.249 459.324 714.146C459.595 714.043 459.842 713.908 460.066 713.74C460.29 713.563 460.477 713.367 460.626 713.152C460.775 712.937 460.869 712.718 460.906 712.494V710.24C460.766 709.885 460.565 709.573 460.304 709.302C460.043 709.022 459.744 708.807 459.408 708.658C459.081 708.499 458.741 708.42 458.386 708.42C457.975 708.42 457.607 708.509 457.28 708.686C456.963 708.854 456.692 709.083 456.468 709.372C456.253 709.652 456.085 709.969 455.964 710.324C455.843 710.679 455.782 711.033 455.782 711.388C455.782 711.78 455.852 712.153 455.992 712.508C456.132 712.853 456.323 713.166 456.566 713.446C456.818 713.717 457.107 713.927 457.434 714.076C457.77 714.225 458.125 714.3 458.498 714.3ZM464.002 704.78H464.954V713.348C464.954 713.712 465.019 713.95 465.15 714.062C465.281 714.174 465.439 714.23 465.626 714.23C465.794 714.23 465.962 714.211 466.13 714.174C466.298 714.137 466.443 714.099 466.564 714.062L466.732 714.832C466.555 714.907 466.335 714.967 466.074 715.014C465.822 715.061 465.603 715.084 465.416 715.084C464.987 715.084 464.641 714.958 464.38 714.706C464.128 714.454 464.002 714.109 464.002 713.67V704.78ZM470.925 715.14C470.402 715.14 469.917 715.042 469.469 714.846C469.021 714.641 468.633 714.365 468.307 714.02C467.98 713.665 467.723 713.259 467.537 712.802C467.359 712.345 467.271 711.855 467.271 711.332C467.271 710.651 467.425 710.025 467.733 709.456C468.05 708.887 468.484 708.434 469.035 708.098C469.585 707.753 470.211 707.58 470.911 707.58C471.629 707.58 472.255 707.753 472.787 708.098C473.328 708.443 473.753 708.901 474.061 709.47C474.369 710.03 474.523 710.646 474.523 711.318C474.523 711.393 474.523 711.467 474.523 711.542C474.523 711.607 474.518 711.659 474.509 711.696H468.265C468.311 712.219 468.456 712.685 468.699 713.096C468.951 713.497 469.273 713.819 469.665 714.062C470.066 714.295 470.5 714.412 470.967 714.412C471.443 714.412 471.891 714.291 472.311 714.048C472.74 713.805 473.039 713.488 473.207 713.096L474.033 713.32C473.883 713.665 473.655 713.978 473.347 714.258C473.039 714.538 472.675 714.757 472.255 714.916C471.844 715.065 471.401 715.14 470.925 715.14ZM468.237 711.01H473.627C473.589 710.478 473.445 710.011 473.193 709.61C472.95 709.209 472.628 708.896 472.227 708.672C471.835 708.439 471.401 708.322 470.925 708.322C470.449 708.322 470.015 708.439 469.623 708.672C469.231 708.896 468.909 709.213 468.657 709.624C468.414 710.025 468.274 710.487 468.237 711.01ZM485.566 706.922C485.426 706.763 485.262 706.623 485.076 706.502C484.889 706.371 484.679 706.259 484.446 706.166C484.212 706.073 483.96 705.998 483.69 705.942C483.428 705.886 483.148 705.858 482.85 705.858C481.982 705.858 481.342 706.026 480.932 706.362C480.53 706.689 480.33 707.137 480.33 707.706C480.33 708.098 480.423 708.406 480.61 708.63C480.806 708.854 481.109 709.036 481.52 709.176C481.93 709.316 482.453 709.461 483.088 709.61C483.797 709.759 484.408 709.937 484.922 710.142C485.435 710.347 485.832 710.627 486.112 710.982C486.392 711.327 486.532 711.799 486.532 712.396C486.532 712.853 486.443 713.25 486.266 713.586C486.088 713.922 485.841 714.202 485.524 714.426C485.206 714.65 484.828 714.818 484.39 714.93C483.951 715.033 483.47 715.084 482.948 715.084C482.434 715.084 481.94 715.033 481.464 714.93C480.997 714.818 480.554 714.659 480.134 714.454C479.714 714.239 479.322 713.969 478.958 713.642L479.448 712.844C479.625 713.031 479.835 713.208 480.078 713.376C480.33 713.535 480.605 713.679 480.904 713.81C481.212 713.941 481.538 714.043 481.884 714.118C482.238 714.183 482.602 714.216 482.976 714.216C483.769 714.216 484.385 714.071 484.824 713.782C485.272 713.493 485.496 713.063 485.496 712.494C485.496 712.083 485.384 711.757 485.16 711.514C484.936 711.262 484.6 711.057 484.152 710.898C483.704 710.739 483.153 710.585 482.5 710.436C481.809 710.277 481.226 710.1 480.75 709.904C480.274 709.708 479.914 709.451 479.672 709.134C479.438 708.807 479.322 708.378 479.322 707.846C479.322 707.23 479.471 706.712 479.77 706.292C480.078 705.863 480.498 705.541 481.03 705.326C481.562 705.102 482.173 704.99 482.864 704.99C483.302 704.99 483.708 705.037 484.082 705.13C484.464 705.214 484.814 705.34 485.132 705.508C485.458 705.676 485.762 705.886 486.042 706.138L485.566 706.922ZM488.26 715V705.06H492.376C492.805 705.06 493.197 705.149 493.552 705.326C493.916 705.503 494.228 705.746 494.49 706.054C494.751 706.353 494.956 706.689 495.106 707.062C495.255 707.426 495.33 707.799 495.33 708.182C495.33 708.723 495.208 709.237 494.966 709.722C494.732 710.198 494.401 710.585 493.972 710.884C493.542 711.183 493.038 711.332 492.46 711.332H489.24V715H488.26ZM489.24 710.464H492.418C492.81 710.464 493.15 710.357 493.44 710.142C493.729 709.927 493.953 709.647 494.112 709.302C494.27 708.957 494.35 708.583 494.35 708.182C494.35 707.771 494.256 707.393 494.07 707.048C493.883 706.703 493.636 706.432 493.328 706.236C493.029 706.031 492.698 705.928 492.334 705.928H489.24V710.464ZM499.365 705.06H500.191L504.321 715H503.285L501.997 711.892H497.531L496.257 715H495.207L499.365 705.06ZM501.773 711.122L499.771 706.208L497.741 711.122H501.773Z" fill="black"/>
    </g>
    <path d="M466.316 746.922C466.176 746.763 466.012 746.623 465.826 746.502C465.639 746.371 465.429 746.259 465.196 746.166C464.962 746.073 464.71 745.998 464.44 745.942C464.178 745.886 463.898 745.858 463.6 745.858C462.732 745.858 462.092 746.026 461.682 746.362C461.28 746.689 461.08 747.137 461.08 747.706C461.08 748.098 461.173 748.406 461.36 748.63C461.556 748.854 461.859 749.036 462.27 749.176C462.68 749.316 463.203 749.461 463.838 749.61C464.547 749.759 465.158 749.937 465.672 750.142C466.185 750.347 466.582 750.627 466.862 750.982C467.142 751.327 467.282 751.799 467.282 752.396C467.282 752.853 467.193 753.25 467.016 753.586C466.838 753.922 466.591 754.202 466.274 754.426C465.956 754.65 465.578 754.818 465.14 754.93C464.701 755.033 464.22 755.084 463.698 755.084C463.184 755.084 462.69 755.033 462.214 754.93C461.747 754.818 461.304 754.659 460.884 754.454C460.464 754.239 460.072 753.969 459.708 753.642L460.198 752.844C460.375 753.031 460.585 753.208 460.828 753.376C461.08 753.535 461.355 753.679 461.654 753.81C461.962 753.941 462.288 754.043 462.634 754.118C462.988 754.183 463.352 754.216 463.726 754.216C464.519 754.216 465.135 754.071 465.574 753.782C466.022 753.493 466.246 753.063 466.246 752.494C466.246 752.083 466.134 751.757 465.91 751.514C465.686 751.262 465.35 751.057 464.902 750.898C464.454 750.739 463.903 750.585 463.25 750.436C462.559 750.277 461.976 750.1 461.5 749.904C461.024 749.708 460.664 749.451 460.422 749.134C460.188 748.807 460.072 748.378 460.072 747.846C460.072 747.23 460.221 746.712 460.52 746.292C460.828 745.863 461.248 745.541 461.78 745.326C462.312 745.102 462.923 744.99 463.614 744.99C464.052 744.99 464.458 745.037 464.832 745.13C465.214 745.214 465.564 745.34 465.882 745.508C466.208 745.676 466.512 745.886 466.792 746.138L466.316 746.922ZM474.82 746.922C474.68 746.763 474.516 746.623 474.33 746.502C474.143 746.371 473.933 746.259 473.7 746.166C473.466 746.073 473.214 745.998 472.944 745.942C472.682 745.886 472.402 745.858 472.104 745.858C471.236 745.858 470.596 746.026 470.186 746.362C469.784 746.689 469.584 747.137 469.584 747.706C469.584 748.098 469.677 748.406 469.864 748.63C470.06 748.854 470.363 749.036 470.774 749.176C471.184 749.316 471.707 749.461 472.342 749.61C473.051 749.759 473.662 749.937 474.176 750.142C474.689 750.347 475.086 750.627 475.366 750.982C475.646 751.327 475.786 751.799 475.786 752.396C475.786 752.853 475.697 753.25 475.52 753.586C475.342 753.922 475.095 754.202 474.778 754.426C474.46 754.65 474.082 754.818 473.644 754.93C473.205 755.033 472.724 755.084 472.202 755.084C471.688 755.084 471.194 755.033 470.718 754.93C470.251 754.818 469.808 754.659 469.388 754.454C468.968 754.239 468.576 753.969 468.212 753.642L468.702 752.844C468.879 753.031 469.089 753.208 469.332 753.376C469.584 753.535 469.859 753.679 470.158 753.81C470.466 753.941 470.792 754.043 471.138 754.118C471.492 754.183 471.856 754.216 472.23 754.216C473.023 754.216 473.639 754.071 474.078 753.782C474.526 753.493 474.75 753.063 474.75 752.494C474.75 752.083 474.638 751.757 474.414 751.514C474.19 751.262 473.854 751.057 473.406 750.898C472.958 750.739 472.407 750.585 471.754 750.436C471.063 750.277 470.48 750.1 470.004 749.904C469.528 749.708 469.168 749.451 468.926 749.134C468.692 748.807 468.576 748.378 468.576 747.846C468.576 747.23 468.725 746.712 469.024 746.292C469.332 745.863 469.752 745.541 470.284 745.326C470.816 745.102 471.427 744.99 472.118 744.99C472.556 744.99 472.962 745.037 473.336 745.13C473.718 745.214 474.068 745.34 474.386 745.508C474.712 745.676 475.016 745.886 475.296 746.138L474.82 746.922ZM477.514 755V745.06H478.494V755H477.514Z" fill="black"/>
    <path d="M467.197 784.132V785H460.519V775.06H467.071V775.928H461.499V779.512H466.357V780.338H461.499V784.132H467.197ZM474.806 776.922C474.666 776.763 474.503 776.623 474.316 776.502C474.129 776.371 473.919 776.259 473.686 776.166C473.453 776.073 473.201 775.998 472.93 775.942C472.669 775.886 472.389 775.858 472.09 775.858C471.222 775.858 470.583 776.026 470.172 776.362C469.771 776.689 469.57 777.137 469.57 777.706C469.57 778.098 469.663 778.406 469.85 778.63C470.046 778.854 470.349 779.036 470.76 779.176C471.171 779.316 471.693 779.461 472.328 779.61C473.037 779.759 473.649 779.937 474.162 780.142C474.675 780.347 475.072 780.627 475.352 780.982C475.632 781.327 475.772 781.799 475.772 782.396C475.772 782.853 475.683 783.25 475.506 783.586C475.329 783.922 475.081 784.202 474.764 784.426C474.447 784.65 474.069 784.818 473.63 784.93C473.191 785.033 472.711 785.084 472.188 785.084C471.675 785.084 471.18 785.033 470.704 784.93C470.237 784.818 469.794 784.659 469.374 784.454C468.954 784.239 468.562 783.969 468.198 783.642L468.688 782.844C468.865 783.031 469.075 783.208 469.318 783.376C469.57 783.535 469.845 783.679 470.144 783.81C470.452 783.941 470.779 784.043 471.124 784.118C471.479 784.183 471.843 784.216 472.216 784.216C473.009 784.216 473.625 784.071 474.064 783.782C474.512 783.493 474.736 783.063 474.736 782.494C474.736 782.083 474.624 781.757 474.4 781.514C474.176 781.262 473.84 781.057 473.392 780.898C472.944 780.739 472.393 780.585 471.74 780.436C471.049 780.277 470.466 780.1 469.99 779.904C469.514 779.708 469.155 779.451 468.912 779.134C468.679 778.807 468.562 778.378 468.562 777.846C468.562 777.23 468.711 776.712 469.01 776.292C469.318 775.863 469.738 775.541 470.27 775.326C470.802 775.102 471.413 774.99 472.104 774.99C472.543 774.99 472.949 775.037 473.322 775.13C473.705 775.214 474.055 775.34 474.372 775.508C474.699 775.676 475.002 775.886 475.282 776.138L474.806 776.922ZM477.5 785V775.06H478.48V785H477.5Z" fill="black"/>
    <g filter="url(#filter4_ddddd_0_1)">
        <rect x="522.5" y="96.5" width="161" height="27" rx="9.5" fill="white"/>
        <rect x="522.5" y="96.5" width="161" height="27" rx="9.5" stroke="#EEEBE2"/>
        <path d="M597.402 106.922C597.262 106.763 597.098 106.623 596.912 106.502C596.725 106.371 596.515 106.259 596.282 106.166C596.048 106.073 595.796 105.998 595.526 105.942C595.264 105.886 594.984 105.858 594.686 105.858C593.818 105.858 593.178 106.026 592.768 106.362C592.366 106.689 592.166 107.137 592.166 107.706C592.166 108.098 592.259 108.406 592.446 108.63C592.642 108.854 592.945 109.036 593.356 109.176C593.766 109.316 594.289 109.461 594.924 109.61C595.633 109.759 596.244 109.937 596.758 110.142C597.271 110.347 597.668 110.627 597.948 110.982C598.228 111.327 598.368 111.799 598.368 112.396C598.368 112.853 598.279 113.25 598.102 113.586C597.924 113.922 597.677 114.202 597.36 114.426C597.042 114.65 596.664 114.818 596.226 114.93C595.787 115.033 595.306 115.084 594.784 115.084C594.27 115.084 593.776 115.033 593.3 114.93C592.833 114.818 592.39 114.659 591.97 114.454C591.55 114.239 591.158 113.969 590.794 113.642L591.284 112.844C591.461 113.031 591.671 113.208 591.914 113.376C592.166 113.535 592.441 113.679 592.74 113.81C593.048 113.941 593.374 114.043 593.72 114.118C594.074 114.183 594.438 114.216 594.812 114.216C595.605 114.216 596.221 114.071 596.66 113.782C597.108 113.493 597.332 113.063 597.332 112.494C597.332 112.083 597.22 111.757 596.996 111.514C596.772 111.262 596.436 111.057 595.988 110.898C595.54 110.739 594.989 110.585 594.336 110.436C593.645 110.277 593.062 110.1 592.586 109.904C592.11 109.708 591.75 109.451 591.508 109.134C591.274 108.807 591.158 108.378 591.158 107.846C591.158 107.23 591.307 106.712 591.606 106.292C591.914 105.863 592.334 105.541 592.866 105.326C593.398 105.102 594.009 104.99 594.7 104.99C595.138 104.99 595.544 105.037 595.918 105.13C596.3 105.214 596.65 105.34 596.968 105.508C597.294 105.676 597.598 105.886 597.878 106.138L597.402 106.922ZM605.906 106.922C605.766 106.763 605.602 106.623 605.416 106.502C605.229 106.371 605.019 106.259 604.786 106.166C604.552 106.073 604.3 105.998 604.03 105.942C603.768 105.886 603.488 105.858 603.19 105.858C602.322 105.858 601.682 106.026 601.272 106.362C600.87 106.689 600.67 107.137 600.67 107.706C600.67 108.098 600.763 108.406 600.95 108.63C601.146 108.854 601.449 109.036 601.86 109.176C602.27 109.316 602.793 109.461 603.428 109.61C604.137 109.759 604.748 109.937 605.262 110.142C605.775 110.347 606.172 110.627 606.452 110.982C606.732 111.327 606.872 111.799 606.872 112.396C606.872 112.853 606.783 113.25 606.606 113.586C606.428 113.922 606.181 114.202 605.864 114.426C605.546 114.65 605.168 114.818 604.73 114.93C604.291 115.033 603.81 115.084 603.288 115.084C602.774 115.084 602.28 115.033 601.804 114.93C601.337 114.818 600.894 114.659 600.474 114.454C600.054 114.239 599.662 113.969 599.298 113.642L599.788 112.844C599.965 113.031 600.175 113.208 600.418 113.376C600.67 113.535 600.945 113.679 601.244 113.81C601.552 113.941 601.878 114.043 602.224 114.118C602.578 114.183 602.942 114.216 603.316 114.216C604.109 114.216 604.725 114.071 605.164 113.782C605.612 113.493 605.836 113.063 605.836 112.494C605.836 112.083 605.724 111.757 605.5 111.514C605.276 111.262 604.94 111.057 604.492 110.898C604.044 110.739 603.493 110.585 602.84 110.436C602.149 110.277 601.566 110.1 601.09 109.904C600.614 109.708 600.254 109.451 600.012 109.134C599.778 108.807 599.662 108.378 599.662 107.846C599.662 107.23 599.811 106.712 600.11 106.292C600.418 105.863 600.838 105.541 601.37 105.326C601.902 105.102 602.513 104.99 603.204 104.99C603.642 104.99 604.048 105.037 604.422 105.13C604.804 105.214 605.154 105.34 605.472 105.508C605.798 105.676 606.102 105.886 606.382 106.138L605.906 106.922ZM608.6 115V105.06H612.8C613.229 105.06 613.621 105.149 613.976 105.326C614.33 105.503 614.638 105.746 614.9 106.054C615.17 106.353 615.376 106.689 615.516 107.062C615.665 107.426 615.74 107.799 615.74 108.182C615.74 108.658 615.646 109.106 615.46 109.526C615.282 109.946 615.026 110.301 614.69 110.59C614.363 110.879 613.976 111.071 613.528 111.164L615.964 115H614.858L612.52 111.332H609.58V115H608.6ZM609.58 110.464H612.828C613.22 110.464 613.56 110.357 613.85 110.142C614.139 109.927 614.363 109.647 614.522 109.302C614.68 108.947 614.76 108.574 614.76 108.182C614.76 107.781 614.666 107.412 614.48 107.076C614.302 106.731 614.06 106.455 613.752 106.25C613.453 106.035 613.117 105.928 612.744 105.928H609.58V110.464Z" fill="black"/>
    </g>
    <path d="M589.964 81.96C589.964 81.3533 590.067 80.7607 590.272 80.182C590.487 79.594 590.795 79.062 591.196 78.586C591.597 78.1007 592.092 77.718 592.68 77.438C593.268 77.1487 593.935 77.004 594.682 77.004C595.569 77.004 596.325 77.2093 596.95 77.62C597.585 78.0213 598.051 78.5393 598.35 79.174L597.58 79.65C597.365 79.2113 597.095 78.866 596.768 78.614C596.441 78.3527 596.091 78.166 595.718 78.054C595.354 77.942 594.99 77.886 594.626 77.886C594.029 77.886 593.501 78.0073 593.044 78.25C592.587 78.4833 592.199 78.8007 591.882 79.202C591.574 79.594 591.341 80.0373 591.182 80.532C591.023 81.0173 590.944 81.512 590.944 82.016C590.944 82.5667 591.037 83.094 591.224 83.598C591.411 84.102 591.672 84.55 592.008 84.942C592.344 85.3247 592.736 85.6327 593.184 85.866C593.641 86.09 594.136 86.202 594.668 86.202C595.041 86.202 595.424 86.1367 595.816 86.006C596.208 85.8753 596.572 85.6747 596.908 85.404C597.253 85.1333 597.529 84.7833 597.734 84.354L598.546 84.774C598.341 85.2687 598.023 85.6887 597.594 86.034C597.165 86.3793 596.684 86.6407 596.152 86.818C595.629 86.9953 595.116 87.084 594.612 87.084C593.931 87.084 593.305 86.9393 592.736 86.65C592.167 86.3513 591.672 85.9593 591.252 85.474C590.841 84.9793 590.524 84.4287 590.3 83.822C590.076 83.206 589.964 82.5853 589.964 81.96ZM606.03 78.922C605.89 78.7633 605.726 78.6233 605.54 78.502C605.353 78.3713 605.143 78.2593 604.91 78.166C604.676 78.0727 604.424 77.998 604.154 77.942C603.892 77.886 603.612 77.858 603.314 77.858C602.446 77.858 601.806 78.026 601.396 78.362C600.994 78.6887 600.794 79.1367 600.794 79.706C600.794 80.098 600.887 80.406 601.074 80.63C601.27 80.854 601.573 81.036 601.984 81.176C602.394 81.316 602.917 81.4607 603.552 81.61C604.261 81.7593 604.872 81.9367 605.386 82.142C605.899 82.3473 606.296 82.6273 606.576 82.982C606.856 83.3273 606.996 83.7987 606.996 84.396C606.996 84.8533 606.907 85.25 606.73 85.586C606.552 85.922 606.305 86.202 605.988 86.426C605.67 86.65 605.292 86.818 604.854 86.93C604.415 87.0327 603.934 87.084 603.412 87.084C602.898 87.084 602.404 87.0327 601.928 86.93C601.461 86.818 601.018 86.6593 600.598 86.454C600.178 86.2393 599.786 85.9687 599.422 85.642L599.912 84.844C600.089 85.0307 600.299 85.208 600.542 85.376C600.794 85.5347 601.069 85.6793 601.368 85.81C601.676 85.9407 602.002 86.0433 602.348 86.118C602.702 86.1833 603.066 86.216 603.44 86.216C604.233 86.216 604.849 86.0713 605.288 85.782C605.736 85.4927 605.96 85.0633 605.96 84.494C605.96 84.0833 605.848 83.7567 605.624 83.514C605.4 83.262 605.064 83.0567 604.616 82.898C604.168 82.7393 603.617 82.5853 602.964 82.436C602.273 82.2773 601.69 82.1 601.214 81.904C600.738 81.708 600.378 81.4513 600.136 81.134C599.902 80.8073 599.786 80.378 599.786 79.846C599.786 79.23 599.935 78.712 600.234 78.292C600.542 77.8627 600.962 77.5407 601.494 77.326C602.026 77.102 602.637 76.99 603.328 76.99C603.766 76.99 604.172 77.0367 604.546 77.13C604.928 77.214 605.278 77.34 605.596 77.508C605.922 77.676 606.226 77.886 606.506 78.138L606.03 78.922ZM608.724 87V77.06H612.924C613.353 77.06 613.745 77.1487 614.1 77.326C614.454 77.5033 614.762 77.746 615.024 78.054C615.294 78.3527 615.5 78.6887 615.64 79.062C615.789 79.426 615.864 79.7993 615.864 80.182C615.864 80.658 615.77 81.106 615.584 81.526C615.406 81.946 615.15 82.3007 614.814 82.59C614.487 82.8793 614.1 83.0707 613.652 83.164L616.088 87H614.982L612.644 83.332H609.704V87H608.724ZM609.704 82.464H612.952C613.344 82.464 613.684 82.3567 613.974 82.142C614.263 81.9273 614.487 81.6473 614.646 81.302C614.804 80.9473 614.884 80.574 614.884 80.182C614.884 79.7807 614.79 79.412 614.604 79.076C614.426 78.7307 614.184 78.4553 613.876 78.25C613.577 78.0353 613.241 77.928 612.868 77.928H609.704V82.464Z" fill="black"/>
    <rect x="285.5" y="222.5" width="114" height="337" rx="7.5" stroke="black" stroke-dasharray="2 2"/>
    <rect x="-0.5" y="0.5" width="152" height="53" rx="7.5" transform="matrix(-1 0 0 1 182 231)" stroke="black" stroke-dasharray="2 2"/>
    <rect x="-0.5" y="0.5" width="52" height="53" rx="7.5" transform="matrix(-1 0 0 1 495 231)" stroke="black" stroke-dasharray="2 2"/>
    <rect x="-0.5" y="0.5" width="52" height="53" rx="7.5" transform="matrix(-1 0 0 1 620 231)" stroke="black" stroke-dasharray="2 2"/>
    <rect x="-0.5" y="0.5" width="124" height="113" rx="7.5" transform="matrix(-1 0 0 1 532 696)" stroke="black" stroke-dasharray="2 2"/>
    <rect x="-0.5" y="0.5" width="86" height="54" rx="7.5" transform="matrix(-1 0 0 1 647 66)" stroke="black" stroke-dasharray="2 2"/>
    <rect x="286.5" y="570.5" width="367" height="39" rx="7.5" stroke="black" stroke-dasharray="2 2"/>
    <path d="M217.367 254.936C235.332 242.456 277.439 231.075 302.15 285.391M302.15 285.391L278.088 279.336M302.15 285.391L306.054 262.533" stroke="#FF5A55" stroke-width="5" stroke-linecap="round"/>
    <path d="M671.442 110.442C685.582 127.132 700.934 167.96 649.228 197.748M649.228 197.748L652.956 173.217M649.228 197.748L672.354 199.449" stroke="#FF5A55" stroke-width="5" stroke-linecap="round"/>
    <path d="M324.483 684.285C306.494 671.84 281.064 636.401 323.259 594.206M323.259 594.206L326.031 618.863M323.259 594.206L300.485 598.569" stroke="#FF5A55" stroke-width="5" stroke-linecap="round"/>
    <path d="M59.2654 258.002C59.2654 258.501 59.079 258.98 58.7472 259.333C58.4154 259.686 57.9654 259.885 57.496 259.885C57.0266 259.885 56.5763 259.687 56.2443 259.334C55.9124 258.981 55.7259 258.502 55.7259 258.002C55.7259 257.503 55.9123 257.024 56.2441 256.671C56.5759 256.318 57.0259 256.119 57.4953 256.119C57.9647 256.119 58.415 256.318 58.7469 256.671C59.0789 257.024 59.2654 257.503 59.2654 258.002ZM61.3618 249C60.2962 249 58.902 249.809 57.4921 251.208C56.0829 249.816 54.688 249.017 53.6232 249.017C53.2986 249.017 53.0033 249.095 52.7476 249.251C51.6591 249.919 51.4153 252 51.9773 254.611C49.5675 255.403 48 256.668 48 258.002C48 259.341 49.5754 260.61 51.9924 261.396C51.435 264.017 51.6836 266.101 52.7745 266.768C53.0279 266.926 53.3208 267 53.647 267C54.7118 267 56.1067 266.192 57.5166 264.79C58.9258 266.183 60.3207 266.982 61.3855 266.982C61.7101 266.982 62.0054 266.907 62.2611 266.751C63.3488 266.084 63.5935 264.003 63.0314 261.391C65.4325 260.606 67 259.338 67 258.002C67 256.663 65.4246 255.394 63.0076 254.607C63.565 251.988 63.3164 249.902 62.2255 249.234C61.9617 249.077 61.6643 248.996 61.3618 249ZM61.3578 249.918V249.923C61.5359 249.923 61.6792 249.96 61.7995 250.03C62.3268 250.352 62.5556 251.575 62.3775 253.149C62.3347 253.537 62.265 253.945 62.1795 254.362C61.37 254.154 60.5483 254.003 59.7198 253.912C59.2263 253.188 58.6881 252.5 58.1088 251.852C59.3691 250.605 60.5527 249.921 61.3586 249.919L61.3578 249.918ZM53.6232 249.935C54.4244 249.935 55.6135 250.615 56.877 251.855C56.3339 252.461 55.7924 253.149 55.2778 253.911C54.4475 254.002 53.6241 254.153 52.8133 254.364C52.7283 253.969 52.6612 253.57 52.6123 253.169C52.4302 251.596 52.655 250.373 53.1775 250.047C53.3279 249.971 53.4942 249.939 53.6232 249.935ZM57.4881 252.503C57.8491 252.899 58.208 253.338 58.5648 253.82C58.2165 253.803 57.8602 253.792 57.5 253.792C57.1353 253.791 56.7764 253.801 56.4233 253.82C56.7717 253.339 57.1319 252.898 57.4881 252.503ZM57.5 254.715C58.0858 254.715 58.6693 254.743 59.2433 254.793C59.5652 255.284 59.8774 255.806 60.1798 256.359C60.4738 256.899 60.7424 257.445 60.9857 257.998C60.7419 258.55 60.4743 259.101 60.1838 259.64C59.8829 260.196 59.5718 260.725 59.2496 261.215C58.0876 261.323 56.919 261.325 55.7568 261.219C55.4247 260.711 55.1122 260.188 54.8202 259.653C54.5262 259.113 54.2576 258.567 54.0143 258.014C54.2588 257.453 54.5264 256.904 54.8162 256.369C55.1171 255.813 55.4282 255.286 55.7504 254.795C56.3322 254.741 56.9159 254.713 57.5 254.713V254.715ZM54.6223 254.929C54.4323 255.246 54.2423 255.571 54.065 255.905C53.8876 256.234 53.7201 256.563 53.5623 256.894C53.3525 256.342 53.1743 255.791 53.0271 255.254C53.5338 255.128 54.0681 255.015 54.6223 254.929ZM60.3698 254.929C60.9208 255.014 61.4502 255.123 61.9579 255.254C61.8154 255.787 61.6373 256.334 61.4354 256.882C61.1123 256.212 60.7569 255.56 60.3706 254.929H60.3698ZM62.7947 255.497C63.1784 255.624 63.5412 255.764 63.8832 255.916C65.2544 256.539 66.141 257.355 66.141 258.001C66.1371 258.648 65.2504 259.467 63.8793 260.086C63.5468 260.237 63.1826 260.374 62.8065 260.501C62.5687 259.645 62.2778 258.806 61.9357 257.991C62.292 257.135 62.577 256.299 62.7947 255.495V255.497ZM52.1903 255.5C52.4104 256.309 52.7009 257.148 53.0611 258.01C52.7211 258.82 52.4339 259.654 52.2014 260.506C51.8182 260.379 51.454 260.238 51.1168 260.085C49.7456 259.464 48.859 258.648 48.859 258.001C48.859 257.355 49.7456 256.534 51.1168 255.916C51.4493 255.765 51.8135 255.628 52.1903 255.5ZM61.4354 259.104C61.6452 259.658 61.8233 260.209 61.9705 260.745C61.4639 260.877 60.9287 260.989 60.3745 261.073C60.7602 260.437 61.1137 259.78 61.4354 259.104ZM53.5623 259.121C53.7206 259.451 53.8868 259.781 54.0689 260.111C54.251 260.44 54.437 260.761 54.627 261.073C54.0932 260.991 53.5633 260.883 53.039 260.748C53.1815 260.218 53.3604 259.669 53.5615 259.12L53.5623 259.121ZM62.1867 261.637C62.2753 262.052 62.345 262.452 62.3878 262.835C62.5698 264.408 62.345 265.631 61.8225 265.957C61.7061 266.033 61.5549 266.065 61.3768 266.065C60.5756 266.065 59.3865 265.386 58.123 264.145C58.6661 263.539 59.2076 262.852 59.7222 262.091C60.5986 261.991 61.4275 261.839 62.1867 261.637ZM52.8213 261.645C53.5813 261.842 54.4093 261.995 55.281 262.093C55.8035 262.855 56.3458 263.547 56.892 264.153C55.6293 265.402 54.4442 266.085 53.6383 266.085C53.4861 266.086 53.3359 266.048 53.2005 265.974C52.6732 265.654 52.4444 264.43 52.6225 262.856C52.6653 262.469 52.7358 262.061 52.8213 261.645ZM56.4312 262.184C56.7801 262.202 57.135 262.212 57.496 262.213C57.8607 262.213 58.2196 262.204 58.5727 262.184C58.2244 262.666 57.8642 263.106 57.5079 263.502C57.1469 263.106 56.788 262.666 56.4312 262.184Z" fill="black"/>
    <path d="M116.255 264.844C115.595 265.015 114.898 264.98 114.259 264.743C113.62 264.506 113.069 264.079 112.681 263.519C112.442 263.185 112.272 262.807 112.182 262.407C112.091 262.007 112.082 261.592 112.154 261.189C112.178 261.056 112.212 260.925 112.254 260.797L112.333 260.556L112.548 260.714C113.044 261.078 113.598 261.355 114.188 261.533L114.344 261.58L114.329 261.736C114.31 261.957 114.37 262.178 114.498 262.359C114.615 262.527 114.781 262.656 114.973 262.727C115.166 262.799 115.376 262.81 115.574 262.758C115.665 262.734 115.752 262.696 115.832 262.646L120.024 259.974C120.127 259.91 120.214 259.824 120.282 259.724C120.35 259.624 120.396 259.51 120.417 259.391C120.439 259.269 120.436 259.144 120.409 259.023C120.382 258.903 120.331 258.789 120.259 258.688C120.142 258.519 119.976 258.391 119.783 258.319C119.591 258.248 119.381 258.237 119.183 258.288C119.091 258.312 119.005 258.35 118.925 258.401L117.326 259.421C117.063 259.589 116.776 259.715 116.474 259.795C115.815 259.967 115.118 259.931 114.479 259.695C113.84 259.458 113.289 259.03 112.901 258.471C112.662 258.137 112.492 257.759 112.402 257.358C112.311 256.958 112.302 256.544 112.374 256.14C112.445 255.744 112.598 255.367 112.823 255.034C113.048 254.7 113.34 254.417 113.681 254.203L117.872 251.531C118.135 251.363 118.422 251.236 118.724 251.157C119.383 250.985 120.08 251.02 120.719 251.257C121.358 251.494 121.909 251.922 122.297 252.482C122.536 252.815 122.706 253.193 122.796 253.594C122.887 253.994 122.897 254.408 122.825 254.812C122.8 254.945 122.766 255.075 122.724 255.204L122.645 255.444L122.431 255.287C121.935 254.922 121.38 254.645 120.791 254.467L120.635 254.42L120.65 254.265C120.669 254.043 120.609 253.822 120.48 253.641C120.363 253.473 120.197 253.344 120.004 253.273C119.812 253.202 119.602 253.191 119.404 253.242C119.313 253.266 119.226 253.304 119.147 253.355L114.954 256.026C114.852 256.091 114.764 256.176 114.696 256.277C114.628 256.377 114.582 256.491 114.561 256.61C114.539 256.732 114.542 256.856 114.569 256.977C114.597 257.098 114.648 257.212 114.719 257.313C114.836 257.481 115.002 257.61 115.195 257.681C115.387 257.753 115.597 257.764 115.796 257.712C115.887 257.688 115.974 257.65 116.054 257.599L117.653 256.579C117.915 256.411 118.202 256.285 118.504 256.206C119.163 256.034 119.86 256.069 120.499 256.306C121.138 256.543 121.689 256.97 122.078 257.53C122.316 257.864 122.486 258.242 122.576 258.642C122.667 259.043 122.676 259.457 122.604 259.861C122.533 260.257 122.38 260.634 122.155 260.967C121.93 261.301 121.638 261.584 121.298 261.798L117.106 264.47C116.843 264.638 116.556 264.764 116.255 264.844ZM124.023 251.382C122.352 248.989 119.051 248.28 116.664 249.801L112.472 252.473C111.905 252.829 111.419 253.299 111.045 253.854C110.671 254.409 110.417 255.035 110.3 255.694C110.099 256.803 110.275 257.948 110.799 258.946C110.44 259.49 110.195 260.101 110.079 260.743C109.96 261.415 109.976 262.104 110.126 262.769C110.276 263.434 110.558 264.063 110.955 264.618C112.627 267.011 115.928 267.72 118.314 266.199L122.507 263.528C123.073 263.172 123.559 262.701 123.933 262.147C124.307 261.592 124.561 260.965 124.679 260.307C124.878 259.197 124.703 258.053 124.18 257.055C124.539 256.511 124.783 255.899 124.898 255.258C125.018 254.586 125.002 253.897 124.852 253.231C124.702 252.566 124.42 251.937 124.023 251.382Z" fill="black"/>
    <path d="M98 250H90.1308L88.5 252.81L86.8692 250H79L88.5 266.451L98 250ZM88.5 259.872L83.085 250.491H86.5921L88.5 253.8L90.4079 250.491H93.915L88.5 259.872Z" fill="black"/>
    <defs>
        <filter id="filter0_i_0_1" x="255" y="157" width="429" height="485" filterUnits="userSpaceOnUse" color-interpolation-filters="sRGB">
            <feFlood flood-opacity="0" result="BackgroundImageFix"/>
            <feBlend mode="normal" in="SourceGraphic" in2="BackgroundImageFix" result="shape"/>
            <feColorMatrix in="SourceAlpha" type="matrix" values="0 0 0 0 0 0 0 0 0 0 0 0 0 0 0 0 0 0 127 0" result="hardAlpha"/>
            <feOffset dy="2"/>
            <feGaussianBlur stdDeviation="4"/>
            <feComposite in2="hardAlpha" operator="arithmetic" k2="-1" k3="1"/>
            <feColorMatrix type="matrix" values="0 0 0 0 0 0 0 0 0 0 0 0 0 0 0 0 0 0 0.1 0"/>
            <feBlend mode="normal" in2="shape" result="effect1_innerShadow_0_1"/>
        </filter>
        <filter id="filter1_ddddd_0_1" x="185" y="126" width="569" height="527" filterUnits="userSpaceOnUse" color-interpolation-filters="sRGB">
            <feFlood flood-opacity="0" result="BackgroundImageFix"/>
            <feColorMatrix in="SourceAlpha" type="matrix" values="0 0 0 0 0 0 0 0 0 0 0 0 0 0 0 0 0 0 127 0" result="hardAlpha"/>
            <feOffset dx="2" dy="4"/>
            <feGaussianBlur stdDeviation="2"/>
            <feComposite in2="hardAlpha" operator="out"/>
            <feColorMatrix type="matrix" values="0 0 0 0 0.905892 0 0 0 0 0.905892 0 0 0 0 0.905892 0 0 0 1 0"/>
            <feBlend mode="normal" in2="BackgroundImageFix" result="effect1_dropShadow_0_1"/>
            <feColorMatrix in="SourceAlpha" type="matrix" values="0 0 0 0 0 0 0 0 0 0 0 0 0 0 0 0 0 0 127 0" result="hardAlpha"/>
            <feOffset dx="4" dy="8"/>
            <feGaussianBlur stdDeviation="4"/>
            <feComposite in2="hardAlpha" operator="out"/>
            <feColorMatrix type="matrix" values="0 0 0 0 0.896989 0 0 0 0 0.896989 0 0 0 0 0.896989 0 0 0 1 0"/>
            <feBlend mode="normal" in2="effect1_dropShadow_0_1" result="effect2_dropShadow_0_1"/>
            <feColorMatrix in="SourceAlpha" type="matrix" values="0 0 0 0 0 0 0 0 0 0 0 0 0 0 0 0 0 0 127 0" result="hardAlpha"/>
            <feOffset dx="4" dy="16"/>
            <feGaussianBlur stdDeviation="6"/>
            <feComposite in2="hardAlpha" operator="out"/>
            <feColorMatrix type="matrix" values="0 0 0 0 0.899121 0 0 0 0 0.899121 0 0 0 0 0.899121 0 0 0 1 0"/>
            <feBlend mode="normal" in2="effect2_dropShadow_0_1" result="effect3_dropShadow_0_1"/>
            <feColorMatrix in="SourceAlpha" type="matrix" values="0 0 0 0 0 0 0 0 0 0 0 0 0 0 0 0 0 0 127 0" result="hardAlpha"/>
            <feOffset dy="4"/>
            <feGaussianBlur stdDeviation="50"/>
            <feComposite in2="hardAlpha" operator="out"/>
            <feColorMatrix type="matrix" values="0 0 0 0 1 0 0 0 0 0.352941 0 0 0 0 0.333333 0 0 0 0.3 0"/>
            <feBlend mode="normal" in2="effect3_dropShadow_0_1" result="effect4_dropShadow_0_1"/>
            <feColorMatrix in="SourceAlpha" type="matrix" values="0 0 0 0 0 0 0 0 0 0 0 0 0 0 0 0 0 0 127 0" result="hardAlpha"/>
            <feOffset dx="-5" dy="-5"/>
            <feGaussianBlur stdDeviation="5"/>
            <feComposite in2="hardAlpha" operator="out"/>
            <feColorMatrix type="matrix" values="0 0 0 0 1 0 0 0 0 1 0 0 0 0 1 0 0 0 0.4 0"/>
            <feBlend mode="normal" in2="effect4_dropShadow_0_1" result="effect5_dropShadow_0_1"/>
            <feBlend mode="normal" in="SourceGraphic" in2="effect5_dropShadow_0_1" result="shape"/>
        </filter>
        <filter id="filter2_ddddd_0_1" x="0" y="126" width="315" height="538" filterUnits="userSpaceOnUse" color-interpolation-filters="sRGB">
            <feFlood flood-opacity="0" result="BackgroundImageFix"/>
            <feColorMatrix in="SourceAlpha" type="matrix" values="0 0 0 0 0 0 0 0 0 0 0 0 0 0 0 0 0 0 127 0" result="hardAlpha"/>
            <feOffset dx="2" dy="4"/>
            <feGaussianBlur stdDeviation="2"/>
            <feComposite in2="hardAlpha" operator="out"/>
            <feColorMatrix type="matrix" values="0 0 0 0 0.905892 0 0 0 0 0.905892 0 0 0 0 0.905892 0 0 0 1 0"/>
            <feBlend mode="normal" in2="BackgroundImageFix" result="effect1_dropShadow_0_1"/>
            <feColorMatrix in="SourceAlpha" type="matrix" values="0 0 0 0 0 0 0 0 0 0 0 0 0 0 0 0 0 0 127 0" result="hardAlpha"/>
            <feOffset dx="4" dy="8"/>
            <feGaussianBlur stdDeviation="4"/>
            <feComposite in2="hardAlpha" operator="out"/>
            <feColorMatrix type="matrix" values="0 0 0 0 0.896989 0 0 0 0 0.896989 0 0 0 0 0.896989 0 0 0 1 0"/>
            <feBlend mode="normal" in2="effect1_dropShadow_0_1" result="effect2_dropShadow_0_1"/>
            <feColorMatrix in="SourceAlpha" type="matrix" values="0 0 0 0 0 0 0 0 0 0 0 0 0 0 0 0 0 0 127 0" result="hardAlpha"/>
            <feOffset dx="4" dy="16"/>
            <feGaussianBlur stdDeviation="6"/>
            <feComposite in2="hardAlpha" operator="out"/>
            <feColorMatrix type="matrix" values="0 0 0 0 0.899121 0 0 0 0 0.899121 0 0 0 0 0.899121 0 0 0 1 0"/>
            <feBlend mode="normal" in2="effect2_dropShadow_0_1" result="effect3_dropShadow_0_1"/>
            <feColorMatrix in="SourceAlpha" type="matrix" values="0 0 0 0 0 0 0 0 0 0 0 0 0 0 0 0 0 0 127 0" result="hardAlpha"/>
            <feOffset dy="4"/>
            <feGaussianBlur stdDeviation="50"/>
            <feComposite in2="hardAlpha" operator="out"/>
            <feColorMatrix type="matrix" values="0 0 0 0 1 0 0 0 0 0.352941 0 0 0 0 0.333333 0 0 0 0.3 0"/>
            <feBlend mode="normal" in2="effect3_dropShadow_0_1" result="effect4_dropShadow_0_1"/>
            <feColorMatrix in="SourceAlpha" type="matrix" values="0 0 0 0 0 0 0 0 0 0 0 0 0 0 0 0 0 0 127 0" result="hardAlpha"/>
            <feOffset dx="-5" dy="-5"/>
            <feGaussianBlur stdDeviation="5"/>
            <feComposite in2="hardAlpha" operator="out"/>
            <feColorMatrix type="matrix" values="0 0 0 0 1 0 0 0 0 1 0 0 0 0 1 0 0 0 0.4 0"/>
            <feBlend mode="normal" in2="effect4_dropShadow_0_1" result="effect5_dropShadow_0_1"/>
            <feBlend mode="normal" in="SourceGraphic" in2="effect5_dropShadow_0_1" result="shape"/>
        </filter>
        <filter id="filter3_ddddd_0_1" x="185" y="594" width="569" height="240" filterUnits="userSpaceOnUse" color-interpolation-filters="sRGB">
            <feFlood flood-opacity="0" result="BackgroundImageFix"/>
            <feColorMatrix in="SourceAlpha" type="matrix" values="0 0 0 0 0 0 0 0 0 0 0 0 0 0 0 0 0 0 127 0" result="hardAlpha"/>
            <feOffset dx="2" dy="4"/>
            <feGaussianBlur stdDeviation="2"/>
            <feComposite in2="hardAlpha" operator="out"/>
            <feColorMatrix type="matrix" values="0 0 0 0 0.905892 0 0 0 0 0.905892 0 0 0 0 0.905892 0 0 0 1 0"/>
            <feBlend mode="normal" in2="BackgroundImageFix" result="effect1_dropShadow_0_1"/>
            <feColorMatrix in="SourceAlpha" type="matrix" values="0 0 0 0 0 0 0 0 0 0 0 0 0 0 0 0 0 0 127 0" result="hardAlpha"/>
            <feOffset dx="4" dy="8"/>
            <feGaussianBlur stdDeviation="4"/>
            <feComposite in2="hardAlpha" operator="out"/>
            <feColorMatrix type="matrix" values="0 0 0 0 0.896989 0 0 0 0 0.896989 0 0 0 0 0.896989 0 0 0 1 0"/>
            <feBlend mode="normal" in2="effect1_dropShadow_0_1" result="effect2_dropShadow_0_1"/>
            <feColorMatrix in="SourceAlpha" type="matrix" values="0 0 0 0 0 0 0 0 0 0 0 0 0 0 0 0 0 0 127 0" result="hardAlpha"/>
            <feOffset dx="4" dy="16"/>
            <feGaussianBlur stdDeviation="6"/>
            <feComposite in2="hardAlpha" operator="out"/>
            <feColorMatrix type="matrix" values="0 0 0 0 0.899121 0 0 0 0 0.899121 0 0 0 0 0.899121 0 0 0 1 0"/>
            <feBlend mode="normal" in2="effect2_dropShadow_0_1" result="effect3_dropShadow_0_1"/>
            <feColorMatrix in="SourceAlpha" type="matrix" values="0 0 0 0 0 0 0 0 0 0 0 0 0 0 0 0 0 0 127 0" result="hardAlpha"/>
            <feOffset dy="4"/>
            <feGaussianBlur stdDeviation="50"/>
            <feComposite in2="hardAlpha" operator="out"/>
            <feColorMatrix type="matrix" values="0 0 0 0 1 0 0 0 0 0.352941 0 0 0 0 0.333333 0 0 0 0.3 0"/>
            <feBlend mode="normal" in2="effect3_dropShadow_0_1" result="effect4_dropShadow_0_1"/>
            <feColorMatrix in="SourceAlpha" type="matrix" values="0 0 0 0 0 0 0 0 0 0 0 0 0 0 0 0 0 0 127 0" result="hardAlpha"/>
            <feOffset dx="-5" dy="-5"/>
            <feGaussianBlur stdDeviation="5"/>
            <feComposite in2="hardAlpha" operator="out"/>
            <feColorMatrix type="matrix" values="0 0 0 0 1 0 0 0 0 1 0 0 0 0 1 0 0 0 0.4 0"/>
            <feBlend mode="normal" in2="effect4_dropShadow_0_1" result="effect5_dropShadow_0_1"/>
            <feBlend mode="normal" in="SourceGraphic" in2="effect5_dropShadow_0_1" result="shape"/>
        </filter>
        <filter id="filter4_ddddd_0_1" x="422" y="0" width="362" height="228" filterUnits="userSpaceOnUse" color-interpolation-filters="sRGB">
            <feFlood flood-opacity="0" result="BackgroundImageFix"/>
            <feColorMatrix in="SourceAlpha" type="matrix" values="0 0 0 0 0 0 0 0 0 0 0 0 0 0 0 0 0 0 127 0" result="hardAlpha"/>
            <feOffset dx="2" dy="4"/>
            <feGaussianBlur stdDeviation="2"/>
            <feComposite in2="hardAlpha" operator="out"/>
            <feColorMatrix type="matrix" values="0 0 0 0 0.905892 0 0 0 0 0.905892 0 0 0 0 0.905892 0 0 0 1 0"/>
            <feBlend mode="normal" in2="BackgroundImageFix" result="effect1_dropShadow_0_1"/>
            <feColorMatrix in="SourceAlpha" type="matrix" values="0 0 0 0 0 0 0 0 0 0 0 0 0 0 0 0 0 0 127 0" result="hardAlpha"/>
            <feOffset dx="4" dy="8"/>
            <feGaussianBlur stdDeviation="4"/>
            <feComposite in2="hardAlpha" operator="out"/>
            <feColorMatrix type="matrix" values="0 0 0 0 0.896989 0 0 0 0 0.896989 0 0 0 0 0.896989 0 0 0 1 0"/>
            <feBlend mode="normal" in2="effect1_dropShadow_0_1" result="effect2_dropShadow_0_1"/>
            <feColorMatrix in="SourceAlpha" type="matrix" values="0 0 0 0 0 0 0 0 0 0 0 0 0 0 0 0 0 0 127 0" result="hardAlpha"/>
            <feOffset dx="4" dy="16"/>
            <feGaussianBlur stdDeviation="6"/>
            <feComposite in2="hardAlpha" operator="out"/>
            <feColorMatrix type="matrix" values="0 0 0 0 0.899121 0 0 0 0 0.899121 0 0 0 0 0.899121 0 0 0 1 0"/>
            <feBlend mode="normal" in2="effect2_dropShadow_0_1" result="effect3_dropShadow_0_1"/>
            <feColorMatrix in="SourceAlpha" type="matrix" values="0 0 0 0 0 0 0 0 0 0 0 0 0 0 0 0 0 0 127 0" result="hardAlpha"/>
            <feOffset dy="4"/>
            <feGaussianBlur stdDeviation="50"/>
            <feComposite in2="hardAlpha" operator="out"/>
            <feColorMatrix type="matrix" values="0 0 0 0 1 0 0 0 0 0.352941 0 0 0 0 0.333333 0 0 0 0.3 0"/>
            <feBlend mode="normal" in2="effect3_dropShadow_0_1" result="effect4_dropShadow_0_1"/>
            <feColorMatrix in="SourceAlpha" type="matrix" values="0 0 0 0 0 0 0 0 0 0 0 0 0 0 0 0 0 0 127 0" result="hardAlpha"/>
            <feOffset dx="-5" dy="-5"/>
            <feGaussianBlur stdDeviation="5"/>
            <feComposite in2="hardAlpha" operator="out"/>
            <feColorMatrix type="matrix" values="0 0 0 0 1 0 0 0 0 1 0 0 0 0 1 0 0 0 0.4 0"/>
            <feBlend mode="normal" in2="effect4_dropShadow_0_1" result="effect5_dropShadow_0_1"/>
            <feBlend mode="normal" in="SourceGraphic" in2="effect5_dropShadow_0_1" result="shape"/>
        </filter>
        <clipPath id="clip0_0_1">
            <rect x="255" y="157" width="429" height="483" rx="24.5" fill="white"/>
        </clipPath>
    </defs>
</svg>
