<svg width="28" height="32" viewBox="0 0 28 32" fill="none" xmlns="http://www.w3.org/2000/svg">
    <path d="M14.084 13.8747C13.5203 13.8747 12.9797 14.0986 12.5812 14.4972C12.1826 14.8957 11.9587 15.4363 11.9587 16C11.9587 16.5637 12.1826 17.1043 12.5812 17.5028C12.9797 17.9014 13.5203 18.1253 14.084 18.1253C14.6477 18.1253 15.1883 17.9014 15.5868 17.5028C15.9854 17.1043 16.2093 16.5637 16.2093 16C16.2093 15.4363 15.9854 14.8957 15.5868 14.4972C15.1883 14.0986 14.6477 13.8747 14.084 13.8747ZM21.416 8.10133C21.7035 8.09444 21.991 8.11858 22.2733 8.17333C22.497 8.21717 22.7127 8.29448 22.9133 8.40267C23.0591 8.48432 23.1899 8.59029 23.3 8.716C23.4073 8.83967 23.4909 8.98204 23.5467 9.136C23.6147 9.32994 23.6525 9.53322 23.6587 9.73867C23.668 9.99867 23.6387 10.2693 23.5813 10.5427C23.5045 10.8976 23.3956 11.2448 23.256 11.58C23.0733 12.0253 22.8507 12.46 22.6027 12.884C22.2738 13.4387 21.9107 13.9751 21.5133 14.4933C21.32 14.748 21.1133 14.9947 20.9067 15.2413C20.6142 14.924 20.3151 14.6129 20.0093 14.308C19.1444 13.4582 18.2318 12.6582 17.276 11.912L17.252 11.8933L16.6373 12.6827L16.6613 12.7013C17.5868 13.4234 18.47 14.198 19.3067 15.0213C19.6276 15.3369 19.94 15.6613 20.244 15.9947C20.112 16.1387 19.9853 16.288 19.8493 16.4293C19.7169 16.568 19.5831 16.7049 19.448 16.84L20.1547 17.5467C20.296 17.4062 20.4351 17.264 20.572 17.12C20.6853 17.0027 20.7907 16.8773 20.9027 16.7573C20.9893 16.8613 21.0827 16.96 21.1667 17.0653C21.6039 17.6015 22.0086 18.1634 22.3787 18.748C22.66 19.196 22.9173 19.656 23.1307 20.1293C23.2914 20.4757 23.4221 20.8353 23.5213 21.204C23.5971 21.4814 23.6427 21.7662 23.6573 22.0533C23.668 22.2907 23.648 22.5213 23.5907 22.7307C23.547 22.8917 23.4762 23.0441 23.3813 23.1813C23.2877 23.3154 23.1688 23.4311 23.0333 23.5227C22.8617 23.6357 22.6738 23.7216 22.476 23.7773C22.2253 23.8493 21.956 23.8853 21.676 23.8973C21.3213 23.9107 20.9587 23.884 20.5907 23.8307C20.1098 23.7575 19.6344 23.6514 19.168 23.5133C18.5493 23.3307 17.9413 23.104 17.3427 22.8467H17.3413C16.5615 22.5052 15.8005 22.1224 15.0613 21.7L15.028 21.68C15.7998 21.1818 16.5499 20.6507 17.276 20.088L16.996 19.728L17.2773 20.088L17.3013 20.068L16.684 19.2813L16.6613 19.3C15.737 20.0237 14.7718 20.6937 13.7707 21.3067C12.9831 21.7876 12.1699 22.2251 11.3347 22.6173C10.7088 22.9115 10.0659 23.168 9.40933 23.3853C8.91096 23.55 8.40231 23.6819 7.88667 23.78C7.51169 23.8525 7.13118 23.8927 6.74933 23.9C6.46175 23.9065 6.17431 23.8819 5.892 23.8267C5.66835 23.7828 5.45259 23.7055 5.252 23.5973C4.95905 23.4383 4.73394 23.1781 4.61867 22.8653C4.55045 22.671 4.51267 22.4672 4.50667 22.2613C4.49976 21.9912 4.52573 21.7212 4.584 21.4573C4.65733 21.1093 4.77067 20.764 4.91067 20.4213C5.09844 19.9723 5.31672 19.5366 5.564 19.1173C6.05635 18.2823 6.62357 17.4937 7.25867 16.7613C7.568 17.0964 7.88444 17.424 8.208 17.744C9.0612 18.578 9.96038 19.3637 10.9013 20.0973L11.516 19.3093C10.6049 18.5995 9.73462 17.8387 8.90933 17.0307C8.57067 16.6973 8.24133 16.3556 7.92133 16.0053C8.052 15.8596 8.18311 15.7151 8.31467 15.572C8.45108 15.4298 8.58887 15.2889 8.728 15.1493L8.02133 14.4427C7.87733 14.5876 7.73467 14.7333 7.59333 14.88C7.48 14.9987 7.37333 15.124 7.26267 15.244C7.18933 15.156 7.11067 15.0733 7.03733 14.984C6.59924 14.4458 6.19149 13.8836 5.816 13.3C5.532 12.855 5.27767 12.3918 5.05467 11.9133C4.88473 11.5539 4.7473 11.1799 4.644 10.796C4.56827 10.5186 4.52267 10.2338 4.508 9.94667C4.49614 9.71926 4.51861 9.49137 4.57467 9.27067C4.62 9.10444 4.68978 8.95378 4.784 8.81867C4.87467 8.688 4.996 8.57067 5.132 8.47733C5.30409 8.36466 5.49252 8.27921 5.69067 8.224C5.95104 8.15178 6.21923 8.11148 6.48933 8.104C6.85229 8.09316 7.2155 8.11458 7.57467 8.168C8.05563 8.24209 8.53097 8.34901 8.99733 8.488C9.61872 8.67303 10.2283 8.89567 10.8227 9.15467C11.6158 9.49865 12.3886 9.88773 13.1373 10.32C12.3617 10.8214 11.6081 11.3561 10.8787 11.9227L11.4947 12.7093C12.4033 11.9968 13.3515 11.3362 14.3347 10.7307C15.1233 10.2464 15.9378 9.80577 16.7747 9.41067C17.4067 9.11467 18.0493 8.85067 18.7053 8.63333C19.2052 8.46523 19.7157 8.33028 20.2333 8.22933C20.6307 8.15467 21.0267 8.10667 21.416 8.10133ZM21.4027 7.10133C20.9487 7.11088 20.4951 7.15905 20.0493 7.24533C19.4872 7.35574 18.9327 7.50227 18.3893 7.684C17.6942 7.9175 17.0135 8.19175 16.3507 8.50533C15.5733 8.868 14.8227 9.28133 14.0893 9.71867C13.1673 9.16058 12.2087 8.66523 11.22 8.236C10.588 7.96165 9.94016 7.72523 9.28 7.528C8.76811 7.37442 8.24589 7.25768 7.71733 7.17867C7.2984 7.11401 6.87426 7.08945 6.45067 7.10533C6.112 7.11867 5.76267 7.16267 5.416 7.26133C5.11421 7.34586 4.82791 7.4782 4.568 7.65333C4.0965 7.97375 3.75692 8.454 3.612 9.00533C3.52711 9.3256 3.49248 9.65711 3.50933 9.988C3.52676 10.3478 3.58355 10.7046 3.67867 11.052C3.79804 11.4907 3.95461 11.9185 4.14667 12.3307C4.38964 12.8492 4.66576 13.3516 4.97333 13.8347C5.36778 14.4528 5.7983 15.0472 6.26267 15.6147C6.36933 15.7453 6.484 15.868 6.59333 15.996C6.33979 16.291 6.09437 16.5929 5.85733 16.9013C5.44267 17.4453 5.052 18.0133 4.70133 18.6107C4.4283 19.0707 4.18857 19.5497 3.984 20.044C3.82219 20.4354 3.69591 20.8406 3.60667 21.2547C3.53153 21.5969 3.49884 21.9471 3.50933 22.2973C3.51777 22.6104 3.57629 22.9201 3.68267 23.2147V23.216C3.88068 23.7498 4.26399 24.1946 4.76267 24.4693C5.0531 24.6292 5.36662 24.743 5.692 24.8067C6.0453 24.8769 6.40522 24.9082 6.76533 24.9C7.20254 24.8903 7.63822 24.8449 8.068 24.764L8.06933 24.7627C8.62988 24.6599 9.18239 24.5173 9.72267 24.336C10.4162 24.105 11.0956 23.8334 11.7573 23.5227C12.5525 23.1499 13.3278 22.736 14.08 22.2827C14.2409 22.3787 14.4036 22.4738 14.568 22.568C15.3386 23.0109 16.1331 23.4106 16.948 23.7653C17.58 24.0392 18.2279 24.2752 18.888 24.472C19.3947 24.6213 19.9173 24.744 20.4507 24.8213C20.8698 24.8842 21.2937 24.9091 21.7173 24.896C22.056 24.8827 22.4053 24.8373 22.752 24.7387C23.0427 24.6547 23.3333 24.5307 23.6 24.3467C24.0706 24.0254 24.41 23.5455 24.556 22.9947C24.6467 22.664 24.672 22.332 24.6587 22.0133C24.6413 21.6531 24.5845 21.2959 24.4893 20.948C24.3743 20.5263 24.2249 20.1147 24.0427 19.7173C23.8031 19.1995 23.5305 18.6976 23.2267 18.2147C22.8332 17.5993 22.4064 17.006 21.948 16.4373C21.828 16.2893 21.6973 16.1493 21.5747 16.0053C21.8271 15.7102 22.0724 15.4084 22.3107 15.1C22.7253 14.5547 23.116 13.9867 23.4667 13.3893C23.7397 12.9293 23.9794 12.4503 24.184 11.956C24.3457 11.565 24.472 11.1603 24.5613 10.7467C24.632 10.4133 24.672 10.0627 24.6587 9.70267C24.6502 9.3896 24.5917 9.0799 24.4853 8.78533V8.784C24.2873 8.25021 23.904 7.80538 23.4053 7.53067C23.1148 7.37122 22.8013 7.25787 22.476 7.19467C22.1227 7.12446 21.7628 7.09317 21.4027 7.10133ZM14.084 0L27.94 8V24L14.084 32L0.226665 24V8L14.084 0Z" fill="black"/>
</svg>
