<svg width="33" height="29" viewBox="0 0 33 29" fill="none" xmlns="http://www.w3.org/2000/svg">
    <path d="M19.0566 14.2536C19.0566 15.0441 18.7427 15.8022 18.1839 16.3612C17.6251 16.9203 16.8671 17.2346 16.0766 17.2349C15.2859 17.2349 14.5276 16.9208 13.9685 16.3617C13.4094 15.8026 13.0953 15.0443 13.0953 14.2536C13.0953 13.4631 13.4092 12.705 13.9681 12.1459C14.5269 11.5869 15.2848 11.2726 16.0753 11.2723C16.866 11.2723 17.6243 11.5864 18.1834 12.1455C18.7425 12.7046 19.0566 13.4629 19.0566 14.2536ZM22.5873 0.000258446C20.7926 0.000258446 18.4446 1.28026 16.07 3.49626C13.6966 1.29226 11.3473 0.0269251 9.55398 0.0269251C9.00731 0.0269251 8.50998 0.150925 8.07931 0.397592C6.24598 1.45493 5.83531 4.74959 6.78198 8.88426C2.72331 10.1376 0.083313 12.1416 0.083313 14.2536C0.083313 16.3736 2.73665 18.3829 6.80731 19.6269C5.86865 23.7776 6.28731 27.0776 8.12465 28.1336C8.55131 28.3829 9.04465 28.5003 9.59398 28.5003C11.3873 28.5003 13.7366 27.2203 16.1113 25.0016C18.4846 27.2069 20.834 28.4723 22.6273 28.4723C23.174 28.4723 23.6713 28.3523 24.102 28.1056C25.934 27.0496 26.346 23.7549 25.3993 19.6189C29.4433 18.3763 32.0833 16.3683 32.0833 14.2536C32.0833 12.1336 29.43 10.1243 25.3593 8.87759C26.298 4.73093 25.8793 1.42826 24.042 0.370925C23.5978 0.121316 23.0968 -0.0065512 22.5873 0.000258446ZM22.5806 1.45359V1.46159C22.8806 1.46159 23.122 1.52026 23.3246 1.63093C24.2126 2.14026 24.598 4.07759 24.298 6.56959C24.226 7.18293 24.1086 7.82959 23.9646 8.48959C22.6012 8.1598 21.2172 7.92193 19.822 7.77759C18.9907 6.6312 18.0843 5.54125 17.1086 4.51493C19.2313 2.54159 21.2246 1.45893 22.582 1.45493L22.5806 1.45359ZM9.55398 1.48026C10.9033 1.48026 12.906 2.55759 15.034 4.52026C14.1193 5.48026 13.2073 6.56959 12.3406 7.77626C10.9423 7.91996 9.55546 8.15963 8.18998 8.49359C8.04679 7.86828 7.93377 7.23644 7.85131 6.60026C7.54465 4.10959 7.92331 2.17359 8.80331 1.65759C9.05665 1.53759 9.33665 1.48693 9.55398 1.48026ZM16.0633 5.54693C16.6713 6.1727 17.2758 6.86781 17.8766 7.63226C17.29 7.60559 16.69 7.58693 16.0833 7.58693C15.4691 7.58604 14.8646 7.60115 14.27 7.63226C14.8566 6.86959 15.4633 6.17226 16.0633 5.54693ZM16.0833 9.04826C17.07 9.04826 18.0526 9.09359 19.0193 9.17226C19.5615 9.94915 20.0873 10.7758 20.5966 11.6523C21.0918 12.5065 21.5442 13.3714 21.954 14.2469C21.5433 15.1203 21.0926 15.9936 20.6033 16.8469C20.0966 17.7269 19.5726 18.5643 19.03 19.3403C17.0729 19.5118 15.1047 19.514 13.1473 19.3469C12.588 18.5421 12.0618 17.7147 11.57 16.8669C11.0749 16.0127 10.6224 15.1478 10.2126 14.2723C10.6244 13.3844 11.0751 12.5151 11.5633 11.6669C12.07 10.7869 12.594 9.95226 13.1366 9.17626C14.1165 9.08925 15.0996 9.04565 16.0833 9.04559V9.04826ZM11.2366 9.38693C10.9166 9.88959 10.5966 10.4043 10.298 10.9336C9.99931 11.4536 9.71709 11.9754 9.45131 12.4989C9.09798 11.6243 8.79798 10.7523 8.54998 9.90293C9.40331 9.70293 10.3033 9.52426 11.2366 9.38693ZM20.9166 9.38693C21.8446 9.52293 22.7362 9.69493 23.5913 9.90293C23.3513 10.7456 23.0513 11.6123 22.7113 12.4803C22.1671 11.419 21.5686 10.3865 20.918 9.38693H20.9166ZM25.0006 10.2869C25.6469 10.4878 26.258 10.7091 26.834 10.9509C29.1433 11.9376 30.6366 13.2283 30.6366 14.2523C30.63 15.2763 29.1366 16.5723 26.8273 17.5523C26.2673 17.7923 25.654 18.0083 25.0206 18.2096C24.62 16.8542 24.1301 15.5269 23.554 14.2363C24.154 12.8803 24.634 11.5563 25.0006 10.2843V10.2869ZM7.14065 10.2923C7.51131 11.5723 8.00065 12.9016 8.60731 14.2656C8.03471 15.5482 7.5509 16.8687 7.15931 18.2176C6.51398 18.0176 5.90065 17.7936 5.33265 17.5509C3.02331 16.5683 1.52998 15.2763 1.52998 14.2523C1.52998 13.2283 3.02331 11.9296 5.33265 10.9509C5.89265 10.7109 6.50598 10.4949 7.14065 10.2923ZM22.7113 15.9989C23.0646 16.8749 23.3646 17.7483 23.6126 18.5963C22.7593 18.8056 21.858 18.9829 20.9246 19.1163C21.5741 18.1088 22.1696 17.0682 22.7113 15.9989ZM9.45131 16.0256C9.71798 16.5483 9.99798 17.0696 10.3046 17.5923C10.6113 18.1131 10.9246 18.6211 11.2446 19.1163C10.3456 18.9862 9.45308 18.8145 8.56998 18.6016C8.80998 17.7616 9.11131 16.8923 9.44998 16.0243L9.45131 16.0256ZM23.9766 20.0083C24.126 20.6656 24.2433 21.2989 24.3153 21.9056C24.622 24.3963 24.2433 26.3323 23.3633 26.8496C23.1673 26.9696 22.9126 27.0203 22.6126 27.0203C21.2633 27.0203 19.2606 25.9443 17.1326 23.9803C18.0473 23.0203 18.9593 21.9323 19.826 20.7269C21.302 20.5696 22.698 20.3283 23.9766 20.0083ZM8.20331 20.0216C9.48331 20.3336 10.878 20.5749 12.346 20.7309C13.226 21.9376 14.1393 23.0336 15.0593 23.9923C12.9326 25.9696 10.9366 27.0523 9.57931 27.0523C9.32299 27.0535 9.07011 26.9931 8.84198 26.8763C7.95398 26.3696 7.56865 24.4309 7.86865 21.9389C7.94065 21.3256 8.05931 20.6803 8.20331 20.0216ZM14.2833 20.8749C14.8709 20.9034 15.4686 20.9185 16.0766 20.9203C16.6909 20.9211 17.2953 20.906 17.89 20.8749C17.3033 21.6376 16.6966 22.3349 16.0966 22.9616C15.4886 22.334 14.8842 21.6385 14.2833 20.8749Z" fill="black"/>
</svg>