<svg width="28" height="32" viewBox="0 0 28 32" fill="none" xmlns="http://www.w3.org/2000/svg">
    <path d="M11.5558 28.1672C10.3829 28.4719 9.14484 28.4094 8.00868 27.9881C6.87251 27.5668 5.893 26.8069 5.20243 25.8112C4.7777 25.2181 4.47596 24.5461 4.31498 23.8346C4.154 23.1231 4.13704 22.3867 4.2651 21.6685C4.30894 21.4328 4.36863 21.2002 4.44376 20.9725L4.58376 20.5445L4.96643 20.8245C5.84793 21.4724 6.83368 21.9648 7.8811 22.2805L8.15843 22.3645L8.13176 22.6419C8.09812 23.0348 8.20489 23.4269 8.4331 23.7485C8.64129 24.0482 8.93624 24.2769 9.27829 24.404C9.62035 24.531 9.9931 24.5503 10.3464 24.4592C10.5084 24.4169 10.6627 24.3494 10.8038 24.2592L18.2571 19.5099C18.4394 19.3951 18.5956 19.2436 18.716 19.065C18.8363 18.8863 18.9179 18.6845 18.9558 18.4725C18.9943 18.256 18.9893 18.034 18.941 17.8195C18.8927 17.605 18.802 17.4023 18.6744 17.2232C18.4662 16.9235 18.1713 16.6948 17.8292 16.5678C17.4872 16.4407 17.1144 16.4214 16.7611 16.5125C16.5991 16.5549 16.4448 16.6223 16.3038 16.7125L13.4598 18.5259C12.993 18.8249 12.4824 19.0494 11.9464 19.1912C10.7737 19.4961 9.53574 19.4338 8.39959 19.0127C7.26343 18.5916 6.28385 17.832 5.5931 16.8365C5.16842 16.2432 4.86682 15.5709 4.70607 14.8592C4.54532 14.1475 4.52867 13.4108 4.6571 12.6925C4.78386 11.9888 5.05587 11.3193 5.45577 10.7265C5.85568 10.1338 6.37471 9.63087 6.97976 9.24986L14.4318 4.49919C14.8986 4.20011 15.4091 3.97564 15.9451 3.83386C17.1179 3.52913 18.356 3.59164 19.4922 4.01297C20.6283 4.43429 21.6079 5.19412 22.2984 6.18986C22.7232 6.78291 23.0249 7.45497 23.1859 8.16644C23.3469 8.87791 23.3638 9.6144 23.2358 10.3325C23.1919 10.5683 23.1322 10.8008 23.0571 11.0285L22.9171 11.4565L22.5358 11.1765C21.654 10.5281 20.6677 10.0352 19.6198 9.71919L19.3424 9.63519L19.3691 9.35919C19.4031 8.96583 19.2963 8.57318 19.0678 8.25119C18.8594 7.95177 18.5644 7.72331 18.2223 7.5965C17.8803 7.4697 17.5076 7.45063 17.1544 7.54186C16.9925 7.58419 16.8381 7.65168 16.6971 7.74186L9.24376 12.4912C9.0615 12.6059 8.90521 12.7575 8.7849 12.9361C8.66459 13.1147 8.58291 13.3165 8.5451 13.5285C8.50655 13.745 8.51158 13.967 8.55989 14.1815C8.6082 14.3961 8.69881 14.5988 8.82643 14.7779C9.03462 15.0775 9.32958 15.3063 9.67163 15.4333C10.0137 15.5603 10.3864 15.5796 10.7398 15.4885C10.9023 15.4459 11.0571 15.378 11.1984 15.2872L14.0411 13.4739C14.508 13.1752 15.0185 12.9512 15.5544 12.8099C16.7271 12.505 17.9651 12.5673 19.1013 12.9884C20.2374 13.4095 21.217 14.169 21.9078 15.1645C22.3324 15.7578 22.634 16.4302 22.7948 17.1419C22.9555 17.8536 22.9722 18.5903 22.8438 19.3085C22.7172 20.0125 22.4452 20.6823 22.0453 21.2753C21.6454 21.8683 21.1263 22.3714 20.5211 22.7525L13.0691 27.5019C12.6023 27.8009 12.0917 28.0254 11.5558 28.1672ZM25.3664 4.23386C22.3958 -0.0194736 16.5264 -1.27947 12.2838 1.42453L4.83043 6.17386C3.82324 6.80658 2.95944 7.64287 2.29448 8.62907C1.62951 9.61527 1.17806 10.7296 0.969095 11.9005C0.613155 13.8728 0.925666 15.9074 1.8571 17.6819C1.21789 18.6488 0.782366 19.7358 0.577095 20.8765C0.364805 22.0707 0.393209 23.2953 0.660639 24.4783C0.928069 25.6614 1.42914 26.7791 2.13443 27.7659C5.10643 32.0192 10.9744 33.2792 15.2171 30.5765L22.6704 25.8272C23.6776 25.1945 24.5414 24.3582 25.2064 23.372C25.8713 22.3858 26.3228 21.2715 26.5318 20.1005C26.8871 18.1284 26.5751 16.0942 25.6451 14.3192C26.2834 13.3521 26.718 12.2651 26.9224 11.1245C27.1351 9.93022 27.107 8.70547 26.8398 7.52217C26.5726 6.33888 26.0717 5.22089 25.3664 4.23386Z" fill="black"/>
</svg>
