<svg width="430" height="271" viewBox="0 0 430 271" fill="none" xmlns="http://www.w3.org/2000/svg">
    <g filter="url(#filter0_i_276_159)">
        <g clip-path="url(#clip0_276_159)">
            <rect x="1" y="89" width="429" height="182" rx="24.5" fill="white"/>
            <g filter="url(#filter1_ddddd_276_159)">
                <rect x="31.5" y="119.5" width="114.667" height="125" rx="9.5" fill="#FAEEEE"/>
                <rect x="31.5" y="119.5" width="114.667" height="125" rx="9.5" stroke="#EEEBE2"/>
                <g opacity="0.5">
                    <g clip-path="url(#clip1_276_159)">
                        <rect x="46.3333" y="166" width="85" height="32" rx="16" fill="#333333"/>
                        <path d="M79.6336 184.17C79.6336 184.437 79.5803 184.683 79.4736 184.91C79.367 185.13 79.2236 185.323 79.0436 185.49C78.8636 185.65 78.6536 185.777 78.4136 185.87C78.1736 185.957 77.917 186 77.6436 186H74.3036V178.9H77.7136C77.9603 178.9 78.1836 178.953 78.3836 179.06C78.5836 179.167 78.7536 179.307 78.8936 179.48C79.0336 179.647 79.1403 179.84 79.2136 180.06C79.2936 180.273 79.3336 180.49 79.3336 180.71C79.3336 181.07 79.2436 181.4 79.0636 181.7C78.8836 181.993 78.6336 182.213 78.3136 182.36C78.7203 182.48 79.0403 182.703 79.2736 183.03C79.5136 183.357 79.6336 183.737 79.6336 184.17ZM78.9336 184.05C78.9336 183.877 78.9036 183.71 78.8436 183.55C78.7836 183.383 78.697 183.24 78.5836 183.12C78.477 182.993 78.347 182.893 78.1936 182.82C78.047 182.74 77.887 182.7 77.7136 182.7H74.9936V185.39H77.6436C77.8236 185.39 77.9936 185.353 78.1536 185.28C78.3136 185.207 78.4503 185.11 78.5636 184.99C78.677 184.863 78.767 184.72 78.8336 184.56C78.9003 184.393 78.9336 184.223 78.9336 184.05ZM74.9936 179.51V182.13H77.4336C77.607 182.13 77.767 182.093 77.9136 182.02C78.067 181.947 78.197 181.85 78.3036 181.73C78.417 181.61 78.5036 181.473 78.5636 181.32C78.6236 181.16 78.6536 180.993 78.6536 180.82C78.6536 180.64 78.6236 180.47 78.5636 180.31C78.5103 180.15 78.4303 180.013 78.3236 179.9C78.2236 179.78 78.1003 179.687 77.9536 179.62C77.8136 179.547 77.6603 179.51 77.4936 179.51H74.9936ZM82.4135 186.1C81.8669 186.1 81.4535 185.913 81.1735 185.54C80.8935 185.16 80.7535 184.597 80.7535 183.85V180.79H81.4335V183.73C81.4335 184.91 81.8369 185.5 82.6435 185.5C82.8435 185.5 83.0402 185.467 83.2335 185.4C83.4269 185.333 83.6035 185.237 83.7635 185.11C83.9302 184.983 84.0769 184.833 84.2035 184.66C84.3369 184.487 84.4435 184.29 84.5235 184.07V180.79H85.2035V185.12C85.2035 185.307 85.2869 185.4 85.4535 185.4V186C85.3202 186.02 85.2269 186.03 85.1735 186.03C85.0202 186.03 84.8869 185.983 84.7735 185.89C84.6669 185.797 84.6135 185.68 84.6135 185.54V184.82C84.3802 185.227 84.0702 185.543 83.6835 185.77C83.2969 185.99 82.8735 186.1 82.4135 186.1ZM89.2513 185.75C89.2113 185.77 89.1513 185.797 89.0713 185.83C88.9979 185.863 88.9113 185.897 88.8113 185.93C88.7113 185.963 88.5979 185.993 88.4713 186.02C88.3446 186.047 88.2113 186.06 88.0713 186.06C87.9246 186.06 87.7846 186.04 87.6513 186C87.5179 185.96 87.4013 185.9 87.3013 185.82C87.2013 185.733 87.1213 185.627 87.0613 185.5C87.0013 185.373 86.9713 185.227 86.9713 185.06V181.33H86.2513V180.79H86.9713V179.03H87.6513V180.79H88.8513V181.33H87.6513V184.87C87.6646 185.063 87.7313 185.207 87.8513 185.3C87.9713 185.387 88.1146 185.43 88.2813 185.43C88.4746 185.43 88.6446 185.4 88.7913 185.34C88.9379 185.273 89.0313 185.227 89.0713 185.2L89.2513 185.75ZM92.5618 185.75C92.5218 185.77 92.4618 185.797 92.3818 185.83C92.3085 185.863 92.2218 185.897 92.1218 185.93C92.0218 185.963 91.9085 185.993 91.7818 186.02C91.6552 186.047 91.5218 186.06 91.3818 186.06C91.2352 186.06 91.0952 186.04 90.9618 186C90.8285 185.96 90.7118 185.9 90.6118 185.82C90.5118 185.733 90.4318 185.627 90.3718 185.5C90.3118 185.373 90.2818 185.227 90.2818 185.06V181.33H89.5618V180.79H90.2818V179.03H90.9618V180.79H92.1618V181.33H90.9618V184.87C90.9752 185.063 91.0418 185.207 91.1618 185.3C91.2818 185.387 91.4252 185.43 91.5918 185.43C91.7852 185.43 91.9552 185.4 92.1018 185.34C92.2485 185.273 92.3418 185.227 92.3818 185.2L92.5618 185.75ZM95.5047 186.1C95.1247 186.1 94.7747 186.03 94.4547 185.89C94.1414 185.743 93.8681 185.547 93.6347 185.3C93.4081 185.053 93.2314 184.767 93.1047 184.44C92.9781 184.113 92.9147 183.77 92.9147 183.41C92.9147 183.043 92.9781 182.697 93.1047 182.37C93.2381 182.043 93.4181 181.757 93.6447 181.51C93.8781 181.263 94.1514 181.067 94.4647 180.92C94.7847 180.773 95.1314 180.7 95.5047 180.7C95.8781 180.7 96.2214 180.773 96.5347 180.92C96.8547 181.067 97.1281 181.263 97.3547 181.51C97.5881 181.757 97.7681 182.043 97.8947 182.37C98.0281 182.697 98.0947 183.043 98.0947 183.41C98.0947 183.77 98.0281 184.113 97.8947 184.44C97.7681 184.767 97.5881 185.053 97.3547 185.3C97.1281 185.547 96.8547 185.743 96.5347 185.89C96.2214 186.03 95.8781 186.1 95.5047 186.1ZM93.6147 183.42C93.6147 183.713 93.6614 183.987 93.7547 184.24C93.8547 184.487 93.9881 184.707 94.1547 184.9C94.3281 185.087 94.5281 185.233 94.7547 185.34C94.9881 185.447 95.2347 185.5 95.4947 185.5C95.7547 185.5 95.9981 185.447 96.2247 185.34C96.4581 185.227 96.6614 185.077 96.8347 184.89C97.0081 184.697 97.1447 184.473 97.2447 184.22C97.3447 183.967 97.3947 183.693 97.3947 183.4C97.3947 183.113 97.3447 182.843 97.2447 182.59C97.1447 182.33 97.0081 182.107 96.8347 181.92C96.6614 181.727 96.4614 181.577 96.2347 181.47C96.0081 181.357 95.7647 181.3 95.5047 181.3C95.2447 181.3 94.9981 181.357 94.7647 181.47C94.5381 181.577 94.3381 181.727 94.1647 181.92C93.9981 182.113 93.8647 182.34 93.7647 182.6C93.6647 182.853 93.6147 183.127 93.6147 183.42ZM103.582 186H102.902V183.09C102.902 182.47 102.812 182.02 102.632 181.74C102.452 181.46 102.172 181.32 101.792 181.32C101.592 181.32 101.392 181.357 101.192 181.43C100.992 181.503 100.805 181.607 100.632 181.74C100.459 181.873 100.305 182.033 100.172 182.22C100.045 182.4 99.9487 182.597 99.882 182.81V186H99.202V180.79H99.822V181.97C99.9287 181.783 100.059 181.613 100.212 181.46C100.372 181.3 100.549 181.163 100.742 181.05C100.935 180.937 101.139 180.85 101.352 180.79C101.572 180.73 101.799 180.7 102.032 180.7C102.325 180.7 102.569 180.753 102.762 180.86C102.962 180.967 103.122 181.117 103.242 181.31C103.362 181.503 103.449 181.74 103.502 182.02C103.555 182.3 103.582 182.61 103.582 182.95V186Z" fill="white"/>
                    </g>
                </g>
                <rect x="158.167" y="119.5" width="114.667" height="125" rx="9.5" fill="#FAEEEE"/>
                <rect x="158.167" y="119.5" width="114.667" height="125" rx="9.5" stroke="#EEEBE2"/>
                <g opacity="0.5">
                    <g clip-path="url(#clip2_276_159)">
                        <rect x="173" y="166" width="85" height="32" rx="16" fill="#333333"/>
                        <path d="M206.3 184.17C206.3 184.437 206.247 184.683 206.14 184.91C206.034 185.13 205.89 185.323 205.71 185.49C205.53 185.65 205.32 185.777 205.08 185.87C204.84 185.957 204.584 186 204.31 186H200.97V178.9H204.38C204.627 178.9 204.85 178.953 205.05 179.06C205.25 179.167 205.42 179.307 205.56 179.48C205.7 179.647 205.807 179.84 205.88 180.06C205.96 180.273 206 180.49 206 180.71C206 181.07 205.91 181.4 205.73 181.7C205.55 181.993 205.3 182.213 204.98 182.36C205.387 182.48 205.707 182.703 205.94 183.03C206.18 183.357 206.3 183.737 206.3 184.17ZM205.6 184.05C205.6 183.877 205.57 183.71 205.51 183.55C205.45 183.383 205.364 183.24 205.25 183.12C205.144 182.993 205.014 182.893 204.86 182.82C204.714 182.74 204.554 182.7 204.38 182.7H201.66V185.39H204.31C204.49 185.39 204.66 185.353 204.82 185.28C204.98 185.207 205.117 185.11 205.23 184.99C205.344 184.863 205.434 184.72 205.5 184.56C205.567 184.393 205.6 184.223 205.6 184.05ZM201.66 179.51V182.13H204.1C204.274 182.13 204.434 182.093 204.58 182.02C204.734 181.947 204.864 181.85 204.97 181.73C205.084 181.61 205.17 181.473 205.23 181.32C205.29 181.16 205.32 180.993 205.32 180.82C205.32 180.64 205.29 180.47 205.23 180.31C205.177 180.15 205.097 180.013 204.99 179.9C204.89 179.78 204.767 179.687 204.62 179.62C204.48 179.547 204.327 179.51 204.16 179.51H201.66ZM209.08 186.1C208.534 186.1 208.12 185.913 207.84 185.54C207.56 185.16 207.42 184.597 207.42 183.85V180.79H208.1V183.73C208.1 184.91 208.504 185.5 209.31 185.5C209.51 185.5 209.707 185.467 209.9 185.4C210.094 185.333 210.27 185.237 210.43 185.11C210.597 184.983 210.744 184.833 210.87 184.66C211.004 184.487 211.11 184.29 211.19 184.07V180.79H211.87V185.12C211.87 185.307 211.954 185.4 212.12 185.4V186C211.987 186.02 211.894 186.03 211.84 186.03C211.687 186.03 211.554 185.983 211.44 185.89C211.334 185.797 211.28 185.68 211.28 185.54V184.82C211.047 185.227 210.737 185.543 210.35 185.77C209.964 185.99 209.54 186.1 209.08 186.1ZM215.918 185.75C215.878 185.77 215.818 185.797 215.738 185.83C215.665 185.863 215.578 185.897 215.478 185.93C215.378 185.963 215.265 185.993 215.138 186.02C215.011 186.047 214.878 186.06 214.738 186.06C214.591 186.06 214.451 186.04 214.318 186C214.185 185.96 214.068 185.9 213.968 185.82C213.868 185.733 213.788 185.627 213.728 185.5C213.668 185.373 213.638 185.227 213.638 185.06V181.33H212.918V180.79H213.638V179.03H214.318V180.79H215.518V181.33H214.318V184.87C214.331 185.063 214.398 185.207 214.518 185.3C214.638 185.387 214.781 185.43 214.948 185.43C215.141 185.43 215.311 185.4 215.458 185.34C215.605 185.273 215.698 185.227 215.738 185.2L215.918 185.75ZM219.229 185.75C219.189 185.77 219.129 185.797 219.049 185.83C218.975 185.863 218.889 185.897 218.789 185.93C218.689 185.963 218.575 185.993 218.449 186.02C218.322 186.047 218.189 186.06 218.049 186.06C217.902 186.06 217.762 186.04 217.629 186C217.495 185.96 217.379 185.9 217.279 185.82C217.179 185.733 217.099 185.627 217.039 185.5C216.979 185.373 216.949 185.227 216.949 185.06V181.33H216.229V180.79H216.949V179.03H217.629V180.79H218.829V181.33H217.629V184.87C217.642 185.063 217.709 185.207 217.829 185.3C217.949 185.387 218.092 185.43 218.259 185.43C218.452 185.43 218.622 185.4 218.769 185.34C218.915 185.273 219.009 185.227 219.049 185.2L219.229 185.75ZM222.171 186.1C221.791 186.1 221.441 186.03 221.121 185.89C220.808 185.743 220.535 185.547 220.301 185.3C220.075 185.053 219.898 184.767 219.771 184.44C219.645 184.113 219.581 183.77 219.581 183.41C219.581 183.043 219.645 182.697 219.771 182.37C219.905 182.043 220.085 181.757 220.311 181.51C220.545 181.263 220.818 181.067 221.131 180.92C221.451 180.773 221.798 180.7 222.171 180.7C222.545 180.7 222.888 180.773 223.201 180.92C223.521 181.067 223.795 181.263 224.021 181.51C224.255 181.757 224.435 182.043 224.561 182.37C224.695 182.697 224.761 183.043 224.761 183.41C224.761 183.77 224.695 184.113 224.561 184.44C224.435 184.767 224.255 185.053 224.021 185.3C223.795 185.547 223.521 185.743 223.201 185.89C222.888 186.03 222.545 186.1 222.171 186.1ZM220.281 183.42C220.281 183.713 220.328 183.987 220.421 184.24C220.521 184.487 220.655 184.707 220.821 184.9C220.995 185.087 221.195 185.233 221.421 185.34C221.655 185.447 221.901 185.5 222.161 185.5C222.421 185.5 222.665 185.447 222.891 185.34C223.125 185.227 223.328 185.077 223.501 184.89C223.675 184.697 223.811 184.473 223.911 184.22C224.011 183.967 224.061 183.693 224.061 183.4C224.061 183.113 224.011 182.843 223.911 182.59C223.811 182.33 223.675 182.107 223.501 181.92C223.328 181.727 223.128 181.577 222.901 181.47C222.675 181.357 222.431 181.3 222.171 181.3C221.911 181.3 221.665 181.357 221.431 181.47C221.205 181.577 221.005 181.727 220.831 181.92C220.665 182.113 220.531 182.34 220.431 182.6C220.331 182.853 220.281 183.127 220.281 183.42ZM230.249 186H229.569V183.09C229.569 182.47 229.479 182.02 229.299 181.74C229.119 181.46 228.839 181.32 228.459 181.32C228.259 181.32 228.059 181.357 227.859 181.43C227.659 181.503 227.472 181.607 227.299 181.74C227.125 181.873 226.972 182.033 226.839 182.22C226.712 182.4 226.615 182.597 226.549 182.81V186H225.869V180.79H226.489V181.97C226.595 181.783 226.725 181.613 226.879 181.46C227.039 181.3 227.215 181.163 227.409 181.05C227.602 180.937 227.805 180.85 228.019 180.79C228.239 180.73 228.465 180.7 228.699 180.7C228.992 180.7 229.235 180.753 229.429 180.86C229.629 180.967 229.789 181.117 229.909 181.31C230.029 181.503 230.115 181.74 230.169 182.02C230.222 182.3 230.249 182.61 230.249 182.95V186Z" fill="white"/>
                    </g>
                </g>
                <rect x="284.833" y="119.5" width="114.667" height="125" rx="9.5" fill="#FAEEEE"/>
                <rect x="284.833" y="119.5" width="114.667" height="125" rx="9.5" stroke="#EEEBE2"/>
                <g opacity="0.5">
                    <g clip-path="url(#clip3_276_159)">
                        <rect x="299.667" y="166" width="85" height="32" rx="16" fill="#333333"/>
                        <path d="M332.967 184.17C332.967 184.437 332.914 184.683 332.807 184.91C332.7 185.13 332.557 185.323 332.377 185.49C332.197 185.65 331.987 185.777 331.747 185.87C331.507 185.957 331.25 186 330.977 186H327.637V178.9H331.047C331.294 178.9 331.517 178.953 331.717 179.06C331.917 179.167 332.087 179.307 332.227 179.48C332.367 179.647 332.474 179.84 332.547 180.06C332.627 180.273 332.667 180.49 332.667 180.71C332.667 181.07 332.577 181.4 332.397 181.7C332.217 181.993 331.967 182.213 331.647 182.36C332.054 182.48 332.374 182.703 332.607 183.03C332.847 183.357 332.967 183.737 332.967 184.17ZM332.267 184.05C332.267 183.877 332.237 183.71 332.177 183.55C332.117 183.383 332.03 183.24 331.917 183.12C331.81 182.993 331.68 182.893 331.527 182.82C331.38 182.74 331.22 182.7 331.047 182.7H328.327V185.39H330.977C331.157 185.39 331.327 185.353 331.487 185.28C331.647 185.207 331.784 185.11 331.897 184.99C332.01 184.863 332.1 184.72 332.167 184.56C332.234 184.393 332.267 184.223 332.267 184.05ZM328.327 179.51V182.13H330.767C330.94 182.13 331.1 182.093 331.247 182.02C331.4 181.947 331.53 181.85 331.637 181.73C331.75 181.61 331.837 181.473 331.897 181.32C331.957 181.16 331.987 180.993 331.987 180.82C331.987 180.64 331.957 180.47 331.897 180.31C331.844 180.15 331.764 180.013 331.657 179.9C331.557 179.78 331.434 179.687 331.287 179.62C331.147 179.547 330.994 179.51 330.827 179.51H328.327ZM335.747 186.1C335.2 186.1 334.787 185.913 334.507 185.54C334.227 185.16 334.087 184.597 334.087 183.85V180.79H334.767V183.73C334.767 184.91 335.17 185.5 335.977 185.5C336.177 185.5 336.374 185.467 336.567 185.4C336.76 185.333 336.937 185.237 337.097 185.11C337.264 184.983 337.41 184.833 337.537 184.66C337.67 184.487 337.777 184.29 337.857 184.07V180.79H338.537V185.12C338.537 185.307 338.62 185.4 338.787 185.4V186C338.654 186.02 338.56 186.03 338.507 186.03C338.354 186.03 338.22 185.983 338.107 185.89C338 185.797 337.947 185.68 337.947 185.54V184.82C337.714 185.227 337.404 185.543 337.017 185.77C336.63 185.99 336.207 186.1 335.747 186.1ZM342.585 185.75C342.545 185.77 342.485 185.797 342.405 185.83C342.331 185.863 342.245 185.897 342.145 185.93C342.045 185.963 341.931 185.993 341.805 186.02C341.678 186.047 341.545 186.06 341.405 186.06C341.258 186.06 341.118 186.04 340.985 186C340.851 185.96 340.735 185.9 340.635 185.82C340.535 185.733 340.455 185.627 340.395 185.5C340.335 185.373 340.305 185.227 340.305 185.06V181.33H339.585V180.79H340.305V179.03H340.985V180.79H342.185V181.33H340.985V184.87C340.998 185.063 341.065 185.207 341.185 185.3C341.305 185.387 341.448 185.43 341.615 185.43C341.808 185.43 341.978 185.4 342.125 185.34C342.271 185.273 342.365 185.227 342.405 185.2L342.585 185.75ZM345.895 185.75C345.855 185.77 345.795 185.797 345.715 185.83C345.642 185.863 345.555 185.897 345.455 185.93C345.355 185.963 345.242 185.993 345.115 186.02C344.989 186.047 344.855 186.06 344.715 186.06C344.569 186.06 344.429 186.04 344.295 186C344.162 185.96 344.045 185.9 343.945 185.82C343.845 185.733 343.765 185.627 343.705 185.5C343.645 185.373 343.615 185.227 343.615 185.06V181.33H342.895V180.79H343.615V179.03H344.295V180.79H345.495V181.33H344.295V184.87C344.309 185.063 344.375 185.207 344.495 185.3C344.615 185.387 344.759 185.43 344.925 185.43C345.119 185.43 345.289 185.4 345.435 185.34C345.582 185.273 345.675 185.227 345.715 185.2L345.895 185.75ZM348.838 186.1C348.458 186.1 348.108 186.03 347.788 185.89C347.475 185.743 347.201 185.547 346.968 185.3C346.741 185.053 346.565 184.767 346.438 184.44C346.311 184.113 346.248 183.77 346.248 183.41C346.248 183.043 346.311 182.697 346.438 182.37C346.571 182.043 346.751 181.757 346.978 181.51C347.211 181.263 347.485 181.067 347.798 180.92C348.118 180.773 348.465 180.7 348.838 180.7C349.211 180.7 349.555 180.773 349.868 180.92C350.188 181.067 350.461 181.263 350.688 181.51C350.921 181.757 351.101 182.043 351.228 182.37C351.361 182.697 351.428 183.043 351.428 183.41C351.428 183.77 351.361 184.113 351.228 184.44C351.101 184.767 350.921 185.053 350.688 185.3C350.461 185.547 350.188 185.743 349.868 185.89C349.555 186.03 349.211 186.1 348.838 186.1ZM346.948 183.42C346.948 183.713 346.995 183.987 347.088 184.24C347.188 184.487 347.321 184.707 347.488 184.9C347.661 185.087 347.861 185.233 348.088 185.34C348.321 185.447 348.568 185.5 348.828 185.5C349.088 185.5 349.331 185.447 349.558 185.34C349.791 185.227 349.995 185.077 350.168 184.89C350.341 184.697 350.478 184.473 350.578 184.22C350.678 183.967 350.728 183.693 350.728 183.4C350.728 183.113 350.678 182.843 350.578 182.59C350.478 182.33 350.341 182.107 350.168 181.92C349.995 181.727 349.795 181.577 349.568 181.47C349.341 181.357 349.098 181.3 348.838 181.3C348.578 181.3 348.331 181.357 348.098 181.47C347.871 181.577 347.671 181.727 347.498 181.92C347.331 182.113 347.198 182.34 347.098 182.6C346.998 182.853 346.948 183.127 346.948 183.42ZM356.915 186H356.235V183.09C356.235 182.47 356.145 182.02 355.965 181.74C355.785 181.46 355.505 181.32 355.125 181.32C354.925 181.32 354.725 181.357 354.525 181.43C354.325 181.503 354.139 181.607 353.965 181.74C353.792 181.873 353.639 182.033 353.505 182.22C353.379 182.4 353.282 182.597 353.215 182.81V186H352.535V180.79H353.155V181.97C353.262 181.783 353.392 181.613 353.545 181.46C353.705 181.3 353.882 181.163 354.075 181.05C354.269 180.937 354.472 180.85 354.685 180.79C354.905 180.73 355.132 180.7 355.365 180.7C355.659 180.7 355.902 180.753 356.095 180.86C356.295 180.967 356.455 181.117 356.575 181.31C356.695 181.503 356.782 181.74 356.835 182.02C356.889 182.3 356.915 182.61 356.915 182.95V186Z" fill="white"/>
                    </g>
                </g>
            </g>
        </g>
        <rect x="1.5" y="89.5" width="428" height="181" rx="24" stroke="#EEEBE2"/>
    </g>
    <rect x="0.5" y="0.5" width="429" height="71" rx="24" fill="white"/>
    <rect x="0.5" y="0.5" width="429" height="71" rx="24" stroke="#EEEBE2"/>
    <rect x="105" y="12" width="220" height="48" rx="24" fill="#333333"/>
    <path d="M202.12 38.438C202.12 38.8113 202.046 39.1567 201.896 39.474C201.747 39.782 201.546 40.0527 201.294 40.286C201.042 40.51 200.748 40.6873 200.412 40.818C200.076 40.9393 199.717 41 199.334 41H194.658V31.06H199.432C199.778 31.06 200.09 31.1347 200.37 31.284C200.65 31.4333 200.888 31.6293 201.084 31.872C201.28 32.1053 201.43 32.376 201.532 32.684C201.644 32.9827 201.7 33.286 201.7 33.594C201.7 34.098 201.574 34.56 201.322 34.98C201.07 35.3907 200.72 35.6987 200.272 35.904C200.842 36.072 201.29 36.3847 201.616 36.842C201.952 37.2993 202.12 37.8313 202.12 38.438ZM201.14 38.27C201.14 38.0273 201.098 37.794 201.014 37.57C200.93 37.3367 200.809 37.136 200.65 36.968C200.501 36.7907 200.319 36.6507 200.104 36.548C199.899 36.436 199.675 36.38 199.432 36.38H195.624V40.146H199.334C199.586 40.146 199.824 40.0947 200.048 39.992C200.272 39.8893 200.464 39.754 200.622 39.586C200.781 39.4087 200.907 39.208 201 38.984C201.094 38.7507 201.14 38.5127 201.14 38.27ZM195.624 31.914V35.582H199.04C199.283 35.582 199.507 35.5307 199.712 35.428C199.927 35.3253 200.109 35.19 200.258 35.022C200.417 34.854 200.538 34.6627 200.622 34.448C200.706 34.224 200.748 33.9907 200.748 33.748C200.748 33.496 200.706 33.258 200.622 33.034C200.548 32.81 200.436 32.6187 200.286 32.46C200.146 32.292 199.974 32.1613 199.768 32.068C199.572 31.9653 199.358 31.914 199.124 31.914H195.624ZM206.012 41.14C205.247 41.14 204.668 40.8787 204.276 40.356C203.884 39.824 203.688 39.0353 203.688 37.99V33.706H204.64V37.822C204.64 39.474 205.205 40.3 206.334 40.3C206.614 40.3 206.89 40.2533 207.16 40.16C207.431 40.0667 207.678 39.9313 207.902 39.754C208.136 39.5767 208.341 39.3667 208.518 39.124C208.705 38.8813 208.854 38.606 208.966 38.298V33.706H209.918V39.768C209.918 40.0293 210.035 40.16 210.268 40.16V41C210.082 41.028 209.951 41.042 209.876 41.042C209.662 41.042 209.475 40.9767 209.316 40.846C209.167 40.7153 209.092 40.552 209.092 40.356V39.348C208.766 39.9173 208.332 40.3607 207.79 40.678C207.249 40.986 206.656 41.14 206.012 41.14ZM215.585 40.65C215.529 40.678 215.445 40.7153 215.333 40.762C215.23 40.8087 215.109 40.8553 214.969 40.902C214.829 40.9487 214.67 40.9907 214.493 41.028C214.316 41.0653 214.129 41.084 213.933 41.084C213.728 41.084 213.532 41.056 213.345 41C213.158 40.944 212.995 40.86 212.855 40.748C212.715 40.6267 212.603 40.4773 212.519 40.3C212.435 40.1227 212.393 39.9173 212.393 39.684V34.462H211.385V33.706H212.393V31.242H213.345V33.706H215.025V34.462H213.345V39.418C213.364 39.6887 213.457 39.8893 213.625 40.02C213.793 40.1413 213.994 40.202 214.227 40.202C214.498 40.202 214.736 40.16 214.941 40.076C215.146 39.9827 215.277 39.9173 215.333 39.88L215.585 40.65ZM220.22 40.65C220.164 40.678 220.08 40.7153 219.968 40.762C219.865 40.8087 219.744 40.8553 219.604 40.902C219.464 40.9487 219.305 40.9907 219.128 41.028C218.951 41.0653 218.764 41.084 218.568 41.084C218.363 41.084 218.167 41.056 217.98 41C217.793 40.944 217.63 40.86 217.49 40.748C217.35 40.6267 217.238 40.4773 217.154 40.3C217.07 40.1227 217.028 39.9173 217.028 39.684V34.462H216.02V33.706H217.028V31.242H217.98V33.706H219.66V34.462H217.98V39.418C217.999 39.6887 218.092 39.8893 218.26 40.02C218.428 40.1413 218.629 40.202 218.862 40.202C219.133 40.202 219.371 40.16 219.576 40.076C219.781 39.9827 219.912 39.9173 219.968 39.88L220.22 40.65ZM224.34 41.14C223.808 41.14 223.318 41.042 222.87 40.846C222.431 40.6407 222.049 40.3653 221.722 40.02C221.405 39.6747 221.157 39.2733 220.98 38.816C220.803 38.3587 220.714 37.878 220.714 37.374C220.714 36.8607 220.803 36.3753 220.98 35.918C221.167 35.4607 221.419 35.0593 221.736 34.714C222.063 34.3687 222.445 34.0933 222.884 33.888C223.332 33.6827 223.817 33.58 224.34 33.58C224.863 33.58 225.343 33.6827 225.782 33.888C226.23 34.0933 226.613 34.3687 226.93 34.714C227.257 35.0593 227.509 35.4607 227.686 35.918C227.873 36.3753 227.966 36.8607 227.966 37.374C227.966 37.878 227.873 38.3587 227.686 38.816C227.509 39.2733 227.257 39.6747 226.93 40.02C226.613 40.3653 226.23 40.6407 225.782 40.846C225.343 41.042 224.863 41.14 224.34 41.14ZM221.694 37.388C221.694 37.7987 221.759 38.1813 221.89 38.536C222.03 38.8813 222.217 39.1893 222.45 39.46C222.693 39.7213 222.973 39.9267 223.29 40.076C223.617 40.2253 223.962 40.3 224.326 40.3C224.69 40.3 225.031 40.2253 225.348 40.076C225.675 39.9173 225.959 39.7073 226.202 39.446C226.445 39.1753 226.636 38.8627 226.776 38.508C226.916 38.1533 226.986 37.7707 226.986 37.36C226.986 36.9587 226.916 36.5807 226.776 36.226C226.636 35.862 226.445 35.5493 226.202 35.288C225.959 35.0173 225.679 34.8073 225.362 34.658C225.045 34.4993 224.704 34.42 224.34 34.42C223.976 34.42 223.631 34.4993 223.304 34.658C222.987 34.8073 222.707 35.0173 222.464 35.288C222.231 35.5587 222.044 35.876 221.904 36.24C221.764 36.5947 221.694 36.9773 221.694 37.388ZM235.648 41H234.696V36.926C234.696 36.058 234.57 35.428 234.318 35.036C234.066 34.644 233.674 34.448 233.142 34.448C232.862 34.448 232.582 34.4993 232.302 34.602C232.022 34.7047 231.761 34.8493 231.518 35.036C231.275 35.2227 231.061 35.4467 230.874 35.708C230.697 35.96 230.561 36.2353 230.468 36.534V41H229.516V33.706H230.384V35.358C230.533 35.0967 230.715 34.8587 230.93 34.644C231.154 34.42 231.401 34.2287 231.672 34.07C231.943 33.9113 232.227 33.79 232.526 33.706C232.834 33.622 233.151 33.58 233.478 33.58C233.889 33.58 234.229 33.6547 234.5 33.804C234.78 33.9533 235.004 34.1633 235.172 34.434C235.34 34.7047 235.461 35.036 235.536 35.428C235.611 35.82 235.648 36.254 235.648 36.73V41Z" fill="white"/>
    <path d="M138 72.9453C119.969 68.7615 83.9075 76.3145 83.9075 140M83.9075 140L100.158 123.484M83.9075 140L73 119.52" stroke="#FF5A55" stroke-width="5" stroke-linecap="round"/>
    <path d="M221.086 69.4805C218.656 82.7601 220.287 104.407 219.923 145.292M219.923 145.292L206.87 132.34M219.923 145.292L232.259 134.45" stroke="#FF5A55" stroke-width="5" stroke-linecap="round"/>
    <path d="M284 69.987C302.308 65.6186 338.925 73.5049 338.925 140M338.925 140L322.425 122.755M338.925 140L350 118.617" stroke="#FF5A55" stroke-width="5" stroke-linecap="round"/>
    <defs>
        <filter id="filter0_i_276_159" x="1" y="89" width="429" height="184" filterUnits="userSpaceOnUse" color-interpolation-filters="sRGB">
            <feFlood flood-opacity="0" result="BackgroundImageFix"/>
            <feBlend mode="normal" in="SourceGraphic" in2="BackgroundImageFix" result="shape"/>
            <feColorMatrix in="SourceAlpha" type="matrix" values="0 0 0 0 0 0 0 0 0 0 0 0 0 0 0 0 0 0 127 0" result="hardAlpha"/>
            <feOffset dy="2"/>
            <feGaussianBlur stdDeviation="4"/>
            <feComposite in2="hardAlpha" operator="arithmetic" k2="-1" k3="1"/>
            <feColorMatrix type="matrix" values="0 0 0 0 0 0 0 0 0 0 0 0 0 0 0 0 0 0 0.1 0"/>
            <feBlend mode="normal" in2="shape" result="effect1_innerShadow_276_159"/>
        </filter>
        <filter id="filter1_ddddd_276_159" x="-69" y="23" width="569" height="326" filterUnits="userSpaceOnUse" color-interpolation-filters="sRGB">
            <feFlood flood-opacity="0" result="BackgroundImageFix"/>
            <feColorMatrix in="SourceAlpha" type="matrix" values="0 0 0 0 0 0 0 0 0 0 0 0 0 0 0 0 0 0 127 0" result="hardAlpha"/>
            <feOffset dx="2" dy="4"/>
            <feGaussianBlur stdDeviation="2"/>
            <feComposite in2="hardAlpha" operator="out"/>
            <feColorMatrix type="matrix" values="0 0 0 0 0.905892 0 0 0 0 0.905892 0 0 0 0 0.905892 0 0 0 1 0"/>
            <feBlend mode="normal" in2="BackgroundImageFix" result="effect1_dropShadow_276_159"/>
            <feColorMatrix in="SourceAlpha" type="matrix" values="0 0 0 0 0 0 0 0 0 0 0 0 0 0 0 0 0 0 127 0" result="hardAlpha"/>
            <feOffset dx="4" dy="8"/>
            <feGaussianBlur stdDeviation="4"/>
            <feComposite in2="hardAlpha" operator="out"/>
            <feColorMatrix type="matrix" values="0 0 0 0 0.896989 0 0 0 0 0.896989 0 0 0 0 0.896989 0 0 0 1 0"/>
            <feBlend mode="normal" in2="effect1_dropShadow_276_159" result="effect2_dropShadow_276_159"/>
            <feColorMatrix in="SourceAlpha" type="matrix" values="0 0 0 0 0 0 0 0 0 0 0 0 0 0 0 0 0 0 127 0" result="hardAlpha"/>
            <feOffset dx="4" dy="16"/>
            <feGaussianBlur stdDeviation="6"/>
            <feComposite in2="hardAlpha" operator="out"/>
            <feColorMatrix type="matrix" values="0 0 0 0 0.899121 0 0 0 0 0.899121 0 0 0 0 0.899121 0 0 0 1 0"/>
            <feBlend mode="normal" in2="effect2_dropShadow_276_159" result="effect3_dropShadow_276_159"/>
            <feColorMatrix in="SourceAlpha" type="matrix" values="0 0 0 0 0 0 0 0 0 0 0 0 0 0 0 0 0 0 127 0" result="hardAlpha"/>
            <feOffset dy="4"/>
            <feGaussianBlur stdDeviation="50"/>
            <feComposite in2="hardAlpha" operator="out"/>
            <feColorMatrix type="matrix" values="0 0 0 0 1 0 0 0 0 0.352941 0 0 0 0 0.333333 0 0 0 0.3 0"/>
            <feBlend mode="normal" in2="effect3_dropShadow_276_159" result="effect4_dropShadow_276_159"/>
            <feColorMatrix in="SourceAlpha" type="matrix" values="0 0 0 0 0 0 0 0 0 0 0 0 0 0 0 0 0 0 127 0" result="hardAlpha"/>
            <feOffset dx="-5" dy="-5"/>
            <feGaussianBlur stdDeviation="5"/>
            <feComposite in2="hardAlpha" operator="out"/>
            <feColorMatrix type="matrix" values="0 0 0 0 1 0 0 0 0 1 0 0 0 0 1 0 0 0 0.4 0"/>
            <feBlend mode="normal" in2="effect4_dropShadow_276_159" result="effect5_dropShadow_276_159"/>
            <feBlend mode="normal" in="SourceGraphic" in2="effect5_dropShadow_276_159" result="shape"/>
        </filter>
        <clipPath id="clip0_276_159">
            <rect x="1" y="89" width="429" height="182" rx="24.5" fill="white"/>
        </clipPath>
        <clipPath id="clip1_276_159">
            <rect x="46.3333" y="166" width="85" height="32" rx="16" fill="white"/>
        </clipPath>
        <clipPath id="clip2_276_159">
            <rect x="173" y="166" width="85" height="32" rx="16" fill="white"/>
        </clipPath>
        <clipPath id="clip3_276_159">
            <rect x="299.667" y="166" width="85" height="32" rx="16" fill="white"/>
        </clipPath>
    </defs>
</svg>
