<svg xmlns="http://www.w3.org/2000/svg" viewBox="0 0 429 271" fill="none">
    <g filter="url(#a)">
        <g clip-path="url(#b)">
            <rect width="429" height="271" fill="#fff" rx="24.5" />
            <g filter="url(#c)">
                <rect width="114.667" height="164" x="30.5" y="30.5" fill="#FAEEEE" rx="9.5"
                    shape-rendering="crispEdges" />
                <rect width="114.667" height="164" x="30.5" y="30.5" stroke="#EEEBE2" rx="9.5"
                    shape-rendering="crispEdges" />
                <rect width="114.667" height="164" x="157.167" y="30.5" fill="#FAEEEE" rx="9.5"
                    shape-rendering="crispEdges" />
                <rect width="114.667" height="164" x="157.167" y="30.5" stroke="#EEEBE2" rx="9.5"
                    shape-rendering="crispEdges" />
                <rect width="114.667" height="164" x="283.833" y="30.5" fill="#FAEEEE" rx="9.5"
                    shape-rendering="crispEdges" />
                <rect width="114.667" height="164" x="283.833" y="30.5" stroke="#EEEBE2" rx="9.5" />
                <mask id="d" fill="#fff">
                    <path
                        d="M30 215c0-5.523 4.4772-10 10-10h349c5.523 0 10 4.477 10 10v20c0 5.523-4.477 10-10 10H40c-5.5228 0-10-4.477-10-10v-20Z" />
                </mask>
                <path fill="#fff"
                    d="M30 215c0-5.523 4.4772-10 10-10h349c5.523 0 10 4.477 10 10v20c0 5.523-4.477 10-10 10H40c-5.5228 0-10-4.477-10-10v-20Z" />
                <path fill="#EEEBE2"
                    d="M40 206h349v-2H40v2Zm358 9v20h2v-20h-2Zm-9 29H40v2h349v-2Zm-358-9v-20h-2v20h2Zm9 9c-4.9706 0-9-4.029-9-9h-2c0 6.075 4.9249 11 11 11v-2Zm358-9c0 4.971-4.029 9-9 9v2c6.075 0 11-4.925 11-11h-2Zm-9-29c4.971 0 9 4.029 9 9h2c0-6.075-4.925-11-11-11v2Zm-349-2c-6.0751 0-11 4.925-11 11h2c0-4.971 4.0294-9 9-9v-2Z"
                    mask="url(#d)" />
                <mask id="f" fill="#fff">
                    <path
                        d="M31 215c0-4.971 4.0294-9 9-9h192c4.971 0 9 4.029 9 9v20c0 4.971-4.029 9-9 9H40c-4.9706 0-9-4.029-9-9v-20Z" />
                </mask>
                <path fill="url(#e)"
                    d="M31 215c0-4.971 4.0294-9 9-9h192c4.971 0 9 4.029 9 9v20c0 4.971-4.029 9-9 9H40c-4.9706 0-9-4.029-9-9v-20Z" />
                <path fill="#fff" fill-rule="evenodd"
                    d="M241 215c0-.599-.097-1.18-.279-1.735l.139-.028c.092.574.14 1.163.14 1.763Zm-1.282-5.157-.89.596c-.21-.189-.432-.37-.665-.541-.6-.438-1.277-.813-2.013-1.111l.294-.44.98-1.464c.923.845 1.702 1.845 2.294 2.96ZM226 204h-4v4h4v-4Zm4 4h2c.469 0 .929.028 1.379.082l.183-.93.389-1.962.084-.426c-.65-.257-1.331-.453-2.035-.583-.649-.119-1.317-.181-2-.181v4Zm-12 0v-4h-4v4h4Zm-8 0v-4h-4v4h4Zm-8 0v-4h-4v4h4Zm-8 0v-4h-4v4h4Zm-8 0v-4h-4v4h4Zm-8 0v-4h-4v4h4Zm-8 0v-4h-4v4h4Zm-8 0v-4h-4v4h4Zm-8 0v-4h-4v4h4Zm-8 0v-4h-4v4h4Zm-8 0v-4h-4v4h4Zm-8 0v-4h-4v4h4Zm-8 0v-4h-4v4h4Zm-8 0v-4h-4v4h4Zm-8 0v-4h-4v4h4Zm-8 0v-4h-4v4h4Zm-8 0v-4h-4v4h4Zm-8 0v-4h-4v4h4Zm-8 0v-4h-4v4h4Zm-8 0v-4h-4v4h4Zm-8 0v-4h-4v4h4Zm-8 0v-4h-4v4h4Zm-8 0v-4h-2c-.0458 0-.0915 0-.1371.001-.6846.008-1.3557.079-2.0075.208l.1941.981.3881 1.962.1941.981a7.0145 7.0145 0 0 1 1.2326-.132c.0451-.001.0903-.001.1357-.001h2Zm-7.5569-1.315 1.1127 1.662.5563.831a7.0442 7.0442 0 0 0-1.9343 1.934l-.8309-.556-1.662-1.113-.8309-.556c.4012-.6.8598-1.157 1.3678-1.665.0321-.032.0643-.064.0967-.096.4819-.47 1.0068-.896 1.5683-1.272l.5563.831Zm-4.2528 6.364 1.962.389.981.194A7.0303 7.0303 0 0 0 33 215v1.667h-4V215a11.0363 11.0363 0 0 1 .2093-2.145l.981.194ZM29 220v3.333h4V220h-4Zm4 6.667h-4V230h4v-3.333Zm0 6.666h-4V235a11.0433 11.0433 0 0 0 .2093 2.145l.981-.194 1.962-.389.981-.194A7.023 7.023 0 0 1 33 235v-1.667Zm-1.3151 7.224 1.662-1.113.831-.556a7.11 7.11 0 0 0 .6353.813c.19.209.3924.407.6062.592.2194.191.4508.367.6927.529l-.5563.831-1.1127 1.662-.5563.831a11.061 11.061 0 0 1-1.2748-.996 11.104 11.104 0 0 1-.8106-.816c-.3433-.384-.66-.792-.9474-1.221l.8309-.556Zm6.3646 4.253.3881-1.962.1941-.981A7.0607 7.0607 0 0 0 40 242m2 1v3h-2m6 0h4v-4h-4v4Zm-4-3v-1Zm-2-1h2Zm14 0v4h4v-4h-4Zm8 0v4h4v-4h-4Zm8 0v4h4v-4h-4Zm8 0v4h4v-4h-4Zm8 0v4h4v-4h-4Zm8 0v4h4v-4h-4Zm8 0v4h4v-4h-4Zm8 0v4h4v-4h-4Zm8 0v4h4v-4h-4Zm8 0v4h4v-4h-4Zm8 0v4h4v-4h-4Zm8 0v4h4v-4h-4Zm8 0v4h4v-4h-4Zm8 0v4h4v-4h-4Zm8 0v4h4v-4h-4Zm8 0v4h4v-4h-4Zm8 0v4h4v-4h-4Zm8 0v4h4v-4h-4Zm8 0v4h4v-4h-4Zm8 0v4h4v-4h-4Zm8 0v4h4v-4h-4Zm8 0v4h4v-4h-4Zm8 0v4c.683 0 1.351-.062 2-.181.704-.13 1.385-.326 2.035-.583l-.084-.426-.389-1.962-.183-.93c-.45.054-.91.082-1.379.082h-2Zm6.15-.787.294.44.98 1.464c.923-.845 1.702-1.845 2.294-2.96l-.89-.596c-.21.189-.432.37-.665.541-.6.438-1.277.813-2.013 1.111Zm4.571-4.478.139.028c.092-.574.14-1.163.14-1.763 0 .599-.097 1.18-.279 1.735Zm-201.1663 9.256a11.074 11.074 0 0 1-1.6993-.2l.1941-.981m1.5052 1.181c.1024.004.2052.007.3082.008Zm.3082.008c.0457.001.0914.001.1371.001Z"
                    clip-rule="evenodd" mask="url(#f)" />
            </g>
        </g>
        <rect width="428" height="270" x=".5" y=".5" stroke="#EEEBE2" rx="24" />
    </g>
    <defs>
        <filter id="a" width="429" height="273" x="0" y="0" color-interpolation-filters="sRGB"
            filterUnits="userSpaceOnUse">
            <feFlood flood-opacity="0" result="BackgroundImageFix" />
            <feBlend in="SourceGraphic" in2="BackgroundImageFix" result="shape" />
            <feColorMatrix in="SourceAlpha" result="hardAlpha"
                values="0 0 0 0 0 0 0 0 0 0 0 0 0 0 0 0 0 0 127 0" />
            <feOffset dy="2" />
            <feGaussianBlur stdDeviation="4" />
            <feComposite in2="hardAlpha" k2="-1" k3="1" operator="arithmetic" />
            <feColorMatrix values="0 0 0 0 0 0 0 0 0 0 0 0 0 0 0 0 0 0 0.1 0" />
            <feBlend in2="shape" result="effect1_innerShadow_178_302" />
        </filter>
        <filter id="c" width="569" height="415" x="-70" y="-66" color-interpolation-filters="sRGB"
            filterUnits="userSpaceOnUse">
            <feFlood flood-opacity="0" result="BackgroundImageFix" />
            <feColorMatrix in="SourceAlpha" result="hardAlpha"
                values="0 0 0 0 0 0 0 0 0 0 0 0 0 0 0 0 0 0 127 0" />
            <feOffset dx="2" dy="4" />
            <feGaussianBlur stdDeviation="2" />
            <feComposite in2="hardAlpha" operator="out" />
            <feColorMatrix values="0 0 0 0 0.905892 0 0 0 0 0.905892 0 0 0 0 0.905892 0 0 0 1 0" />
            <feBlend in2="BackgroundImageFix" result="effect1_dropShadow_178_302" />
            <feColorMatrix in="SourceAlpha" result="hardAlpha"
                values="0 0 0 0 0 0 0 0 0 0 0 0 0 0 0 0 0 0 127 0" />
            <feOffset dx="4" dy="8" />
            <feGaussianBlur stdDeviation="4" />
            <feComposite in2="hardAlpha" operator="out" />
            <feColorMatrix values="0 0 0 0 0.896989 0 0 0 0 0.896989 0 0 0 0 0.896989 0 0 0 1 0" />
            <feBlend in2="effect1_dropShadow_178_302" result="effect2_dropShadow_178_302" />
            <feColorMatrix in="SourceAlpha" result="hardAlpha"
                values="0 0 0 0 0 0 0 0 0 0 0 0 0 0 0 0 0 0 127 0" />
            <feOffset dx="4" dy="16" />
            <feGaussianBlur stdDeviation="6" />
            <feComposite in2="hardAlpha" operator="out" />
            <feColorMatrix values="0 0 0 0 0.899121 0 0 0 0 0.899121 0 0 0 0 0.899121 0 0 0 1 0" />
            <feBlend in2="effect2_dropShadow_178_302" result="effect3_dropShadow_178_302" />
            <feColorMatrix in="SourceAlpha" result="hardAlpha"
                values="0 0 0 0 0 0 0 0 0 0 0 0 0 0 0 0 0 0 127 0" />
            <feOffset dy="4" />
            <feGaussianBlur stdDeviation="50" />
            <feComposite in2="hardAlpha" operator="out" />
            <feColorMatrix values="0 0 0 0 1 0 0 0 0 0.352941 0 0 0 0 0.333333 0 0 0 0.3 0" />
            <feBlend in2="effect3_dropShadow_178_302" result="effect4_dropShadow_178_302" />
            <feColorMatrix in="SourceAlpha" result="hardAlpha"
                values="0 0 0 0 0 0 0 0 0 0 0 0 0 0 0 0 0 0 127 0" />
            <feOffset dx="-5" dy="-5" />
            <feGaussianBlur stdDeviation="5" />
            <feComposite in2="hardAlpha" operator="out" />
            <feColorMatrix values="0 0 0 0 1 0 0 0 0 1 0 0 0 0 1 0 0 0 0.4 0" />
            <feBlend in2="effect4_dropShadow_178_302" result="effect5_dropShadow_178_302" />
            <feBlend in="SourceGraphic" in2="effect5_dropShadow_178_302" result="shape" />
        </filter>
        <linearGradient id="e" x1="199.568" x2="241" y1="225" y2="225"
            gradientUnits="userSpaceOnUse">
            <stop stop-color="#FAEEEE" />
            <stop offset="1" stop-color="#fff" stop-opacity="0" />
        </linearGradient>
        <clipPath id="b">
            <rect width="429" height="271" fill="#fff" rx="24.5" />
        </clipPath>
    </defs>
</svg>