<svg xmlns="http://www.w3.org/2000/svg" width="429" height="271" fill="none">
    <g filter="url(#a)">
        <g clip-path="url(#b)">
            <rect width="429" height="271" fill="#fff" rx="24.5" />
            <g filter="url(#c)">
                <rect width="114.667" height="164" x="30.5" y="30.5" fill="#fff" rx="9.5" />
                <rect width="114.667" height="164" x="30.5" y="30.5" stroke="#EEEBE2" rx="9.5" />
                <path fill="#000"
                    d="M103.833 49H90.58l-2.7467 4.7333L85.0867 49H71.8333l16 27.7067L103.833 49ZM87.8333 65.6267l-9.12-15.8H84.62L87.8333 55.4l3.2134-5.5733h5.9066l-9.12 15.8Z" />
                <rect width="114.667" height="164" x="157.167" y="30.5" fill="#fff" rx="9.5" />
                <rect width="114.667" height="164" x="157.167" y="30.5" stroke="#EEEBE2" rx="9.5" />
                <path fill="#000"
                    d="M217.473 63.2536c0 .7905-.314 1.5486-.872 2.1076a2.9821 2.9821 0 0 1-2.108.8737c-.79 0-1.549-.3141-2.108-.8732a2.9815 2.9815 0 0 1 2.107-5.0894c.791 0 1.549.3141 2.108.8732.559.5591.873 1.3174.873 2.1081Zm3.531-14.2533c-1.795 0-4.143 1.28-6.517 3.496-2.374-2.204-4.723-3.4694-6.516-3.4694-.547 0-1.044.124-1.475.3707-1.833 1.0573-2.244 4.352-1.297 8.4867-4.059 1.2533-6.699 3.2573-6.699 5.3693 0 2.12 2.653 4.1293 6.724 5.3733-.939 4.1507-.52 7.4507 1.317 8.5067.427.2493.92.3667 1.47.3667 1.793 0 4.142-1.28 6.517-3.4987 2.373 2.2053 4.723 3.4707 6.516 3.4707.547 0 1.044-.12 1.475-.3667 1.832-1.056 2.244-4.3507 1.297-8.4867 4.044-1.2426 6.684-3.2506 6.684-5.3653 0-2.12-2.653-4.1293-6.724-5.376.939-4.1467.52-7.4493-1.317-8.5067a2.8895 2.8895 0 0 0-1.455-.3706Zm-.007 1.4533v.008c.3 0 .542.0587.744.1693.888.5094 1.274 2.4467.974 4.9387-.072.6133-.19 1.26-.334 1.92a31.313 31.313 0 0 0-4.142-.712 32.053 32.053 0 0 0-2.714-3.2627c2.123-1.9733 4.116-3.056 5.474-3.06l-.002-.0013Zm-13.026.0267c1.349 0 3.352 1.0773 5.48 3.04-.915.96-1.827 2.0493-2.694 3.256a30.6479 30.6479 0 0 0-4.15.7173 19.6068 19.6068 0 0 1-.339-1.8933c-.307-2.4907.072-4.4267.952-4.9427.253-.12.533-.1707.751-.1773Zm6.509 4.0666c.608.6258 1.212 1.3209 1.813 2.0854-.586-.0267-1.186-.0454-1.793-.0454a33.6438 33.6438 0 0 0-1.813.0454c.586-.7627 1.193-1.46 1.793-2.0854Zm.02 3.5014c.987 0 1.969.0453 2.936.124.542.7768 1.068 1.6035 1.577 2.48.495.8542.948 1.7191 1.358 2.5946-.411.8734-.862 1.7467-1.351 2.6-.507.88-1.031 1.7174-1.573 2.4934a34.135 34.135 0 0 1-5.883.0066 35.8006 35.8006 0 0 1-1.577-2.48 33.5735 33.5735 0 0 1-1.358-2.5946c.412-.8879.863-1.7572 1.351-2.6054.507-.88 1.031-1.7146 1.573-2.4906.98-.0871 1.963-.1307 2.947-.1307v.0027Zm-4.847.3386c-.32.5027-.64 1.0174-.938 1.5467-.299.52-.581 1.0418-.847 1.5653a27.69 27.69 0 0 1-.901-2.596c.853-.2 1.753-.3786 2.686-.516Zm9.68 0c.928.136 1.82.308 2.675.516-.24.8427-.54 1.7094-.88 2.5774a34.767 34.767 0 0 0-1.793-3.0934h-.002Zm4.084.9c.647.2009 1.258.4222 1.834.664 2.309.9867 3.802 2.2774 3.802 3.3014-.006 1.024-1.5 2.32-3.809 3.3-.56.24-1.173.456-1.807.6573-.4-1.3554-.89-2.6827-1.466-3.9733.6-1.356 1.08-2.68 1.446-3.952v.0026Zm-17.86.0054c.371 1.28.86 2.6093 1.467 3.9733a30.67 30.67 0 0 0-1.448 3.952c-.645-.2-1.259-.424-1.827-.6667-2.309-.9826-3.802-2.2746-3.802-3.2986s1.493-2.3227 3.802-3.3014c.56-.24 1.174-.456 1.808-.6586Zm15.571 5.7066c.353.876.653 1.7494.901 2.5974a27.8 27.8 0 0 1-2.688.52 34.6114 34.6114 0 0 0 1.787-3.1174Zm-13.26.0267c.267.5227.547 1.044.853 1.5667.307.5208.62 1.0288.94 1.524a29.3254 29.3254 0 0 1-2.674-.5147c.24-.84.541-1.7093.88-2.5773l.001.0013Zm14.525 3.9827c.15.6573.267 1.2906.339 1.8973.307 2.4907-.072 4.4267-.952 4.944-.196.12-.451.1707-.751.1707-1.349 0-3.352-1.076-5.48-3.04.915-.96 1.827-2.048 2.694-3.2534 1.476-.1573 2.872-.3986 4.15-.7186Zm-15.773.0133c1.28.312 2.675.5533 4.143.7093.88 1.2067 1.793 2.3027 2.713 3.2614-2.127 1.9773-4.123 3.06-5.48 3.06a1.6008 1.6008 0 0 1-.737-.176c-.888-.5067-1.274-2.4454-.974-4.9374.072-.6133.191-1.2586.335-1.9173Zm6.08.8533c.588.0285 1.185.0436 1.793.0454a33.889 33.889 0 0 0 1.814-.0454c-.587.7627-1.194 1.46-1.794 2.0867-.608-.6276-1.212-1.3231-1.813-2.0867Z" />
                <rect width="114.667" height="164" x="283.833" y="30.5" fill="#fff" rx="9.5" />
                <rect width="114.667" height="164" x="283.833" y="30.5" stroke="#EEEBE2" rx="9.5" />
                <path fill="#000"
                    d="M338.972 77.1672a5.9208 5.9208 0 0 1-3.547-.1791 5.9223 5.9223 0 0 1-2.806-2.1769 5.4617 5.4617 0 0 1-.887-1.9766 5.4674 5.4674 0 0 1-.05-2.1661c.044-.2357.103-.4683.178-.696l.14-.428.383.28a9.5995 9.5995 0 0 0 2.915 1.456l.277.084-.027.2774c-.033.3929.074.785.302 1.1066a1.7857 1.7857 0 0 0 1.913.7107c.162-.0423.316-.1098.457-.2l7.454-4.7493c.182-.1148.338-.2663.459-.4449.12-.1787.202-.3805.239-.5925a1.6504 1.6504 0 0 0-.014-.653 1.6599 1.6599 0 0 0-.267-.5963 1.7859 1.7859 0 0 0-1.913-.7107 1.6044 1.6044 0 0 0-.458.2l-2.844 1.8134a5.324 5.324 0 0 1-1.513.6653 5.92 5.92 0 0 1-3.547-.1785 5.9209 5.9209 0 0 1-2.806-2.1762 5.465 5.465 0 0 1-.887-1.9773 5.4518 5.4518 0 0 1-.049-2.1667 5.1639 5.1639 0 0 1 .798-1.966c.4-.5927.919-1.0956 1.524-1.4766l7.452-4.7507a5.3366 5.3366 0 0 1 1.514-.6653 5.9185 5.9185 0 0 1 3.547.1791 5.9169 5.9169 0 0 1 2.806 2.1769c.425.593.727 1.2651.888 1.9765.161.7115.178 1.448.049 2.1661a5.2179 5.2179 0 0 1-.178.696l-.14.428-.382-.28a9.5922 9.5922 0 0 0-2.916-1.4573l-.277-.084.027-.276a1.6643 1.6643 0 0 0-.302-1.108 1.784 1.784 0 0 0-.845-.6547 1.7866 1.7866 0 0 0-1.068-.0546 1.5958 1.5958 0 0 0-.457.2l-7.454 4.7493a1.543 1.543 0 0 0-.458.4449 1.5389 1.5389 0 0 0-.24.5924c-.039.2165-.034.4385.015.653.048.2146.138.4173.266.5964a1.7855 1.7855 0 0 0 1.913.7106c.163-.0426.318-.1105.459-.2013l2.843-1.8133a5.3274 5.3274 0 0 1 1.513-.664 5.92 5.92 0 0 1 3.547.1785 5.916 5.916 0 0 1 2.806 2.1761c.425.5933.727 1.2657.887 1.9774.161.7117.178 1.4484.049 2.1666a5.1351 5.1351 0 0 1-.798 1.9668c-.4.593-.919 1.0961-1.524 1.4772l-7.452 4.7494c-.467.299-.978.5235-1.514.6653Zm13.811-23.9333c-2.971-4.2534-8.84-5.5134-13.083-2.8094l-7.453 4.7494a8.5359 8.5359 0 0 0-2.536 2.4552 8.5327 8.5327 0 0 0-1.325 3.2714 8.996 8.996 0 0 0 .888 5.7814 8.5324 8.5324 0 0 0-1.28 3.1946 9.1014 9.1014 0 0 0 .083 3.6018 9.122 9.122 0 0 0 1.474 3.2876c2.972 4.2533 8.84 5.5133 13.083 2.8106l7.453-4.7493a8.5359 8.5359 0 0 0 2.536-2.4552 8.5325 8.5325 0 0 0 1.325-3.2715 9.0085 9.0085 0 0 0-.886-5.7813 8.5293 8.5293 0 0 0 1.277-3.1947 9.0854 9.0854 0 0 0-.083-3.6023 9.1062 9.1062 0 0 0-1.473-3.2883Z" />
                <rect width="368" height="39" x="30.5" y="205.5" fill="#FAEEEE" rx="9.5" />
                <rect width="368" height="39" x="30.5" y="205.5" stroke="#EEEBE2" rx="9.5" />
            </g>
        </g>
        <rect width="428" height="270" x=".5" y=".5" stroke="#EEEBE2" rx="24" />
    </g>
    <defs>
        <filter id="a" width="429" height="273" x="0" y="0" color-interpolation-filters="sRGB"
            filterUnits="userSpaceOnUse">
            <feFlood flood-opacity="0" result="BackgroundImageFix" />
            <feBlend in="SourceGraphic" in2="BackgroundImageFix" result="shape" />
            <feColorMatrix in="SourceAlpha" result="hardAlpha"
                values="0 0 0 0 0 0 0 0 0 0 0 0 0 0 0 0 0 0 127 0" />
            <feOffset dy="2" />
            <feGaussianBlur stdDeviation="4" />
            <feComposite in2="hardAlpha" k2="-1" k3="1" operator="arithmetic" />
            <feColorMatrix values="0 0 0 0 0 0 0 0 0 0 0 0 0 0 0 0 0 0 0.1 0" />
            <feBlend in2="shape" result="effect1_innerShadow_120_383" />
        </filter>
        <filter id="c" width="569" height="415" x="-70" y="-66" color-interpolation-filters="sRGB"
            filterUnits="userSpaceOnUse">
            <feFlood flood-opacity="0" result="BackgroundImageFix" />
            <feColorMatrix in="SourceAlpha" result="hardAlpha"
                values="0 0 0 0 0 0 0 0 0 0 0 0 0 0 0 0 0 0 127 0" />
            <feOffset dx="2" dy="4" />
            <feGaussianBlur stdDeviation="2" />
            <feComposite in2="hardAlpha" operator="out" />
            <feColorMatrix values="0 0 0 0 0.905892 0 0 0 0 0.905892 0 0 0 0 0.905892 0 0 0 1 0" />
            <feBlend in2="BackgroundImageFix" result="effect1_dropShadow_120_383" />
            <feColorMatrix in="SourceAlpha" result="hardAlpha"
                values="0 0 0 0 0 0 0 0 0 0 0 0 0 0 0 0 0 0 127 0" />
            <feOffset dx="4" dy="8" />
            <feGaussianBlur stdDeviation="4" />
            <feComposite in2="hardAlpha" operator="out" />
            <feColorMatrix values="0 0 0 0 0.896989 0 0 0 0 0.896989 0 0 0 0 0.896989 0 0 0 1 0" />
            <feBlend in2="effect1_dropShadow_120_383" result="effect2_dropShadow_120_383" />
            <feColorMatrix in="SourceAlpha" result="hardAlpha"
                values="0 0 0 0 0 0 0 0 0 0 0 0 0 0 0 0 0 0 127 0" />
            <feOffset dx="4" dy="16" />
            <feGaussianBlur stdDeviation="6" />
            <feComposite in2="hardAlpha" operator="out" />
            <feColorMatrix values="0 0 0 0 0.899121 0 0 0 0 0.899121 0 0 0 0 0.899121 0 0 0 1 0" />
            <feBlend in2="effect2_dropShadow_120_383" result="effect3_dropShadow_120_383" />
            <feColorMatrix in="SourceAlpha" result="hardAlpha"
                values="0 0 0 0 0 0 0 0 0 0 0 0 0 0 0 0 0 0 127 0" />
            <feOffset dy="4" />
            <feGaussianBlur stdDeviation="50" />
            <feComposite in2="hardAlpha" operator="out" />
            <feColorMatrix values="0 0 0 0 1 0 0 0 0 0.352941 0 0 0 0 0.333333 0 0 0 0.3 0" />
            <feBlend in2="effect3_dropShadow_120_383" result="effect4_dropShadow_120_383" />
            <feColorMatrix in="SourceAlpha" result="hardAlpha"
                values="0 0 0 0 0 0 0 0 0 0 0 0 0 0 0 0 0 0 127 0" />
            <feOffset dx="-5" dy="-5" />
            <feGaussianBlur stdDeviation="5" />
            <feComposite in2="hardAlpha" operator="out" />
            <feColorMatrix values="0 0 0 0 1 0 0 0 0 1 0 0 0 0 1 0 0 0 0.4 0" />
            <feBlend in2="effect4_dropShadow_120_383" result="effect5_dropShadow_120_383" />
            <feBlend in="SourceGraphic" in2="effect5_dropShadow_120_383" result="shape" />
        </filter>
        <clipPath id="b">
            <rect width="429" height="271" fill="#fff" rx="24.5" />
        </clipPath>
    </defs>
</svg>