<svg width="156" height="201" viewBox="0 0 156 201" fill="none" xmlns="http://www.w3.org/2000/svg">
    <rect x="0.5" y="0.5" width="155" height="200" rx="9.5" fill="white" stroke="#EFEFEF"/>
    <rect x="4.5" y="4.5" width="71" height="19" rx="5.5" stroke="#FF5A55"/>
    <rect x="56.5" y="7.5" width="16" height="13" rx="2.5" stroke="#FFDE54"/>
    <rect x="4.5" y="27.5" width="147" height="145" rx="5.5" stroke="#FFDE54"/>
    <rect x="4.5" y="176.5" width="147" height="19" rx="5.5" fill="white" stroke="#FF5A55"/>
    <path d="M68.1265 89.14C67.5292 89.14 66.9925 89.042 66.5165 88.846C66.0405 88.6407 65.6345 88.3607 65.2985 88.006C64.9625 87.642 64.7012 87.2313 64.5145 86.774C64.3372 86.3167 64.2485 85.836 64.2485 85.332C64.2485 84.6413 64.4025 84.0113 64.7105 83.442C65.0278 82.8633 65.4758 82.4013 66.0545 82.056C66.6332 81.7107 67.3192 81.538 68.1125 81.538C68.9058 81.538 69.5872 81.7107 70.1565 82.056C70.7258 82.4013 71.1505 82.854 71.4305 83.414L69.5965 83.974C69.4378 83.7033 69.2278 83.498 68.9665 83.358C68.7052 83.2087 68.4158 83.134 68.0985 83.134C67.7438 83.134 67.4172 83.2273 67.1185 83.414C66.8292 83.5913 66.6005 83.848 66.4325 84.184C66.2645 84.5107 66.1805 84.8933 66.1805 85.332C66.1805 85.7613 66.2645 86.144 66.4325 86.48C66.6098 86.8067 66.8432 87.068 67.1325 87.264C67.4218 87.4507 67.7438 87.544 68.0985 87.544C68.3225 87.544 68.5325 87.5067 68.7285 87.432C68.9338 87.3573 69.1158 87.2547 69.2745 87.124C69.4332 86.9933 69.5498 86.844 69.6245 86.676L71.4585 87.236C71.2905 87.6 71.0432 87.9267 70.7165 88.216C70.3992 88.5053 70.0212 88.734 69.5825 88.902C69.1532 89.0607 68.6678 89.14 68.1265 89.14ZM72.1089 86.83C72.1089 86.354 72.2395 85.9387 72.5009 85.584C72.7715 85.22 73.1449 84.94 73.6209 84.744C74.0969 84.548 74.6429 84.45 75.2589 84.45C75.5669 84.45 75.8795 84.4733 76.1969 84.52C76.5142 84.5667 76.7895 84.6413 77.0229 84.744V84.352C77.0229 83.8853 76.8829 83.526 76.6029 83.274C76.3322 83.022 75.9262 82.896 75.3849 82.896C74.9835 82.896 74.6009 82.966 74.2369 83.106C73.8729 83.246 73.4902 83.4513 73.0889 83.722L72.4869 82.49C72.9722 82.1727 73.4669 81.9347 73.9709 81.776C74.4842 81.6173 75.0209 81.538 75.5809 81.538C76.6262 81.538 77.4382 81.7993 78.0169 82.322C78.6049 82.8447 78.8989 83.5913 78.8989 84.562V86.9C78.8989 87.096 78.9315 87.236 78.9969 87.32C79.0715 87.404 79.1882 87.4553 79.3469 87.474V89C79.1789 89.028 79.0249 89.0513 78.8849 89.07C78.7542 89.0887 78.6422 89.098 78.5489 89.098C78.1755 89.098 77.8909 89.014 77.6949 88.846C77.5082 88.678 77.3915 88.4727 77.3449 88.23L77.3029 87.852C76.9855 88.2627 76.5889 88.58 76.1129 88.804C75.6369 89.028 75.1515 89.14 74.6569 89.14C74.1715 89.14 73.7329 89.042 73.3409 88.846C72.9582 88.6407 72.6549 88.3653 72.4309 88.02C72.2162 87.6653 72.1089 87.2687 72.1089 86.83ZM76.6729 87.208C76.7755 87.096 76.8595 86.984 76.9249 86.872C76.9902 86.76 77.0229 86.6573 77.0229 86.564V85.822C76.7989 85.7287 76.5562 85.6587 76.2949 85.612C76.0335 85.556 75.7862 85.528 75.5529 85.528C75.0675 85.528 74.6662 85.6353 74.3489 85.85C74.0409 86.0553 73.8869 86.3307 73.8869 86.676C73.8869 86.8627 73.9382 87.04 74.0409 87.208C74.1435 87.376 74.2929 87.5113 74.4889 87.614C74.6849 87.7167 74.9182 87.768 75.1889 87.768C75.4689 87.768 75.7442 87.7167 76.0149 87.614C76.2855 87.502 76.5049 87.3667 76.6729 87.208ZM85.0199 83.288C84.4506 83.288 83.9419 83.4 83.4939 83.624C83.0459 83.8387 82.7239 84.1513 82.5279 84.562V89H80.6519V81.664H82.3739V83.232C82.6352 82.728 82.9666 82.3313 83.3679 82.042C83.7692 81.7527 84.1939 81.594 84.6419 81.566C84.7446 81.566 84.8239 81.566 84.8799 81.566C84.9359 81.566 84.9826 81.5707 85.0199 81.58V83.288ZM90.462 88.622C90.3033 88.6873 90.112 88.762 89.888 88.846C89.664 88.93 89.4213 88.9953 89.16 89.042C88.908 89.098 88.6513 89.126 88.39 89.126C88.0446 89.126 87.7273 89.0653 87.438 88.944C87.1486 88.8227 86.9153 88.6313 86.738 88.37C86.57 88.0993 86.486 87.7493 86.486 87.32V83.106H85.52V81.664H86.486V79.284H88.362V81.664H89.902V83.106H88.362V86.69C88.3713 86.942 88.4413 87.124 88.572 87.236C88.7026 87.348 88.866 87.404 89.062 87.404C89.258 87.404 89.4493 87.3713 89.636 87.306C89.8226 87.2407 89.972 87.1847 90.084 87.138L90.462 88.622Z" fill="black"/>
</svg>
