<svg width="156" height="201" viewBox="0 0 156 201" fill="none" xmlns="http://www.w3.org/2000/svg">
    <rect x="0.5" y="0.5" width="155" height="200" rx="9.5" fill="white" stroke="#EFEFEF"/>
    <rect x="4.5" y="4.5" width="147" height="168" rx="5.5" stroke="#FFDE54"/>
    <rect x="4.5" y="176.5" width="147" height="19" rx="5.5" stroke="#FF5A55"/>
    <path d="M50.1948 89.14C49.5975 89.14 49.0608 89.042 48.5848 88.846C48.1088 88.6407 47.7028 88.3607 47.3668 88.006C47.0308 87.642 46.7695 87.2313 46.5828 86.774C46.4055 86.3167 46.3168 85.836 46.3168 85.332C46.3168 84.6413 46.4708 84.0113 46.7788 83.442C47.0961 82.8633 47.5441 82.4013 48.1228 82.056C48.7015 81.7107 49.3875 81.538 50.1808 81.538C50.9741 81.538 51.6555 81.7107 52.2248 82.056C52.7941 82.4013 53.2188 82.854 53.4988 83.414L51.6648 83.974C51.5061 83.7033 51.2961 83.498 51.0348 83.358C50.7735 83.2087 50.4841 83.134 50.1668 83.134C49.8121 83.134 49.4855 83.2273 49.1868 83.414C48.8975 83.5913 48.6688 83.848 48.5008 84.184C48.3328 84.5107 48.2488 84.8933 48.2488 85.332C48.2488 85.7613 48.3328 86.144 48.5008 86.48C48.6781 86.8067 48.9115 87.068 49.2008 87.264C49.4901 87.4507 49.8121 87.544 50.1668 87.544C50.3908 87.544 50.6008 87.5067 50.7968 87.432C51.0021 87.3573 51.1841 87.2547 51.3428 87.124C51.5015 86.9933 51.6181 86.844 51.6928 86.676L53.5268 87.236C53.3588 87.6 53.1115 87.9267 52.7848 88.216C52.4675 88.5053 52.0895 88.734 51.6508 88.902C51.2215 89.0607 50.7361 89.14 50.1948 89.14ZM61.4991 89H59.6231V84.884C59.6231 84.3147 59.5111 83.89 59.2871 83.61C59.0725 83.33 58.7738 83.19 58.3911 83.19C58.1671 83.19 57.9291 83.2553 57.6771 83.386C57.4251 83.5167 57.1965 83.6987 56.9911 83.932C56.7951 84.156 56.6505 84.4173 56.5571 84.716V89H54.6811V78.78H56.5571V83.022C56.8278 82.5553 57.1965 82.1913 57.6631 81.93C58.1298 81.6687 58.6385 81.538 59.1891 81.538C59.6651 81.538 60.0525 81.622 60.3511 81.79C60.6498 81.9487 60.8831 82.168 61.0511 82.448C61.2191 82.7187 61.3358 83.0267 61.4011 83.372C61.4665 83.708 61.4991 84.058 61.4991 84.422V89ZM66.5324 89.14C65.9444 89.14 65.4124 89.042 64.9364 88.846C64.4604 88.6407 64.0544 88.3653 63.7184 88.02C63.3824 87.6653 63.121 87.264 62.9344 86.816C62.757 86.3587 62.6684 85.878 62.6684 85.374C62.6684 84.674 62.8224 84.0347 63.1304 83.456C63.4477 82.8773 63.8957 82.4153 64.4744 82.07C65.0624 81.7153 65.753 81.538 66.5464 81.538C67.349 81.538 68.035 81.7153 68.6044 82.07C69.1737 82.4153 69.6077 82.8773 69.9064 83.456C70.2144 84.0253 70.3684 84.6413 70.3684 85.304C70.3684 85.416 70.3637 85.5327 70.3544 85.654C70.345 85.766 70.3357 85.8593 70.3264 85.934H64.6564C64.6937 86.3073 64.801 86.634 64.9784 86.914C65.165 87.194 65.3984 87.4087 65.6784 87.558C65.9677 87.698 66.2757 87.768 66.6024 87.768C66.9757 87.768 67.3257 87.6793 67.6524 87.502C67.9884 87.3153 68.217 87.0727 68.3384 86.774L69.9484 87.222C69.771 87.5953 69.5144 87.9267 69.1784 88.216C68.8517 88.5053 68.4644 88.734 68.0164 88.902C67.5684 89.0607 67.0737 89.14 66.5324 89.14ZM64.6144 84.744H68.4504C68.413 84.3707 68.3057 84.0487 68.1284 83.778C67.9604 83.498 67.7364 83.2833 67.4564 83.134C67.1764 82.9753 66.8637 82.896 66.5184 82.896C66.1824 82.896 65.8744 82.9753 65.5944 83.134C65.3237 83.2833 65.0997 83.498 64.9224 83.778C64.7544 84.0487 64.6517 84.3707 64.6144 84.744ZM74.9272 89.14C74.3299 89.14 73.7932 89.042 73.3172 88.846C72.8412 88.6407 72.4352 88.3607 72.0992 88.006C71.7632 87.642 71.5019 87.2313 71.3152 86.774C71.1379 86.3167 71.0492 85.836 71.0492 85.332C71.0492 84.6413 71.2032 84.0113 71.5112 83.442C71.8285 82.8633 72.2765 82.4013 72.8552 82.056C73.4339 81.7107 74.1199 81.538 74.9132 81.538C75.7065 81.538 76.3879 81.7107 76.9572 82.056C77.5265 82.4013 77.9512 82.854 78.2312 83.414L76.3972 83.974C76.2385 83.7033 76.0285 83.498 75.7672 83.358C75.5059 83.2087 75.2165 83.134 74.8992 83.134C74.5445 83.134 74.2179 83.2273 73.9192 83.414C73.6299 83.5913 73.4012 83.848 73.2332 84.184C73.0652 84.5107 72.9812 84.8933 72.9812 85.332C72.9812 85.7613 73.0652 86.144 73.2332 86.48C73.4105 86.8067 73.6439 87.068 73.9332 87.264C74.2225 87.4507 74.5445 87.544 74.8992 87.544C75.1232 87.544 75.3332 87.5067 75.5292 87.432C75.7345 87.3573 75.9165 87.2547 76.0752 87.124C76.2339 86.9933 76.3505 86.844 76.4252 86.676L78.2592 87.236C78.0912 87.6 77.8439 87.9267 77.5172 88.216C77.1999 88.5053 76.8219 88.734 76.3832 88.902C75.9539 89.0607 75.4685 89.14 74.9272 89.14ZM84.4256 89L82.2836 85.836L81.2896 86.816V89H79.4136V78.78H81.2896V84.968L84.2436 81.678H86.2316L83.5016 84.786L86.4276 89H84.4256ZM90.2254 89.14C89.6281 89.14 89.0914 89.042 88.6154 88.846C88.1394 88.6407 87.7334 88.3607 87.3974 88.006C87.0707 87.6513 86.8187 87.2453 86.6414 86.788C86.4641 86.3307 86.3754 85.85 86.3754 85.346C86.3754 84.8327 86.4641 84.3473 86.6414 83.89C86.8187 83.4327 87.0707 83.0267 87.3974 82.672C87.7334 82.3173 88.1394 82.042 88.6154 81.846C89.0914 81.6407 89.6281 81.538 90.2254 81.538C90.8227 81.538 91.3547 81.6407 91.8214 81.846C92.2974 82.042 92.7034 82.3173 93.0394 82.672C93.3754 83.0267 93.6274 83.4327 93.7954 83.89C93.9727 84.3473 94.0614 84.8327 94.0614 85.346C94.0614 85.85 93.9727 86.3307 93.7954 86.788C93.6274 87.2453 93.3754 87.6513 93.0394 88.006C92.7127 88.3607 92.3114 88.6407 91.8354 88.846C91.3594 89.042 90.8227 89.14 90.2254 89.14ZM88.3074 85.346C88.3074 85.7753 88.3914 86.158 88.5594 86.494C88.7274 86.8207 88.9561 87.0773 89.2454 87.264C89.5347 87.4507 89.8614 87.544 90.2254 87.544C90.5801 87.544 90.9021 87.4507 91.1914 87.264C91.4807 87.068 91.7094 86.8067 91.8774 86.48C92.0547 86.144 92.1434 85.7613 92.1434 85.332C92.1434 84.912 92.0547 84.534 91.8774 84.198C91.7094 83.862 91.4807 83.6007 91.1914 83.414C90.9021 83.2273 90.5801 83.134 90.2254 83.134C89.8614 83.134 89.5347 83.232 89.2454 83.428C88.9561 83.6147 88.7274 83.876 88.5594 84.212C88.3914 84.5387 88.3074 84.9167 88.3074 85.346ZM95.2576 86.256V81.664H97.1336V85.85C97.1336 86.41 97.2363 86.8347 97.4416 87.124C97.647 87.404 97.9503 87.544 98.3516 87.544C98.5943 87.544 98.8323 87.4973 99.0656 87.404C99.3083 87.3013 99.5276 87.152 99.7236 86.956C99.929 86.76 100.102 86.5127 100.242 86.214V81.664H102.118V86.9C102.118 87.096 102.15 87.236 102.216 87.32C102.29 87.404 102.407 87.4553 102.566 87.474V89C102.379 89.028 102.22 89.0467 102.09 89.056C101.968 89.0747 101.856 89.084 101.754 89.084C101.418 89.084 101.142 89.0093 100.928 88.86C100.722 88.7013 100.601 88.4867 100.564 88.216L100.522 87.628C100.195 88.1227 99.775 88.5007 99.2616 88.762C98.7483 89.014 98.1836 89.14 97.5676 89.14C96.8116 89.14 96.2376 88.8973 95.8456 88.412C95.4536 87.9173 95.2576 87.1987 95.2576 86.256ZM108.351 88.622C108.192 88.6873 108.001 88.762 107.777 88.846C107.553 88.93 107.31 88.9953 107.049 89.042C106.797 89.098 106.54 89.126 106.279 89.126C105.933 89.126 105.616 89.0653 105.327 88.944C105.037 88.8227 104.804 88.6313 104.627 88.37C104.459 88.0993 104.375 87.7493 104.375 87.32V83.106H103.409V81.664H104.375V79.284H106.251V81.664H107.791V83.106H106.251V86.69C106.26 86.942 106.33 87.124 106.461 87.236C106.591 87.348 106.755 87.404 106.951 87.404C107.147 87.404 107.338 87.3713 107.525 87.306C107.711 87.2407 107.861 87.1847 107.973 87.138L108.351 88.622Z" fill="black"/>
    <rect x="7.33325" y="94.5" width="59" height="19" rx="2.5" stroke="#FF5A55"/>
</svg>
