<svg width="156" height="201" viewBox="0 0 156 201" fill="none" xmlns="http://www.w3.org/2000/svg">
    <rect x="0.5" y="0.5" width="155" height="200" rx="9.5" fill="white" stroke="#EFEFEF"/>
    <rect x="4.5" y="4.5" width="147" height="19" rx="5.5" stroke="#FF5A55"/>
    <rect x="56.5" y="7.5" width="16" height="13" rx="2.5" stroke="#FFDE54"/>
    <rect x="4.5" y="27.5" width="147" height="146" rx="5.5" stroke="#54FF90"/>
    <rect x="4.5" y="177.5" width="147" height="19" rx="5.5" stroke="#FF5A55"/>
    <rect x="7.5" y="151.5" width="141" height="19" rx="2.5" stroke="#FF5A55"/>
    <path d="M60.4676 85.332C60.4676 84.6227 60.6076 83.9833 60.8876 83.414C61.1676 82.8353 61.5549 82.378 62.0496 82.042C62.5443 81.706 63.1089 81.538 63.7436 81.538C64.2849 81.538 64.7703 81.6733 65.1996 81.944C65.6383 82.2053 65.9789 82.5413 66.2216 82.952V78.78H68.0976V86.9C68.0976 87.096 68.1303 87.236 68.1956 87.32C68.2609 87.404 68.3729 87.4553 68.5316 87.474V89C68.2049 89.0653 67.9389 89.098 67.7336 89.098C67.3976 89.098 67.1176 89.014 66.8936 88.846C66.6789 88.678 66.5576 88.4587 66.5296 88.188L66.5016 87.726C66.2309 88.1833 65.8623 88.5333 65.3956 88.776C64.9383 89.0187 64.4576 89.14 63.9536 89.14C63.4496 89.14 62.9829 89.042 62.5536 88.846C62.1336 88.65 61.7649 88.3793 61.4476 88.034C61.1396 87.6887 60.8969 87.2873 60.7196 86.83C60.5516 86.3633 60.4676 85.864 60.4676 85.332ZM66.2216 86.312V84.562C66.1283 84.2913 65.9789 84.0487 65.7736 83.834C65.5683 83.6193 65.3396 83.4513 65.0876 83.33C64.8356 83.1993 64.5836 83.134 64.3316 83.134C64.0423 83.134 63.7809 83.1947 63.5476 83.316C63.3143 83.4373 63.1089 83.6007 62.9316 83.806C62.7636 84.0113 62.6329 84.2493 62.5396 84.52C62.4556 84.7907 62.4136 85.0753 62.4136 85.374C62.4136 85.6727 62.4603 85.9573 62.5536 86.228C62.6563 86.4893 62.8009 86.718 62.9876 86.914C63.1743 87.11 63.3889 87.264 63.6316 87.376C63.8836 87.488 64.1543 87.544 64.4436 87.544C64.6209 87.544 64.7983 87.516 64.9756 87.46C65.1623 87.3947 65.3349 87.3107 65.4936 87.208C65.6616 87.096 65.8063 86.9653 65.9276 86.816C66.0583 86.6573 66.1563 86.4893 66.2216 86.312ZM73.341 89.14C72.753 89.14 72.221 89.042 71.745 88.846C71.269 88.6407 70.863 88.3653 70.527 88.02C70.191 87.6653 69.9297 87.264 69.743 86.816C69.5657 86.3587 69.477 85.878 69.477 85.374C69.477 84.674 69.631 84.0347 69.939 83.456C70.2564 82.8773 70.7044 82.4153 71.283 82.07C71.871 81.7153 72.5617 81.538 73.355 81.538C74.1577 81.538 74.8437 81.7153 75.413 82.07C75.9824 82.4153 76.4164 82.8773 76.715 83.456C77.023 84.0253 77.177 84.6413 77.177 85.304C77.177 85.416 77.1724 85.5327 77.163 85.654C77.1537 85.766 77.1444 85.8593 77.135 85.934H71.465C71.5024 86.3073 71.6097 86.634 71.787 86.914C71.9737 87.194 72.207 87.4087 72.487 87.558C72.7764 87.698 73.0844 87.768 73.411 87.768C73.7844 87.768 74.1344 87.6793 74.461 87.502C74.797 87.3153 75.0257 87.0727 75.147 86.774L76.757 87.222C76.5797 87.5953 76.323 87.9267 75.987 88.216C75.6604 88.5053 75.273 88.734 74.825 88.902C74.377 89.0607 73.8824 89.14 73.341 89.14ZM71.423 84.744H75.259C75.2217 84.3707 75.1144 84.0487 74.937 83.778C74.769 83.498 74.545 83.2833 74.265 83.134C73.985 82.9753 73.6724 82.896 73.327 82.896C72.991 82.896 72.683 82.9753 72.403 83.134C72.1324 83.2833 71.9084 83.498 71.731 83.778C71.563 84.0487 71.4604 84.3707 71.423 84.744ZM82.6475 88.622C82.4889 88.6873 82.2975 88.762 82.0735 88.846C81.8495 88.93 81.6069 88.9953 81.3455 89.042C81.0935 89.098 80.8369 89.126 80.5755 89.126C80.2302 89.126 79.9129 89.0653 79.6235 88.944C79.3342 88.8227 79.1009 88.6313 78.9235 88.37C78.7555 88.0993 78.6715 87.7493 78.6715 87.32V83.106H77.7055V81.664H78.6715V79.284H80.5475V81.664H82.0875V83.106H80.5475V86.69C80.5569 86.942 80.6269 87.124 80.7575 87.236C80.8882 87.348 81.0515 87.404 81.2475 87.404C81.4435 87.404 81.6349 87.3713 81.8215 87.306C82.0082 87.2407 82.1575 87.1847 82.2695 87.138L82.6475 88.622ZM83.1206 86.83C83.1206 86.354 83.2513 85.9387 83.5126 85.584C83.7833 85.22 84.1566 84.94 84.6326 84.744C85.1086 84.548 85.6546 84.45 86.2706 84.45C86.5786 84.45 86.8913 84.4733 87.2086 84.52C87.5259 84.5667 87.8013 84.6413 88.0346 84.744V84.352C88.0346 83.8853 87.8946 83.526 87.6146 83.274C87.3439 83.022 86.9379 82.896 86.3966 82.896C85.9953 82.896 85.6126 82.966 85.2486 83.106C84.8846 83.246 84.5019 83.4513 84.1006 83.722L83.4986 82.49C83.9839 82.1727 84.4786 81.9347 84.9826 81.776C85.4959 81.6173 86.0326 81.538 86.5926 81.538C87.6379 81.538 88.4499 81.7993 89.0286 82.322C89.6166 82.8447 89.9106 83.5913 89.9106 84.562V86.9C89.9106 87.096 89.9433 87.236 90.0086 87.32C90.0833 87.404 90.1999 87.4553 90.3586 87.474V89C90.1906 89.028 90.0366 89.0513 89.8966 89.07C89.7659 89.0887 89.6539 89.098 89.5606 89.098C89.1873 89.098 88.9026 89.014 88.7066 88.846C88.5199 88.678 88.4033 88.4727 88.3566 88.23L88.3146 87.852C87.9973 88.2627 87.6006 88.58 87.1246 88.804C86.6486 89.028 86.1633 89.14 85.6686 89.14C85.1833 89.14 84.7446 89.042 84.3526 88.846C83.9699 88.6407 83.6666 88.3653 83.4426 88.02C83.2279 87.6653 83.1206 87.2687 83.1206 86.83ZM87.6846 87.208C87.7873 87.096 87.8713 86.984 87.9366 86.872C88.0019 86.76 88.0346 86.6573 88.0346 86.564V85.822C87.8106 85.7287 87.5679 85.6587 87.3066 85.612C87.0453 85.556 86.7979 85.528 86.5646 85.528C86.0793 85.528 85.6779 85.6353 85.3606 85.85C85.0526 86.0553 84.8986 86.3307 84.8986 86.676C84.8986 86.8627 84.9499 87.04 85.0526 87.208C85.1553 87.376 85.3046 87.5113 85.5006 87.614C85.6966 87.7167 85.9299 87.768 86.2006 87.768C86.4806 87.768 86.7559 87.7167 87.0266 87.614C87.2973 87.502 87.5166 87.3667 87.6846 87.208ZM91.6637 89V81.664H93.5397V89H91.6637ZM91.6637 80.642V78.78H93.5397V80.642H91.6637ZM95.218 78.78H97.094V86.648C97.094 86.984 97.15 87.2127 97.262 87.334C97.374 87.446 97.528 87.502 97.724 87.502C97.8733 87.502 98.0273 87.4833 98.186 87.446C98.3447 87.4087 98.4847 87.362 98.606 87.306L98.858 88.734C98.606 88.8553 98.312 88.9487 97.976 89.014C97.64 89.0793 97.3367 89.112 97.066 89.112C96.478 89.112 96.0207 88.958 95.694 88.65C95.3767 88.3327 95.218 87.8847 95.218 87.306V78.78Z" fill="black"/>
    <rect x="89.5" y="94.5" width="59" height="19" rx="2.5" stroke="#FFDE54"/>
</svg>
