<svg width="156" height="201" viewBox="0 0 156 201" fill="none" xmlns="http://www.w3.org/2000/svg">
    <rect x="0.5" y="0.5" width="155" height="200" rx="9.5" fill="white" stroke="#EFEFEF"/>
    <rect x="4.5" y="4.5" width="147" height="19" rx="5.5" stroke="#FF5A55"/>
    <rect x="56.5" y="7.5" width="16" height="13" rx="2.5" stroke="#FFDE54"/>
    <rect x="4.5" y="27.5" width="147" height="146" rx="5.5" stroke="#FF5A55"/>
    <rect x="4.5" y="177.5" width="147" height="19" rx="5.5" stroke="#FF5A55"/>
    <path d="M68.259 89H66.383V84.884C66.383 84.3147 66.271 83.89 66.047 83.61C65.8323 83.33 65.5337 83.19 65.151 83.19C64.927 83.19 64.689 83.2553 64.437 83.386C64.185 83.5167 63.9563 83.6987 63.751 83.932C63.555 84.156 63.4103 84.4173 63.317 84.716V89H61.441V78.78H63.317V83.022C63.5877 82.5553 63.9563 82.1913 64.423 81.93C64.8897 81.6687 65.3983 81.538 65.949 81.538C66.425 81.538 66.8123 81.622 67.111 81.79C67.4097 81.9487 67.643 82.168 67.811 82.448C67.979 82.7187 68.0957 83.0267 68.161 83.372C68.2263 83.708 68.259 84.058 68.259 84.422V89ZM73.2782 89.14C72.6809 89.14 72.1442 89.042 71.6682 88.846C71.1922 88.6407 70.7862 88.3607 70.4502 88.006C70.1236 87.6513 69.8716 87.2453 69.6942 86.788C69.5169 86.3307 69.4282 85.85 69.4282 85.346C69.4282 84.8327 69.5169 84.3473 69.6942 83.89C69.8716 83.4327 70.1236 83.0267 70.4502 82.672C70.7862 82.3173 71.1922 82.042 71.6682 81.846C72.1442 81.6407 72.6809 81.538 73.2782 81.538C73.8756 81.538 74.4076 81.6407 74.8742 81.846C75.3502 82.042 75.7562 82.3173 76.0922 82.672C76.4282 83.0267 76.6802 83.4327 76.8482 83.89C77.0256 84.3473 77.1142 84.8327 77.1142 85.346C77.1142 85.85 77.0256 86.3307 76.8482 86.788C76.6802 87.2453 76.4282 87.6513 76.0922 88.006C75.7656 88.3607 75.3642 88.6407 74.8882 88.846C74.4122 89.042 73.8756 89.14 73.2782 89.14ZM71.3602 85.346C71.3602 85.7753 71.4442 86.158 71.6122 86.494C71.7802 86.8207 72.0089 87.0773 72.2982 87.264C72.5876 87.4507 72.9142 87.544 73.2782 87.544C73.6329 87.544 73.9549 87.4507 74.2442 87.264C74.5336 87.068 74.7622 86.8067 74.9302 86.48C75.1076 86.144 75.1962 85.7613 75.1962 85.332C75.1962 84.912 75.1076 84.534 74.9302 84.198C74.7622 83.862 74.5336 83.6007 74.2442 83.414C73.9549 83.2273 73.6329 83.134 73.2782 83.134C72.9142 83.134 72.5876 83.232 72.2982 83.428C72.0089 83.6147 71.7802 83.876 71.6122 84.212C71.4442 84.5387 71.3602 84.9167 71.3602 85.346ZM89.7765 89H87.9005V84.884C87.9005 84.3053 87.7978 83.8807 87.5925 83.61C87.3965 83.33 87.1211 83.19 86.7665 83.19C86.4025 83.19 86.0525 83.3347 85.7165 83.624C85.3898 83.904 85.1565 84.2727 85.0165 84.73V89H83.1405V84.884C83.1405 84.296 83.0378 83.8667 82.8325 83.596C82.6365 83.3253 82.3611 83.19 82.0065 83.19C81.6425 83.19 81.2925 83.33 80.9565 83.61C80.6298 83.89 80.3965 84.2587 80.2565 84.716V89H78.3805V81.664H80.0745V83.022C80.3545 82.546 80.7278 82.182 81.1945 81.93C81.6611 81.6687 82.1978 81.538 82.8045 81.538C83.4111 81.538 83.8825 81.6873 84.2185 81.986C84.5638 82.2847 84.7831 82.6533 84.8765 83.092C85.1751 82.588 85.5531 82.2053 86.0105 81.944C86.4771 81.6733 86.9998 81.538 87.5785 81.538C88.0358 81.538 88.4045 81.622 88.6845 81.79C88.9738 81.9487 89.1978 82.168 89.3565 82.448C89.5151 82.7187 89.6225 83.0267 89.6785 83.372C89.7438 83.7173 89.7765 84.0673 89.7765 84.422V89ZM94.8118 89.14C94.2238 89.14 93.6918 89.042 93.2158 88.846C92.7398 88.6407 92.3338 88.3653 91.9978 88.02C91.6618 87.6653 91.4004 87.264 91.2138 86.816C91.0364 86.3587 90.9478 85.878 90.9478 85.374C90.9478 84.674 91.1018 84.0347 91.4098 83.456C91.7271 82.8773 92.1751 82.4153 92.7538 82.07C93.3418 81.7153 94.0324 81.538 94.8258 81.538C95.6284 81.538 96.3144 81.7153 96.8838 82.07C97.4531 82.4153 97.8871 82.8773 98.1858 83.456C98.4938 84.0253 98.6478 84.6413 98.6478 85.304C98.6478 85.416 98.6431 85.5327 98.6338 85.654C98.6244 85.766 98.6151 85.8593 98.6058 85.934H92.9358C92.9731 86.3073 93.0804 86.634 93.2578 86.914C93.4444 87.194 93.6778 87.4087 93.9578 87.558C94.2471 87.698 94.5551 87.768 94.8818 87.768C95.2551 87.768 95.6051 87.6793 95.9318 87.502C96.2678 87.3153 96.4964 87.0727 96.6178 86.774L98.2278 87.222C98.0504 87.5953 97.7938 87.9267 97.4578 88.216C97.1311 88.5053 96.7438 88.734 96.2958 88.902C95.8478 89.0607 95.3531 89.14 94.8118 89.14ZM92.8938 84.744H96.7298C96.6924 84.3707 96.5851 84.0487 96.4078 83.778C96.2398 83.498 96.0158 83.2833 95.7358 83.134C95.4558 82.9753 95.1431 82.896 94.7978 82.896C94.4618 82.896 94.1538 82.9753 93.8738 83.134C93.6031 83.2833 93.3791 83.498 93.2018 83.778C93.0338 84.0487 92.9311 84.3707 92.8938 84.744Z" fill="black"/>
</svg>
