<svg width="156" height="201" viewBox="0 0 156 201" fill="none" xmlns="http://www.w3.org/2000/svg">
    <rect x="0.5" y="0.5" width="155" height="200" rx="9.5" fill="white" stroke="#EFEFEF"/>
    <rect x="4.5" y="4.5" width="147" height="19" rx="5.5" stroke="#FF5A55"/>
    <rect x="56.5" y="7.5" width="16" height="13" rx="2.5" stroke="#FFDE54"/>
    <rect x="4.5" y="27.5" width="147" height="146" rx="5.5" stroke="#FF5A55"/>
    <rect x="4.5" y="177.5" width="147" height="19" rx="5.5" stroke="#FF5A55"/>
    <path d="M70.471 78.78H72.347V86.648C72.347 86.984 72.403 87.2127 72.515 87.334C72.627 87.446 72.781 87.502 72.977 87.502C73.1263 87.502 73.2803 87.4833 73.439 87.446C73.5976 87.4087 73.7376 87.362 73.859 87.306L74.111 88.734C73.859 88.8553 73.565 88.9487 73.229 89.014C72.893 89.0793 72.5896 89.112 72.319 89.112C71.731 89.112 71.2736 88.958 70.947 88.65C70.6296 88.3327 70.471 87.8847 70.471 87.306V78.78ZM74.9283 89V81.664H76.8043V89H74.9283ZM74.9283 80.642V78.78H76.8043V80.642H74.9283ZM81.1987 89.14C80.5733 89.14 79.976 89.0373 79.4067 88.832C78.8373 88.6267 78.3473 88.3233 77.9367 87.922L78.6087 86.704C79.0473 87.0587 79.4767 87.32 79.8967 87.488C80.326 87.656 80.7367 87.74 81.1287 87.74C81.4927 87.74 81.782 87.6747 81.9967 87.544C82.2207 87.4133 82.3327 87.2173 82.3327 86.956C82.3327 86.7787 82.272 86.6433 82.1507 86.55C82.0293 86.4473 81.852 86.3587 81.6187 86.284C81.3947 86.2093 81.1193 86.1253 80.7927 86.032C80.2513 85.8547 79.7987 85.682 79.4347 85.514C79.0707 85.346 78.7953 85.136 78.6087 84.884C78.4313 84.6227 78.3427 84.2913 78.3427 83.89C78.3427 83.4047 78.464 82.9893 78.7067 82.644C78.9587 82.2893 79.304 82.014 79.7427 81.818C80.1907 81.622 80.7133 81.524 81.3107 81.524C81.8333 81.524 82.328 81.608 82.7947 81.776C83.2613 81.9347 83.686 82.196 84.0687 82.56L83.3127 83.75C82.9393 83.4607 82.5847 83.2507 82.2487 83.12C81.9127 82.98 81.572 82.91 81.2267 82.91C81.0307 82.91 80.844 82.9333 80.6667 82.98C80.4987 83.0267 80.3587 83.106 80.2467 83.218C80.144 83.3207 80.0927 83.47 80.0927 83.666C80.0927 83.8433 80.1393 83.9833 80.2327 84.086C80.3353 84.1793 80.4847 84.2633 80.6807 84.338C80.886 84.4127 81.1333 84.4967 81.4227 84.59C82.0107 84.758 82.5053 84.9307 82.9067 85.108C83.3173 85.2853 83.6253 85.5047 83.8307 85.766C84.036 86.018 84.1387 86.368 84.1387 86.816C84.1387 87.544 83.8727 88.1133 83.3407 88.524C82.8087 88.9347 82.0947 89.14 81.1987 89.14ZM89.7696 88.622C89.611 88.6873 89.4196 88.762 89.1956 88.846C88.9716 88.93 88.729 88.9953 88.4676 89.042C88.2156 89.098 87.959 89.126 87.6976 89.126C87.3523 89.126 87.035 89.0653 86.7456 88.944C86.4563 88.8227 86.223 88.6313 86.0456 88.37C85.8776 88.0993 85.7936 87.7493 85.7936 87.32V83.106H84.8276V81.664H85.7936V79.284H87.6696V81.664H89.2096V83.106H87.6696V86.69C87.679 86.942 87.749 87.124 87.8796 87.236C88.0103 87.348 88.1736 87.404 88.3696 87.404C88.5656 87.404 88.757 87.3713 88.9436 87.306C89.1303 87.2407 89.2796 87.1847 89.3916 87.138L89.7696 88.622Z" fill="black"/>
</svg>
