<svg width="156" height="201" viewBox="0 0 156 201" fill="none" xmlns="http://www.w3.org/2000/svg">
    <rect x="0.5" y="0.5" width="155" height="200" rx="9.5" fill="white" stroke="#EFEFEF"/>
    <rect x="4.5" y="4.5" width="71" height="19" rx="5.5" stroke="#FF5A55"/>
    <rect x="56.5" y="7.5" width="16" height="13" rx="2.5" stroke="#FFDE54"/>
    <rect x="4.5" y="27.5" width="147" height="145" rx="5.5" stroke="#FFDE54"/>
    <rect x="4.5" y="176.5" width="147" height="19" rx="5.5" fill="white" stroke="#FF5A55"/>
    <path d="M59.9737 88.622C59.815 88.6873 59.6237 88.762 59.3997 88.846C59.1757 88.93 58.933 88.9953 58.6717 89.042C58.4197 89.098 58.163 89.126 57.9017 89.126C57.5564 89.126 57.239 89.0653 56.9497 88.944C56.6604 88.8227 56.427 88.6313 56.2497 88.37C56.0817 88.0993 55.9977 87.7493 55.9977 87.32V83.106H55.0317V81.664H55.9977V79.284H57.8737V81.664H59.4137V83.106H57.8737V86.69C57.883 86.942 57.953 87.124 58.0837 87.236C58.2144 87.348 58.3777 87.404 58.5737 87.404C58.7697 87.404 58.961 87.3713 59.1477 87.306C59.3344 87.2407 59.4837 87.1847 59.5957 87.138L59.9737 88.622ZM67.7687 89H65.8927V84.884C65.8927 84.3147 65.7807 83.89 65.5567 83.61C65.3421 83.33 65.0434 83.19 64.6607 83.19C64.4367 83.19 64.1987 83.2553 63.9467 83.386C63.6947 83.5167 63.4661 83.6987 63.2607 83.932C63.0647 84.156 62.9201 84.4173 62.8267 84.716V89H60.9507V78.78H62.8267V83.022C63.0974 82.5553 63.4661 82.1913 63.9327 81.93C64.3994 81.6687 64.9081 81.538 65.4587 81.538C65.9347 81.538 66.3221 81.622 66.6207 81.79C66.9194 81.9487 67.1527 82.168 67.3207 82.448C67.4887 82.7187 67.6054 83.0267 67.6707 83.372C67.7361 83.708 67.7687 84.058 67.7687 84.422V89ZM68.896 86.83C68.896 86.354 69.0266 85.9387 69.288 85.584C69.5586 85.22 69.932 84.94 70.408 84.744C70.884 84.548 71.43 84.45 72.046 84.45C72.354 84.45 72.6666 84.4733 72.984 84.52C73.3013 84.5667 73.5766 84.6413 73.81 84.744V84.352C73.81 83.8853 73.67 83.526 73.39 83.274C73.1193 83.022 72.7133 82.896 72.172 82.896C71.7706 82.896 71.388 82.966 71.024 83.106C70.66 83.246 70.2773 83.4513 69.876 83.722L69.274 82.49C69.7593 82.1727 70.254 81.9347 70.758 81.776C71.2713 81.6173 71.808 81.538 72.368 81.538C73.4133 81.538 74.2253 81.7993 74.804 82.322C75.392 82.8447 75.686 83.5913 75.686 84.562V86.9C75.686 87.096 75.7186 87.236 75.784 87.32C75.8586 87.404 75.9753 87.4553 76.134 87.474V89C75.966 89.028 75.812 89.0513 75.672 89.07C75.5413 89.0887 75.4293 89.098 75.336 89.098C74.9626 89.098 74.678 89.014 74.482 88.846C74.2953 88.678 74.1786 88.4727 74.132 88.23L74.09 87.852C73.7726 88.2627 73.376 88.58 72.9 88.804C72.424 89.028 71.9386 89.14 71.444 89.14C70.9586 89.14 70.52 89.042 70.128 88.846C69.7453 88.6407 69.442 88.3653 69.218 88.02C69.0033 87.6653 68.896 87.2687 68.896 86.83ZM73.46 87.208C73.5626 87.096 73.6466 86.984 73.712 86.872C73.7773 86.76 73.81 86.6573 73.81 86.564V85.822C73.586 85.7287 73.3433 85.6587 73.082 85.612C72.8206 85.556 72.5733 85.528 72.34 85.528C71.8546 85.528 71.4533 85.6353 71.136 85.85C70.828 86.0553 70.674 86.3307 70.674 86.676C70.674 86.8627 70.7253 87.04 70.828 87.208C70.9306 87.376 71.08 87.5113 71.276 87.614C71.472 87.7167 71.7053 87.768 71.976 87.768C72.256 87.768 72.5313 87.7167 72.802 87.614C73.0726 87.502 73.292 87.3667 73.46 87.208ZM84.257 89H82.381V84.884C82.381 84.296 82.2784 83.8667 82.073 83.596C81.8677 83.3253 81.583 83.19 81.219 83.19C80.967 83.19 80.7104 83.2553 80.449 83.386C80.197 83.5167 79.9684 83.6987 79.763 83.932C79.5577 84.156 79.4084 84.4173 79.315 84.716V89H77.439V81.664H79.133V83.022C79.3197 82.7047 79.5577 82.4387 79.847 82.224C80.1364 82 80.4677 81.832 80.841 81.72C81.2237 81.5987 81.625 81.538 82.045 81.538C82.5024 81.538 82.8757 81.622 83.165 81.79C83.4637 81.9487 83.6877 82.168 83.837 82.448C83.9957 82.7187 84.103 83.0267 84.159 83.372C84.2244 83.7173 84.257 84.0673 84.257 84.422V89ZM90.9002 89L88.7582 85.836L87.7642 86.816V89H85.8882V78.78H87.7642V84.968L90.7182 81.678H92.7062L89.9762 84.786L92.9022 89H90.9002ZM96.3559 89.14C95.7305 89.14 95.1332 89.0373 94.5639 88.832C93.9945 88.6267 93.5045 88.3233 93.0939 87.922L93.7659 86.704C94.2045 87.0587 94.6339 87.32 95.0539 87.488C95.4832 87.656 95.8939 87.74 96.2859 87.74C96.6499 87.74 96.9392 87.6747 97.1539 87.544C97.3779 87.4133 97.4899 87.2173 97.4899 86.956C97.4899 86.7787 97.4292 86.6433 97.3079 86.55C97.1865 86.4473 97.0092 86.3587 96.7759 86.284C96.5519 86.2093 96.2765 86.1253 95.9499 86.032C95.4085 85.8547 94.9559 85.682 94.5919 85.514C94.2279 85.346 93.9525 85.136 93.7659 84.884C93.5885 84.6227 93.4999 84.2913 93.4999 83.89C93.4999 83.4047 93.6212 82.9893 93.8639 82.644C94.1159 82.2893 94.4612 82.014 94.8999 81.818C95.3479 81.622 95.8705 81.524 96.4679 81.524C96.9905 81.524 97.4852 81.608 97.9519 81.776C98.4185 81.9347 98.8432 82.196 99.2259 82.56L98.4699 83.75C98.0965 83.4607 97.7419 83.2507 97.4059 83.12C97.0699 82.98 96.7292 82.91 96.3839 82.91C96.1879 82.91 96.0012 82.9333 95.8239 82.98C95.6559 83.0267 95.5159 83.106 95.4039 83.218C95.3012 83.3207 95.2499 83.47 95.2499 83.666C95.2499 83.8433 95.2965 83.9833 95.3899 84.086C95.4925 84.1793 95.6419 84.2633 95.8379 84.338C96.0432 84.4127 96.2905 84.4967 96.5799 84.59C97.1679 84.758 97.6625 84.9307 98.0639 85.108C98.4745 85.2853 98.7825 85.5047 98.9879 85.766C99.1932 86.018 99.2959 86.368 99.2959 86.816C99.2959 87.544 99.0299 88.1133 98.4979 88.524C97.9659 88.9347 97.2519 89.14 96.3559 89.14Z" fill="black"/>
</svg>
