<svg width="92" height="92" viewBox="0 0 92 92" fill="none" xmlns="http://www.w3.org/2000/svg">
    <g clip-path="url(#clip0_120_360)">
        <path opacity="0.3" d="M25.3 74.0598L21.2367 78.1232L7.66666 64.5915L11.73 60.5282L25.3 74.0598ZM33.4267 65.9332L29.3633 69.9965L15.7933 56.4265L19.8567 52.3632L33.4267 65.9332ZM52.4017 46.9582L46.9967 52.3632L33.4267 38.7932L38.8317 33.3882L52.4017 46.9582ZM69.9967 29.3632L65.9333 33.4265L52.3633 19.8565L56.4267 15.7932L69.9967 29.3632ZM78.1233 21.2365L74.06 25.2998L60.49 11.7298L64.5917 7.6665L78.1233 21.2365Z" fill="black"/>
        <path d="M59.1865 2.2619L46.9965 14.4519C44.0065 17.4419 44.0065 22.3102 46.9965 25.3002L51.7498 30.0536L49.0281 32.7752L44.2748 27.9836C41.2848 24.9936 36.4165 24.9936 33.4265 27.9836L27.9831 33.4269C24.9931 36.4169 24.9931 41.2852 27.9831 44.2752L32.7365 49.0286L30.0148 51.7502L25.2998 46.9586C22.3098 43.9686 17.4415 43.9686 14.4515 46.9586L2.26146 59.1486C-0.728545 62.1386 -0.728545 67.0069 2.26146 69.9969L15.8315 83.5669C18.8215 86.5569 23.6898 86.5569 26.6798 83.5669L38.8698 71.3769C41.8598 68.3869 41.8598 63.5186 38.8698 60.5286L34.1165 55.7752L36.8381 53.0536L41.5915 57.8069C44.5815 60.7969 49.4498 60.7969 52.4398 57.8069L57.8448 52.4019C60.8348 49.4119 60.8348 44.5436 57.8448 41.5536L53.0531 36.8002L55.7748 34.0786L60.5281 38.8319C63.5181 41.8219 68.3865 41.8219 71.3765 38.8319L83.5665 26.6419C86.5565 23.6519 86.5565 18.7836 83.5665 15.7936L69.9965 2.22357C67.0065 -0.766429 62.1765 -0.766429 59.1865 2.2619ZM25.2998 74.0602L21.2365 78.1236L7.66646 64.5919L11.7298 60.5286L25.2998 74.0602ZM33.4265 65.9336L29.3631 69.9969L15.7931 56.4269L19.8565 52.3636L33.4265 65.9336ZM52.4015 46.9586L46.9965 52.3636L33.4265 38.7936L38.8315 33.3886L52.4015 46.9586ZM69.9965 29.3636L65.9331 33.4269L52.3631 19.8569L56.4265 15.7936L69.9965 29.3636ZM78.1231 21.2369L74.0598 25.3002L60.4898 11.7302L64.5915 7.6669L78.1231 21.2369ZM80.4998 53.6669H88.1665C88.1665 62.8169 84.5317 71.5921 78.0616 78.0621C71.5916 84.5321 62.8164 88.1669 53.6665 88.1669V80.5002C68.5015 80.5002 80.4998 68.5019 80.4998 53.6669ZM65.1665 53.6669H72.8331C72.8331 64.2469 64.2465 72.8336 53.6665 72.8336V65.1669C60.0298 65.1669 65.1665 60.0302 65.1665 53.6669Z" fill="black"/>
    </g>
    <defs>
        <clipPath id="clip0_120_360">
            <rect width="92" height="92" fill="white"/>
        </clipPath>
    </defs>
</svg>
