<svg width="93" height="93" viewBox="0 0 93 93" fill="none" xmlns="http://www.w3.org/2000/svg">
    <g clip-path="url(#clip0_120_363)">
        <path opacity="0.3" d="M74.4388 46.655L68.51 46.2288L67.3475 40.4163C66.4007 35.5821 63.804 31.227 60.0012 28.0957C56.1985 24.9645 51.426 23.2516 46.5 23.25C38.5175 23.25 31.31 27.6675 27.59 34.72L25.6525 38.4012L21.5063 38.8275C17.7146 39.2482 14.2123 41.0558 11.6729 43.9028C9.13349 46.7498 7.73631 50.4351 7.75001 54.25C7.75001 62.8138 14.6863 69.75 23.25 69.75H73.625C80.0188 69.75 85.25 64.5187 85.25 58.125C85.25 52.1187 80.5225 47.0425 74.4388 46.655Z" fill="black"/>
        <path d="M74.9813 38.905C73.6796 32.3087 70.1282 26.3688 64.9336 22.1001C59.739 17.8313 53.2235 15.4985 46.5 15.5C35.3013 15.5 25.575 21.855 20.7312 31.155C15.0359 31.7705 9.7689 34.4689 5.94227 38.7319C2.11564 42.9948 -0.000665344 48.5215 1.56909e-07 54.25C1.56909e-07 67.0762 10.4237 77.5 23.25 77.5H73.625C84.32 77.5 93 68.82 93 58.125C93 47.895 85.0563 39.6025 74.9813 38.905ZM73.625 69.75H23.25C14.6862 69.75 7.75 62.8138 7.75 54.25C7.75 46.3062 13.6788 39.68 21.545 38.8662L25.6912 38.44L27.6287 34.7588C29.4108 31.2898 32.1155 28.3798 35.4451 26.3492C38.7747 24.3186 42.6001 23.2462 46.5 23.25C56.6525 23.25 65.41 30.4575 67.3862 40.4163L68.5488 46.2288L74.4775 46.655C77.3905 46.8509 80.1211 48.143 82.1199 50.2711C84.1186 52.3992 85.237 55.2055 85.25 58.125C85.25 64.5187 80.0188 69.75 73.625 69.75Z" fill="black"/>
    </g>
    <defs>
        <clipPath id="clip0_120_363">
            <rect width="93" height="93" fill="white"/>
        </clipPath>
    </defs>
</svg>
