<svg width="93" height="93" viewBox="0 0 93 93" fill="none" xmlns="http://www.w3.org/2000/svg">
    <path opacity="0.3" d="M58.125 11.625L46.5 16.6237V69.6337L58.125 64.635V11.625Z" fill="black"/>
    <path d="M77.5 11.6252H65.875C65.875 6.04521 60.1787 2.32521 55.0638 4.49521L43.4388 9.49396C40.61 10.6952 38.75 13.524 38.75 16.624V73.6252C38.75 77.8877 42.2375 81.3752 46.5 81.3752H77.5C81.7625 81.3752 85.25 77.8877 85.25 73.6252V19.3752C85.25 15.1127 81.7625 11.6252 77.5 11.6252ZM46.5 16.624L58.125 11.6252V64.6352L46.5 69.634V16.624ZM77.5 73.6252H56.8462L61.1862 71.7652C64.015 70.5252 65.875 67.7352 65.875 64.6352V19.3752H77.5V73.6252ZM7.75 11.6252H15.5V19.3752H7.75V11.6252ZM7.75 73.6252H15.5V81.3752H7.75V73.6252ZM7.75 58.1252H15.5V65.8752H7.75V58.1252ZM7.75 42.6252H15.5V50.3752H7.75V42.6252ZM7.75 27.1252H15.5V34.8752H7.75V27.1252ZM23.25 11.6252H31V19.3752H23.25V11.6252ZM23.25 73.6252H31V81.3752H23.25V73.6252Z" fill="black"/>
</svg>
