<svg width="92" height="92" viewBox="0 0 92 92" fill="none" xmlns="http://www.w3.org/2000/svg">
    <path opacity="0.3" d="M60.9884 35.5732L56.005 30.5898L19.1667 67.4282V72.8332H24.5717L61.41 35.9948L60.9884 35.5732ZM41.515 34.2315L36.915 29.6315L32.3534 34.1932L26.91 28.7498L31.4717 24.2265L26.6034 19.3198L19.32 26.6032L34.2317 41.5148L41.515 34.2315ZM62.3684 55.1232L57.7684 50.4848L50.485 57.7682L65.3967 72.6798L72.68 65.3965L67.8117 60.5282L63.25 65.0898L57.8067 59.6848L62.3684 55.1232ZM61.41 25.1388L66.8342 19.7185L72.2545 25.1388L66.8342 30.5592L61.41 25.1388Z" fill="black"/>
    <path d="M80.385 22.4635L69.5367 11.6152C69.182 11.2598 68.7608 10.9779 68.2971 10.7855C67.8333 10.5932 67.3362 10.4941 66.8342 10.4941C66.3321 10.4941 65.835 10.5932 65.3713 10.7855C64.9075 10.9779 64.4863 11.2598 64.1317 11.6152L46.92 28.8268L32.0083 13.9152C29.0183 10.9252 24.15 10.9252 21.16 13.9152L13.8767 21.1985C10.8867 24.1885 10.8867 29.0568 13.8767 32.0468L28.7883 46.9585L11.5 64.2468V80.5002H27.7533L45.08 63.1735L59.9917 78.0852C63.6333 81.7268 68.54 80.3852 70.84 78.0852L78.1233 70.8018C81.1133 67.8118 81.1133 62.9435 78.1233 59.9535L63.2117 45.0418L80.4233 27.8302C81.1271 27.112 81.518 26.1444 81.5109 25.1389C81.5037 24.1334 81.0989 23.1716 80.385 22.4635ZM19.32 26.6035L26.565 19.3202L31.4333 24.1885L26.91 28.7502L32.315 34.1552L36.8767 29.5935L41.4767 34.1935L34.1933 41.4768L19.32 26.6035ZM24.5717 72.8335H19.1667V67.4285L56.005 30.5902L60.9883 35.5735L61.41 35.9952L24.5717 72.8335ZM63.25 65.0902L67.8117 60.5285L72.68 65.3968L65.3967 72.6802L50.485 57.7685L57.7683 50.4852L62.3683 55.0852L57.8067 59.6468L63.25 65.0902ZM66.8533 30.5902L61.4483 25.1852L66.8533 19.7802L72.2583 25.1852L66.8533 30.5902Z" fill="black"/>
</svg>
