<svg width="92" height="92" viewBox="0 0 92 92" fill="none" xmlns="http://www.w3.org/2000/svg">
    <path d="M11.5 19.1667H19.1667V11.5C14.95 11.5 11.5 14.95 11.5 19.1667ZM11.5 49.8333H19.1667V42.1667H11.5V49.8333ZM26.8333 80.5H34.5V72.8333H26.8333V80.5ZM11.5 34.5H19.1667V26.8333H11.5V34.5ZM49.8333 11.5H42.1667V19.1667H49.8333V11.5ZM72.8333 11.5V19.1667H80.5C80.5 14.95 77.05 11.5 72.8333 11.5ZM19.1667 80.5V72.8333H11.5C11.5 77.05 14.95 80.5 19.1667 80.5ZM11.5 65.1667H19.1667V57.5H11.5V65.1667ZM34.5 11.5H26.8333V19.1667H34.5V11.5ZM42.1667 80.5H49.8333V72.8333H42.1667V80.5ZM72.8333 49.8333H80.5V42.1667H72.8333V49.8333ZM72.8333 80.5C77.05 80.5 80.5 77.05 80.5 72.8333H72.8333V80.5ZM72.8333 34.5H80.5V26.8333H72.8333V34.5ZM72.8333 65.1667H80.5V57.5H72.8333V65.1667ZM57.5 80.5H65.1667V72.8333H57.5V80.5ZM57.5 19.1667H65.1667V11.5H57.5V19.1667ZM26.8333 65.1667H65.1667V26.8333H26.8333V65.1667ZM34.5 34.5H57.5V57.5H34.5V34.5Z" fill="black"/>
</svg>
