<svg width="92" height="92" viewBox="0 0 92 92" fill="none" xmlns="http://www.w3.org/2000/svg">
    <path opacity="0.3" d="M26.91 72.8333C22.6933 72.8333 19.2433 69.3833 19.2433 65.1667C19.2433 60.95 22.6933 57.5 26.91 57.5C31.1267 57.5 34.5767 60.95 34.5767 65.1667C34.5767 69.3833 31.1267 72.8333 26.91 72.8333ZM72.8333 72.8333H57.5V57.5H72.8333V72.8333ZM26.8333 23.46L32.9667 34.5H20.7L26.8333 23.46ZM65.1667 32.0083C59.6083 27.3317 53.6667 22.8083 53.6667 20.125C53.6667 18.4767 55.0083 17.25 56.5417 17.25C57.73 17.25 58.535 17.9017 59.34 18.6683L65.1667 24.15L70.9933 18.6683C71.7983 17.9017 72.6033 17.25 73.7917 17.25C75.325 17.25 76.6667 18.4767 76.6667 20.125C76.6667 22.8083 70.725 27.3317 65.1667 32.0083Z" fill="black"/>
    <path d="M26.91 49.8332C18.4383 49.8332 11.5767 56.6948 11.5767 65.1665C11.5767 73.6382 18.4383 80.4998 26.91 80.4998C35.3817 80.4998 42.2433 73.6382 42.2433 65.1665C42.2433 56.6948 35.3817 49.8332 26.91 49.8332ZM26.91 72.8332C22.6933 72.8332 19.2433 69.3832 19.2433 65.1665C19.2433 60.9498 22.6933 57.4998 26.91 57.4998C31.1267 57.4998 34.5767 60.9498 34.5767 65.1665C34.5767 69.3832 31.1267 72.8332 26.91 72.8332ZM49.8333 49.8332V80.4998H80.5V49.8332H49.8333ZM72.8333 72.8332H57.5V57.4998H72.8333V72.8332ZM26.8333 7.6665L7.66666 42.1665H46L26.8333 7.6665ZM26.8333 23.4598L32.9667 34.4998H20.7L26.8333 23.4598ZM73.7917 9.58317C69.7283 9.58317 66.8533 11.7298 65.1667 14.0682C63.48 11.7298 60.605 9.58317 56.5417 9.58317C50.5617 9.58317 46 14.4898 46 20.1248C46 27.7915 55.2767 33.2348 65.1667 42.1665C75.0567 33.2348 84.3333 27.7915 84.3333 20.1248C84.3333 14.4898 79.7717 9.58317 73.7917 9.58317ZM65.1667 32.0082C59.6083 27.3315 53.6667 22.8082 53.6667 20.1248C53.6667 18.4765 55.0083 17.2498 56.5417 17.2498C57.73 17.2498 58.535 17.9015 59.34 18.6682L65.1667 24.1498L70.9933 18.6682C71.7983 17.9015 72.6033 17.2498 73.7917 17.2498C75.325 17.2498 76.6667 18.4765 76.6667 20.1248C76.6667 22.8082 70.725 27.3315 65.1667 32.0082Z" fill="black"/>
</svg>
